<?xml version="1.0" encoding="utf-8"?>
<!-- Generator: Adobe Illustrator 21.0.2, SVG Export Plug-In . SVG Version: 6.00 Build 0)  -->
<svg version="1.1" id="Layer_1" xmlns="http://www.w3.org/2000/svg" xmlns:xlink="http://www.w3.org/1999/xlink" x="0px" y="0px"
	 viewBox="0 0 809.4 264.5" style="enable-background:new 0 0 809.4 264.5;" xml:space="preserve">
<style type="text/css">
	.st0{fill:#FFFFFF;}
</style>
<g>
	<path class="st0" d="M245.5,128.5c-12-5.7-20.3-13.9-22.8-26.6c-2.8-13.9,1-25.7,12-34.8c15.4-12.7,42.7-13.7,59.1-2.3
		c22.1,15.3,20.4,48.2-3.1,61.2c-1.6,0.9-3.2,1.7-4.9,2.5c1.5,1.7,3.6,1.8,5.4,2.6c14.1,6.2,23.7,16,24.9,32.1
		c1.3,17.4-6.4,30.3-21.7,37.7c-19.3,9.3-39.5,9.3-58.7-0.6c-14.6-7.5-21.9-20.3-20.6-36.9c1.2-15.6,10.5-25.7,24.2-32.3
		C241,130.2,242.9,129.5,245.5,128.5z M265,201c8.6,0.1,16.9-1.5,24.7-5c11.3-5.2,19.1-13.4,20.1-26.3c1.1-13.6-4.8-24.3-16.6-30.6
		c-18.9-10.1-38.5-10.4-56.9,0.9c-21.1,12.9-20.5,40.9,0.6,53.9C245.5,199.2,255.1,200.9,265,201z M265.4,126
		c3.7,0.3,7.3-0.4,10.9-1.1c13.9-2.5,24.1-12.6,26.4-25.9c2.1-12.5-3.4-24.4-15.1-30.5c-15.3-7.9-30.9-7.9-45.7,1
		c-18.6,11.1-18.7,37.8-0.5,49.7C248.6,124,256.8,125.8,265.4,126z"/>
	<path class="st0" d="M594.5,94.8c-3.9,1.2-6.6,0.2-9.4-3c-26.3-30.7-70.4-33.3-98.2-6.1c-27,26.5-26.3,71.9,1.5,97.9
		c27.4,25.6,71.7,22.7,96.7-6.6c2.7-3.2,5.2-4.7,9.2-3.5c-8.9,21.2-44.2,36.9-72,32c-35.4-6.1-59.2-32.5-61.2-67.9
		c-1.9-33.7,18.7-63.1,51.1-73C543.2,55.2,579.3,68.4,594.5,94.8z"/>
	<path class="st0" d="M329.2,64.4c4.8-1.4,7,0.3,8.9,4.9c17.2,41.2,34.7,82.3,52.1,123.5c1.7-0.3,1.7-1.9,2.1-2.9
		c17.2-40.3,34.4-80.6,51.3-121.1c1.8-4.3,3.9-5.8,8.5-4.2c-4.8,11.2-9.5,22.5-14.3,33.8c-14.5,33.9-29,67.8-43.5,101.7
		c-0.8,1.8-0.8,4.3-4,4.2c-2.9-0.1-2.8-2.5-3.5-4.1c-18.7-43.7-37.3-87.3-55.9-131C330.4,67.5,329.8,65.9,329.2,64.4z"/>
</g>
</svg>
