<?xml version="1.0" encoding="utf-8"?>
<!-- Generator: Adobe Illustrator 24.0.1, SVG Export Plug-In . SVG Version: 6.00 Build 0)  -->
<svg version="1.1" id="Layer_1" xmlns="http://www.w3.org/2000/svg" xmlns:xlink="http://www.w3.org/1999/xlink" x="0px" y="0px"
	 viewBox="0 0 399 360" style="enable-background:new 0 0 399 360;" xml:space="preserve">
<style type="text/css">
	.st0{fill:#FFFFFF;}
	.st1{font-family:'MyriadPro-Regular';}
	.st2{font-size:58px;}
</style>
<g id="pI9LTh_1_">
	<g>
		<path class="st0" d="M118.3,46.3c7.9,1.5,14.6,5.4,20.5,10.8c9.2,8.6,15.5,19.1,21.9,29.8c4.1,6.8,8.1,14,10.9,21
			c3.8,9.5,9.3,18.4,11.6,28.6c0.5,2-0.1,3.2-1.8,4c-2.5,1.3-5.2,1.3-7.8,0.4c-6.4-2.4-13.7-1.6-19.7-3.9c-7.8-2.9-16-3.1-23.7-6.2
			c-5.1-2-10.3-4.7-16-5.5c-4.2-0.6-7.2-3.9-10.8-5.9c-6.8-3.8-12.9-8.9-16.8-15.8c-3.1-5.4-6-10.9-4.2-18.1
			c3.4-13.9,11-25.1,22-33.7C108,48.9,112.7,46,118.3,46.3z"/>
		<path class="st0" d="M206.6,232.1c0,5.8,0,11.6,0,17.5c0,1.5,0.2,3.2-0.4,4.4c-3.5,6.2-3.2,13.6-7.3,19.8
			c-5.4,8.1-13.6,11.4-22.5,6.7c-2.3-1.2-4.6-0.5-6.7-1.3c-6.2-2.4-12.6-4.4-18.6-7.6c-3.4-1.8-7.1-3.1-10.6-4.8
			c-13.5-6.7-26.7-13.8-36.9-25.1c-3.1-3.4-6.7-6.7-6-12.5c0.6-5.1,3.8-11.1,9.3-12c4.8-0.8,8.4-3.7,12.3-5.6
			c7-3.3,13.7-7.6,20.6-11.1c7.7-3.9,14.9-8.6,22.3-12.9c7.9-4.5,15-10.1,22.2-15.4c3.9-2.8,6.5-2.5,9.2,1.2
			c5.3,7.1,8.1,15.1,9.5,24c0.9,5.7,3.5,11.3,3.5,17.3C206.6,220.4,206.6,226.3,206.6,232.1z"/>
		<path class="st0" d="M202.6,33.1c1.8,9-2.3,18.5-4.4,28.3c-2.6,12.1-5.5,24.2-5.3,36.6c0.2,10.1,0.2,20.2,1.7,30.3
			c0.4,2.5,2.6,3.9,2.9,6.3c0.2,1.9,0.9,4.2-1.2,5.5c-2.2,1.3-3.4-0.7-4.5-2c-3.5-4.1-6.2-8.9-8.7-13.7c-2.1-4.1-4.7-7.9-6.2-12.2
			c-1.9-5.7-5.8-10.7-6.2-16.9c-0.1-1-0.2-2.1-0.7-2.9c-4.5-6.3-3.4-13.7-4.2-20.6c-1.3-11.1-0.2-22.1,1-33.1
			c0.5-4.5,3.2-8.3,5-12.3c2.8-6.3,6.3-12.6,12.5-16.8c3.9-2.6,9-2.5,12.6,0.6C203.7,16,202.8,23.9,202.6,33.1z"/>
		<path class="st0" d="M213.6,259.2c0-11.8,0-23.6,0-35.4c0-8.6-1.4-17-2.8-25.5c-1.2-7.6-5.2-14.1-6.3-21.5c-0.1-0.5-0.3-1-0.6-1.4
			c-1.9-2.1-3.8-4.8-1.4-6.9c2.6-2.3,4.5,1.4,6,2.7c7.3,6.5,13.1,14.4,18.9,22.3c3.9,5.4,7.5,11.2,10.7,17c2.9,5.3,5.1,11,7.7,16.4
			c3.8,7.5,4.1,15.3,4.2,23c0.1,7.8,0.9,15.8-3.6,23.6c-3.8,6.6-6.9,13.4-12.4,18.9c-2.9,2.9-6,6.6-10.4,5.1c-5.8-2-9.4-7-9.9-13
			C213.1,276.1,211.7,267.7,213.6,259.2z"/>
		<path class="st0" d="M318.5,253.8c0,3.7-4,6.9-7.9,5.3c-4.8-1.9-9.7-4-14.2-6.6c-6.2-3.7-12.1-7.9-17.9-12.2
			c-10.8-8-20.1-17.4-27.7-28.8c-10.7-15.8-19.7-32.9-34.3-45.8c-1.4-1.2-2-2.5-0.9-4.3c1-1.7,2.4-2.2,4.2-2
			c12,1.7,23,5.5,33.3,12.5c13.5,9.2,25.7,19.9,36.2,32.3c9.5,11.2,18.8,22.5,25.2,36C316.4,244.7,317.6,248.8,318.5,253.8z"/>
		<path class="st0" d="M236.7,9.5c1-0.4,2-0.7,2.9-1.1c11.4-7.8,28.3-7.5,37.8,5.2c4.2,5.7,6.4,12.8,2.8,20.2c-2,4.1-1,5.4,3.5,6.2
			c8,1.4,15.9,3,22,9c8,8.1,12.8,17.5,11.7,29.2c-1.6,6.5-4.5,12.3-9.6,17c-3.6,3.4-8,6-12.4,6.8c-8,1.5-15.6,4.2-23.5,5.9
			c-5.4,1.1-11,3.1-16.1,5.9c-1.9,1-3.8,2.1-6,2.1c-0.8,0-1.6,0.2-2.3-0.3c-0.3-0.4-0.5-0.9-0.4-1.5c0.9-2.4,3.2-3.6,5.2-4.3
			c6-1.9,11.8-4.4,17.8-6.2c10-2.9,20.4-4.1,30-8.5c8.1-3.7,15.8-19.3,11.6-26.6c-1.7-3-1.5-6.8-3.5-9.8
			c-5.8-8.9-14.1-13.2-24.5-13.9c-1.7-0.1-3.3,0-5-0.4c-4-0.9-5.3-2.9-4.2-6.8c1.1-4,1.6-8.1,1.6-12.3c-0.1-7.1-3.9-11.8-10.2-15.1
			c-10.3-5.3-18.9-1.3-27.5,3.8c-3.3,1.9-5.7,5.1-8.9,7.2c-0.9,0.5-1.9,0.8-3,0.4c-1-5.2,4.3-5.9,6.4-9
			C233.8,11.5,235.7,11,236.7,9.5z"/>
		<path class="st0" d="M237.7,128.6c1.7-0.7,3.3-1.4,5-2.1c6-3,12-5.9,18.7-7.2c7.1-1.3,13.7-4.7,21.2-4.6
			c6.9,0.1,13.7-1.9,20.7-1.9c13.9,0,23.9,6.1,29.8,18.3c2.9,6,6.1,12.1,6,19.2c-0.1,2.4,0.9,4.9,1.6,7.3c2.1,9.4,0.7,18.6-1.3,27.9
			c-1.1,5.5-1.2,11.1-5,15.7c-7,7.9-10.2,8.4-19.9,5c-5.7-2-10.8-4.7-15.5-8.3c-0.8-0.6-2.1-1.2-1.4-2.7c0.9-0.7,2-0.9,3.1-0.6
			c6.2,2.7,11.3,7.5,18.5,8.1c6.9,0.6,9.1-0.5,12.2-6.8c5.6-11.4,4.3-23.6,4.1-35.6c0-1.8-0.6-3.6-0.5-5.5
			c0.6-10.8-4.6-19.6-10.1-28c-3.7-5.6-9.6-9-17-8.8c-6.5,0.2-13,0.1-19.5,0c-4.2,0-8.3,0.6-12.2,2.3c-2,0.9-4.1,1.5-6.2,1.7
			c-8.4,0.9-15.9,4.4-23.5,7.7c-1.9,0.8-3.8,1.3-5.8,1.2C239.5,130.5,237.8,130.6,237.7,128.6z"/>
		<path class="st0" d="M236.7,9.5c-0.2,2.8-2.8,3.3-4.3,4.9c-2.1,2.2-5.1,3.7-5.8,7c-1.8,4.6-4.9,8.5-7.1,13
			c-6.2,12.5-9.1,25.9-12,39.3c-0.9,4.1-0.6,8.3-0.9,12.4c-1.1,14-2.3,28.1,0.4,42.1c1,5,2.6,5.8,7.3,3.8c5.9-2.6,10.9-7,16.5-10.1
			c2.6-1.6,4.9-3.7,8.1-3.9c3.1-0.3,5.2-3.9,8.7-2.5c0.7,0,1.3,0,2,0c0.3,0.2,0.5,0.4,0.3,0.7c-0.1,0.2-0.2,0.3-0.3,0.3
			c-9.6,5.7-20.1,9.5-29.1,16.2c-2.1,1.6-4.8,2.5-7.1,4.2c-2.8,2-7.7,0-8.5-3.4c-2-8.5-5.2-16.9-4.2-25.9c0.9-7.9,0.3-15.9,2.9-23.6
			c1.1-3.4,1.2-6.9,1.1-10.4c-0.2-5.4,0-10.6,3.4-15.3c1.4-1.9,0-4.7,0.9-6.8c3.3-8.6,6-17.5,11.4-25.3
			C224.9,19.6,229.2,13.1,236.7,9.5z"/>
		<path class="st0" d="M163.7,180.5c-5.4,6.1-13,8.8-19.6,13c-5.1,3.2-11.4,3.3-16.1,7c-1.9,1.5-4.2,0.5-6.2,1.4
			c-7.6,3.1-15.5,4.5-23.7,3.5c-7.1-0.9-13.9-3.3-20.5-6.3c-5.7-2.5-11.5-4.9-16.2-9.2c-6.1-5.7-11.4-11.8-15.3-19.6
			c-5.8-11.3-4.9-22.9-2.9-34.2c1-5.9,6.2-11,12.5-13.6c1.1-0.8,2.3-1.2,3.7-0.5c1.3,2.3-1,2.2-2,2.8c-7.4,4.5-12.6,10.4-12.3,19.6
			c-0.1,8.1,0,16.1,3.7,23.8c4.3,9,10.2,16.4,18.5,21.6c6.4,4.1,13.1,7.9,20.8,9.3c13.8,4.9,26.9,2,40-3c4.3-1.7,8.3-3.9,12.6-5.6
			c2.9-0.8,5-3.1,7.7-4.2c4.1-0.6,7-3.5,10.3-5.6c1.5-0.9,2.7-2.6,4.8-1.7c0.3,0.3,0.3,0.6,0.3,0.8
			C163.8,180.3,163.7,180.5,163.7,180.5z"/>
		<path class="st0" d="M297.5,195.4c5,3.9,10.4,7.2,16.3,9.7c7.7,3.2,14,2.2,19.7-3.8c0.7,0.7,0.6,1.4,0,2.1
			c-5.9,6.8-10.8,6.9-19.2,3.8c-18.7-7.1-31.9-21.8-47.7-33c-8.2-5.8-16.4-11.5-25.4-15.9c-8.7-4.3-17.3-5.8-26.7-3.9
			c-2,0.4-4.1,0.1-5.3-1.9c-1.3-2.2-0.3-4.8,1.1-5.9c5.5-4.3,9.7-10.6,17.2-12c1.2,2.4-0.7,3.2-2.2,4.2c-2.9,1.9-5.6,4.1-8.2,6.5
			c-0.8,0.7-2.1,1.5-1.6,2.8c0.5,1.4,2,1.1,3.1,1c5.1-0.2,9.8,0.9,14.7,2.3c7.9,2.3,14.9,6.4,21.8,10.7
			c13.9,8.8,26.1,19.9,39.5,29.5C296,192.5,297.4,193.6,297.5,195.4z"/>
		<path class="st0" d="M297.5,195.4c-15.9-11.4-30.3-24.8-47.2-34.8c-10.1-5.9-20.4-11-32.6-10.3c-1.8,0.1-3.5-0.2-4.3-1.9
			c-0.8-1.8,1.2-2.6,2.1-3.5c3.1-3,6.2-6,10.2-7.8c1.2-0.5,1.7-1.5,1.9-2.7c3.3-2,6.7-3.9,10-5.9c0.8,1,1.9,0.8,3,0.9
			c0.3,3.3-2.3,4-4.4,5.2c-5.8,3.5-12.1,6.3-16.7,11.1c-0.1,0.6,0.1,1,0.4,1c14.4-0.5,25.9,6.8,37.3,14.2
			c14.3,9.2,26.7,20.9,40.7,30.5c1.3,0.9,3,1.7,2.6,3.8C299.6,195.4,298.6,195.4,297.5,195.4z"/>
		<path class="st0" d="M163.7,180.5c0-0.4,0-0.7,0-1.1c-0.4-1.9,1.3-2.5,2.2-3.5c4.7-5.1,10.2-9.5,14.3-15.3c0.3-0.4,0.7-0.7,1-1.1
			c1.4-2.2,3.9-4.7,2.4-6.9c-1.4-2-4.2,0.5-6.4,1c-8.2,1.9-16.4,2.1-24.6-0.1c-2.6-0.7-5-2-7.7-1.3c-1.5,0-2.9-0.3-4.3-0.9
			c-2.4-1.5-4.9-3-7.6-3.9c-11-4.1-21.7-8.9-32.3-14c-0.8-0.4-1.3-1-1.1-2c0.7-0.5,1.4-0.4,2.1,0.1c5.8-0.5,10,3.7,15.1,5.4
			c6.7,2.3,13.5,5,19.7,8.2c7.5,3.8,15.7,3.1,23.1,6.5c4.1,1.9,9.3,1.9,13.8-1c3.7-2.3,8.3-2.1,12.5-2.9c2.8-0.5,4.6,3.2,3,5.7
			c-6.2,10.2-13.8,19.2-23.4,26.4C165,180.2,164.3,180.3,163.7,180.5z"/>
		<path class="st0" d="M339.6,157.5c-1.7-1.8-0.6-4.1-1-6.2c-2.5-12.6-6-24.5-17.1-32.7c-3.8-2.8-8-3.7-12-3.9
			c-13.9-0.5-27.6,0-41.3,3.8c-8.6,2.4-16.9,5.7-25.5,8c0.2-0.6,0.3-1.5,0.8-1.7c4.9-2.1,9.8-4.5,14.9-6.2c11.8-3.8,24.1-5,36.3-6.7
			c17.8-2.5,33.1,2.9,41.2,22.9c2.3,5.5,4,10.7,3.7,16.6C340.5,153.4,341.5,155.4,339.6,157.5z"/>
		<path class="st0" d="M305.5,49.5c-6.4-4.7-13.4-7.8-21.5-8c-5.3-0.2-6.6-1.8-5-7.4c1.4-4.9,1.8-9.6,0.2-14.6
			c-2.5-7.8-11.6-14.5-19.8-15.1c-7.1-0.5-13.4,1.8-19.8,4.1c1-2.8,3.5-4.3,6-4.7C257,2,268,1.1,276.9,11.4
			c6.2,7.2,8.3,15.3,3.6,23.6c-1.3,2.3-0.2,3.3,1.7,3.3c5.1,0,9.3,3,14.3,3.7c3.7,0.5,7.6,3.6,10,7.4
			C306.3,49.9,305.9,49.9,305.5,49.5z"/>
		<path class="st0" d="M249.6,116.5c0-0.3,0-0.7,0-1c7.1-3.4,14.4-6.8,22.1-8.3c7.1-1.5,14-3.6,21.1-5.2c12.2-2.8,20.4-11,23.8-23.4
			c1.4-2.9-0.3-6.1,1-9c2.8,9-0.3,16.7-6,23.3c-5.2,6.1-11.8,9.9-20.2,11.1c-6.9,1-14,2.9-20.4,5.3c-5,1.9-11,2-15.3,6.1
			C254.2,116.8,251.8,116.5,249.6,116.5z"/>
		<path class="st0" d="M339.6,157.5c0-2,0-4,0-6.1c2,1.3,2.8,3.2,2.9,5.5c0.6,10,2.9,20.2-2.7,29.6c-0.5,0.9-0.3,2.3-0.2,3.4
			c0.4,5.6-2,9.9-6,13.5c0-0.7,0-1.4,0-2.1c6.3-9.5,4.7-20.7,6.9-31.1C341.4,166,339.5,161.8,339.6,157.5z"/>
		<path class="st0" d="M101.7,131.4c-0.7,0-1.4,0-2.1,0c-4.6,0.6-8.6-1.8-12.5-3.5c-8.1-3.5-16.4-5-25.1-4.8c-0.9,0-1.6-0.1-2.3-0.7
			c-1.3,0-2.7,0-4,0c3-5.4,8.5-3.1,12.6-3.1c7.1,0,14,2.9,20.6,5.5c2.9,1.1,5.9,1.8,8.8,3.1C99.3,128.7,100.8,129.7,101.7,131.4z"/>
		<path class="st0" d="M317.6,69.5c-0.5,3,1,6.2-1,9c0.8-11.3-3.7-20.7-11-28.9c0.4,0,0.7,0,1.1,0C311.9,55.2,317.7,60.8,317.6,69.5
			z"/>
		<path class="st0" d="M116.5,50.5c10.9-0.2,18.1,5.4,24,12.2c9.3,10.5,16.6,22.3,22.4,35.1c3.5,7.8,7.7,15.2,11.2,23
			c1.6,3.6,3,7.2,4.6,10.8c1.9,4.2,0.1,5.4-4.2,5.4c-11.4-0.1-22.1-4-33.1-6.1c-6.1-1.1-12.6-2.8-18.2-6.1c-3.9-2.3-8.6-2.9-12.8-5
			c-8.2-4.1-15-9.4-20.7-16.5c-3.1-3.9-3.6-8.4-3.7-12.6c-0.3-7.8,1.8-15.3,6.5-21.9c3.7-5.2,8-9.8,12.6-14.1
			C108.6,51.4,113.1,51,116.5,50.5z"/>
		<path class="st0" d="M132.6,259.4c-2.1-0.7-3.6-2.8-5.9-3.1c-2.3-2.3-4.4-4.6-7.7-5.4c-6.6-4.5-12.3-10-17.1-16.4
			c-2.8-3.8-2.7-6.3,0.4-9.7c2.6-2.9,5.9-4.8,9.4-6.3c9.8-4.2,18.9-9.8,28.5-14.4c1.4-0.7,2.2-2.1,3.5-2.7c0.6,0,1.3-0.1,1.9-0.1
			c12.8-7.9,25.9-15.3,37.9-24.5c6.3-4.8,9.6-0.8,12.7,7.1c5.9,14.6,6.7,30.4,7.6,45.8c0.6,11-1.5,22.1-3.5,33.1
			c-0.7,3.7-3.3,6.8-4.8,10.3c-1.3,2.9-4.3,4.5-7.8,4.7c-5,0.3-10.1,0.4-14.8-1.2c-8.7-3-17.4-6.1-25.8-10
			C142.3,264.3,137.8,261.2,132.6,259.4z"/>
		<path class="st0" d="M132.6,259.4c5.7-1.1,9.1,3.9,13.9,5.4c7,2.3,14,5.3,20.7,8.4c7.1,3.2,13.8,2.8,20.8,3.2
			c4,0.2,5.9-2.3,7.6-5.3c7.2-13,6.1-27.5,6.8-41.5c0.5-10.3-0.6-21-3-31c-1.5-6.6-2.8-13.7-7.1-19.6c-2.8-3.9-5.5-3.3-8.3-1.2
			c-8.8,6.6-17.8,13.1-27.6,18.2c-3.5,1.8-6.4,5.1-10.8,5.4c2.2-4.4,7-5.7,10.7-7.8c9.5-5.2,18-11.7,26.8-17.9
			c5.2-3.6,7.8-3.3,11,2.1c5.2,8.6,7.2,18.3,8.5,28.2c0.9,6.9,1.6,13.8,2.4,20.7c0.9,7.6-0.5,14.9-1.1,22.2c-0.3,4-1.6,8.1-2.3,12.1
			c-0.9,5.1-3,9.9-6.2,13.7c-3.6,4.2-8.4,5.7-14.3,4.6c-14.4-2.8-27.7-8.7-40.8-14.9C137.6,263.3,134.7,261.9,132.6,259.4z"/>
		<path class="st0" d="M143.7,201.5c-1.2,3.1-4,3.8-6.6,5.3c-6.3,3.4-12.7,6.7-19.1,9.9c-3.7,1.8-7.2,3.9-10.8,5.7
			c-7.1,3.7-7.7,6.6-3.2,12.9c4.3,6,10,10.5,15.7,15c0.6,0.6,1.6,0.9,1,2c-9.3-4.3-16.3-11.2-21-20.2c-2.4-4.7,0.1-9.1,7.9-12.9
			c11.7-5.6,23.2-11.5,34.6-17.7C142.6,201.5,143.2,201.5,143.7,201.5z"/>
		<path class="st0" d="M120.7,252.4c-0.3-0.7-0.7-1.4-1-2c3.4,0.7,6,2.4,7,6C123.9,256.2,122.7,253.7,120.7,252.4z"/>
		<path class="st0" d="M191.7,86.5c0,0.7,0,1.3,0,2c-3,11-3,22,0,33c0.3,2.6,0.7,5.2,0.9,7.9c0.1,1-0.2,2.2-1.3,2.4
			c-0.9,0.2-1.2-0.9-1.8-1.4c-4-3.7-5.4-9-7.7-13.6c-5.5-10.6-9.3-22-12.5-33.5c-1.3-4.6-1.8-9.4-1.6-14.3c0.3-8.9-1-18,1.1-26.8
			c1.4-5.6,3-11.3,6-16.4c2.2-3.8,3.5-8.2,6.9-11.3c0.2,0.2,0.4,0.4,0.6,0.6c1.1,2.5,0,4.5-1.2,6.5c-9,15.4-12.2,32-10.8,49.7
			c0.2,2,0.8,3.9,1.7,5.7c1.2,2.4,2,4.9,2.2,7.6c0.8,11.7,7.2,21.4,11.7,31.8c0.4-7,0.4-14,0.4-20.9c0-4,0.4-8,1.5-11.8
			c0.6-2,1-4.9,4.4-3.9C192,82,192.6,84.3,191.7,86.5z"/>
		<path class="st0" d="M191.7,86.5c0-2.3,0-4.7-0.1-7c-3-4.9-1-9.8,0.5-14.4c1.1-3.4,2.2-6.6,2.3-10.1c0.3-7.4,3.9-14.1,4.3-21.5
			c0.3-6-0.5-11.6-3.5-16.8c-2.7-4.6-4.7-5.2-9.3-2.7c-1.3,0.7-2.5,1.7-4.1,0.7c0,0,0-0.2,0-0.2c2.6-4.6,6.8-6.1,11.5-4.7
			c4.5,1.4,6.2,6,7.3,10.1c2.5,9.2,1.2,18.5-0.7,27.6c-2.5,12.3-7,24.2-7.2,36.9C192.5,85,192,85.7,191.7,86.5z"/>
		<path class="st0" d="M191.6,121.5c-1.9-1.5-2.2-3.8-2.3-5.8c-0.6-9.2-2.5-18.5,2.3-27.2C190,99.5,190.5,110.5,191.6,121.5z"/>
		<path class="st0" d="M215.6,279.5c-0.3-0.8-0.9-1.5-0.9-2.3c0.3-14.1-0.5-28.2,0.6-42.4c1.1-13.9,0.2-27.9-3.6-41.4
			c-1.3-4.8-1.9-9.8-4.8-14c-0.8-1.1-1.1-3.5,0.7-4.5c1.7-1,2.8,0.7,3.7,1.8c3.5,4.2,6.9,8.5,10.4,12.7c0.4,0.6,0.3,1-0.3,1.3
			c-4.1,0.3-5-3.9-7.9-5.6c-0.7,1.6-0.2,3.1,0.5,4.3c3.2,5.1,3.3,10.7,3.1,16.4c-0.2,6.9,2.4,13.4,2.5,20.3c0,1.7,0.6,3.4,0.1,5
			c-4,13.5-2.3,27.4-2.6,41.2c-0.1,2,0.1,4-0.5,5.9C216.4,278.7,216,279.1,215.6,279.5z"/>
		<path class="st0" d="M221.6,190.5c0-0.4,0-0.7,0.1-1.1c11.9,14,20.9,29.9,25.4,47.6c3.5,13.6,3.3,27.6-4.5,40.4
			c-0.4-0.4-0.7-0.8-0.9-1.3c-0.8-2.9,0.2-5.6,1.2-8.2c4.2-10.1,4.4-20.2,0.3-30.5c-2.1-5.2-2.9-10.7-5.3-15.9
			c-3.1-6.7-6.8-12.9-10.7-19c-1.6-2.5-3.3-5-4.8-7.5C221.5,193.6,220.4,192.2,221.6,190.5z"/>
		<path class="st0" d="M242.5,276.3c0,0.4,0,0.7,0.1,1.1c-3.6,3.1-3.6,8.4-7.2,11.6c-2.6,2.3-4.5,5.5-8.2,6.1
			c-3.6,0.5-7-0.1-8.6-4.1c-1.5-3.7-3.8-7.1-3.1-11.4c0-0.4,0.1-0.8,0.1-1.2c4.2,0.5,4.1,4.2,5,7c0.8,2.4,0.3,5.6,3.7,6.4
			c3.3,0.8,5.3-1.4,7.2-3.5c2.5-2.7,4.4-5.8,6.1-9.1C238.6,277.2,239.7,275.1,242.5,276.3z"/>
		<path class="st0" d="M311.6,238.4c1.5,2.9,3.2,5.8,4.3,8.8c1.1,3,1.9,6.4-0.7,8.9c-3,2.9-6.7,1-9.3-0.4
			c-15.5-8.7-30.6-17.9-42.7-31.2c-7-7.7-13.1-16.1-18.5-25c-5.5-9-11.5-17.7-18-26.1c0.4-0.3,0.8-0.5,1.3-0.6
			c4.7,1.5,6.6,5.9,9.2,9.4c6.2,8.2,11,17.4,16.9,25.9c8.9,12.7,20,23,32.4,32.1c6,4.4,12.6,8.1,19.1,11.7c1.3,0.7,2.6,1.5,4.1,1.7
			c1.3,0.2,2.8,0.4,3.7-0.8c1-1.3,0.3-2.6-0.5-3.7c-1.9-2.7-3-5.5-2.4-8.9C310.6,239.5,311,238.9,311.6,238.4z"/>
		<path class="st0" d="M311.6,238.4c0,0.7,0,1.4,0,2c-2.7,0.4-3.7-1.6-4.8-3.4c-14.3-24.2-32.6-44.6-55.9-60.4
			c-1.8-1.2-3.6-2.4-4.4-4.6c0.1-0.2,0.2-0.5,0.2-0.7c5.8,1.5,9.9,5.7,14.4,9.1c17.3,13.4,31.8,29.4,44.1,47.4
			C307.5,231.3,308.7,235.4,311.6,238.4z"/>
		<path class="st0" d="M227.7,173.4c-0.4,0-0.7,0-1.1,0c-2.5-2.4-5.1-4.6-7.5-7.1c-2.2-2.2-1.2-3.7,1.5-3.8c2.4-0.1,4.9-0.9,7.1,0.8
			c-0.1,0.2-0.3,0.4-0.4,0.5c-1,0.8-2.5,0.5-3.5,1.3C224.2,168.5,229.3,169.3,227.7,173.4z"/>
		<path class="st0" d="M227.7,163.4c7,1,13.4,3.5,19,8c0,0-0.1,0.1-0.1,0.1c-4.2,0.8-16.8-4.5-19-8L227.7,163.4z"/>
		<path class="st0" d="M239.6,119.4c-3.4-1-5.1,2.6-7.9,3.1c-4.6,1.6-8.4,4.6-12.3,7.3c-1.8,1.2-3.6,2.4-5.7,2.9
			c-4.6,1.1-7-0.4-7.4-5.1c-1.5-15.3-0.8-30.5,0.1-45.8c0.5-9.2,2.9-18.1,5.1-26.8c2.6-10.3,6.4-20.4,12.5-29.5c1.3-2,3.5-3,4.8-5.1
			c2.1-1.9,4.3-3.7,6.3-5.6c5.2-5,12.3-6.1,18.6-8.8c0.9-0.4,2.1-0.6,2.9-0.3c7.1,2.5,14.7,3.6,19.2,11.1c3.1,5,1.4,10,1.7,14.9
			c0.1,1.8-0.5,3.6-1,5.4c-1.4,5.4-0.8,6.6,4.9,6.3c8.8-0.5,16.2,2.8,22.7,8.2c8.6,7.2,11.5,20.3,8.1,30.8
			c-2.6,8.4-8.1,12.5-16.1,15.6c-9.3,3.6-19.2,4.3-28.3,7.7c-6.9,2.5-14.2,4.1-20.2,8.7C244.8,115.8,241.5,116.6,239.6,119.4z"/>
		<path class="st0" d="M228.6,20.5c0,1.3-0.8,2.1-1.5,3c-5.5,7.2-8.7,15.4-12.1,23.8c-3.5,8.6-3.2,17.7-6.6,26.1
			c-1.6,4-1.6,8.8-1.7,13.2c-0.2,12.8-0.1,25.6,0,38.4c0,2.2-1.1,5.1,1.9,6.1c3.2,1.1,6.3,0.9,9.3-1.4c4.2-3.1,7.9-7.1,13.7-7.3
			c-5.7,4.1-11.3,8.5-17.8,11.3c-4.7,2-7.3,0.5-8.2-4.5c-2.7-15-1.4-30-0.3-45c0.6-8.8,2.1-17.3,4.2-25.9c2.8-11.9,7.3-23,13.5-33.4
			c0.8-1.4,2.3-2.3,3.5-3.4C227.2,21.2,227.9,20.8,228.6,20.5z"/>
		<path class="st0" d="M239.6,119.4c1.4-3.8,4.3-5,8-5c0,0.3,0,0.7,0,1C244.9,116.8,242.3,118.1,239.6,119.4z"/>
		<path class="st0" d="M300.6,195.4c-12.5-9.7-24.8-19.5-37.6-28.9c-6.8-5-13.9-9.9-21.6-13.3c-7.7-3.4-15.8-7.3-25.2-4.8
			c3.4-4.6,7.1-7.7,11.6-10.4c4.4-2.7,9.8-4,12.9-8.6c2.8,0.2,5.3-0.3,7.1-2.7c0.3-0.4,0.8-0.9,1.2-0.9c7.3,0,13.1-5.6,20.4-5.5
			c2.2,0,4.2-0.4,6.2-1.5c3.4-1.8,7.2-2.6,11-2.6c7,0,14,0.1,21,0c10.2-0.1,16.2,5.3,21.4,13.7c2.9,4.7,2.9,10.5,6.9,14.5
			c0.5,0.5,0.5,1.5,0.6,2.4c1,13.9,1.5,27.9-0.2,41.7c-0.6,4.5-3.3,8.8-6.2,12.6c-3.5,4.7-8.1,2.8-12.8,2.4
			C310.5,203.2,305.8,198.9,300.6,195.4z"/>
		<path class="st0" d="M140.7,150.4c1.3,0.3,2.6,0.6,4,1c7.2,1.8,14.4,3.6,21.9,3.1c4.1-0.3,8.3,0.2,12.2-1.5
			c1.8-0.8,3.7-0.7,4.9,1.1c1.2,1.8-0.3,3.1-1.2,4.4c-8.2,11.4-19,20.1-30.6,27.9c-1,0.7-2.3,0.1-3.3,1c-2.2,1.5-4,3.8-6.9,4.1
			c-5.7,1.6-10.9,4.4-16.4,6.3c-8.9,3.1-17.9,4.4-27.2,3.8c-3.2-0.2-6.5-1.1-9.8-1.6c-4.9,0.2-8.7-3-12.7-4.8
			c-9.5-4.3-17.6-10.6-23.4-19.8c-6-9.6-8.7-19.8-8-31C43.3,135.4,53.7,122,65,123c7.2,0.7,14.2,1.4,21.2,4.2
			c8.4,3.3,16.7,7,24.9,10.6c4.9,2.2,10.2,3.6,14.9,6.5c1.5,1,3.3,1.5,5.2,1.6C134.2,147.8,137.4,149.2,140.7,150.4z"/>
		<path class="st0" d="M131.6,146.5c-3.1,0.2-5.7-0.8-8.3-2.7c-3.1-2.2-7.2-2.9-10.7-4.4c-4.9-2.1-10.1-4.1-14.7-6.5
			c-5.3-2.7-11.2-3.3-16.3-6.5c-3.1-1.9-7.7-1.4-11.6-1.9c-1.6-0.2-3.3,0-5-0.1c-8-0.5-13.3,2.7-16.7,10.2c-1.5,3.2-4.3,5.8-3.6,9.8
			c-0.3,0.5-0.6,0.5-1,0c0-10.1,5.5-17.6,16-22c8.7-2.5,17.1,0.2,25,3c5,1.8,10.4,3,15,6c11.3,5,22.7,10,34,15
			C133,147.1,132.3,147,131.6,146.5z"/>
		<path class="st0" d="M148.6,187.4c12.6-8.3,24.5-17.3,33.4-29.8c0.6-0.9,1.9-1.6,1-3c-0.7-1.2-1.9-1.2-3.1-0.8
			c-9.6,3.2-19.4,1-29.1,0.6c-2.5-0.1-4.2-1.8-6.2-3c2.2-2,4.4-0.6,6.5,0.1c9.5,2.9,19,3.5,28.5-0.4c1.3-0.5,2.9-0.6,4.4-0.6
			c2.3,0,3.6,0.1,2,3.4c-5.3,10.5-14,17.8-22.3,25.5c-3.2,2.1-6.6,4-9.6,6.3C152.3,187,150.6,187.6,148.6,187.4z"/>
		<path class="st0" d="M43.7,144.4c0.3,0,0.6,0,1,0c-0.2,32.7,20.8,46.9,43,55c0.3,0.2,0.5,0.4,0.3,0.7c-0.1,0.2-0.2,0.3-0.3,0.3
			c-12.3-3-22.9-8.9-31.6-18.3c-4.9-5.3-8.5-11.4-10.8-18.1C43.3,157.9,43.4,151.1,43.7,144.4z"/>
		<path class="st0" d="M87.7,200.4c0-0.3,0-0.7,0-1c9.7,0.9,19.5,1.1,29.3,0c2.3-0.3,4.6-0.2,6.4-2.1c0.9-0.9,2.3-1.7,3.5-1.8
			c3.8-0.1,7.2-0.8,10-3.6c1.2-1.2,3.2-0.6,4.8-0.6c-9.8,6.1-20.9,9-32,11.6C102.2,204.8,94.9,202.5,87.7,200.4z"/>
		<path class="st0" d="M131.6,146.5c0.7,0,1.4,0,2.1-0.1c2.7,0.7,5.3,1.5,7,4C136.9,150.8,133.7,149.9,131.6,146.5z"/>
		<path class="st0" d="M181.7,14.6c0.3-0.1,0.7-0.1,1-0.3c3-1.8,5.5-5.7,9.6-3.3c4.7,2.8,6.4,7.8,7.4,12.9c1.5,7.6,0.8,15-2.2,22.2
			c-0.9,2.2-1.1,4.8-1.2,7.3c-0.1,9-6.1,16.8-4.6,26c-4.5,3.5-3.5,8.8-3.8,13.3c-0.6,7.6-0.1,15.3-0.2,22.9c0,1.7,0.7,3.7-0.9,4.8
			c-4.4-4-6.1-9.7-8-14.7c-2.3-6.3-6.6-12.3-6.1-19.6c0.2-2.7-0.4-5.3-1.6-7.7c-5-10.1-3.5-21.2-1.6-31.1c1.8-9.6,4.4-19.9,11.2-28
			C181.7,18.1,181.7,16.3,181.7,14.6z"/>
		<path class="st0" d="M242.5,276.3c-5,1.7-4.9,7.3-7.8,10.6c-1.9,2.2-4,4.4-6.3,6c-3.7,2.7-8.3-0.1-8.9-4.9c-0.4-3.6-0.9-7.2-4-9.7
			c0-10.6-0.1-21.3,0-31.9c0-3.1,0.1-6.4,1.1-9.3c2.8-8.3,0.8-16.2-0.7-24.3c-0.8-4.2-0.4-8.6-0.5-12.9c0-3.2-0.5-6.3-2.7-8.8
			c-2.3-2.5-0.6-5.8-1.9-8.6c-0.1-0.3,0.6-1,1-1.5c0.5,0.4,1.1,0.7,1.5,1.1c2.7,2.7,4.3,6.6,8.1,8.3c2.6,6.3,7.6,11.1,10.6,17.2
			c2.2,4.5,4.6,9.1,7,13.2c3.6,6.1,3.5,12.8,6.5,18.9c2.7,5.5,1.8,12.2,1.5,18.6C247,264.8,241.9,269.7,242.5,276.3z"/>
		<path class="st0" d="M227.6,163.5c5.9,3.7,12.8,4.9,19,8c10.6,8.1,21.8,15.6,31,25.4c11.5,12.3,22.8,24.8,30.5,40.1
			c0.7,1.4,2.3,2.3,3.5,3.4c-0.2,3.1,0.4,5.9,2.7,8.2c1.6,1.6,1.8,3.6,0.7,5.5c-1.2,1.8-3.2,1.3-5,1.1c-3.3-0.2-5.6-2.7-8.3-4.1
			c-18.7-9.9-34.6-23.2-47.3-40c-7.9-10.4-13.8-22.4-21.7-32.9c-1.4-1.9-2.9-3.6-4.9-4.9c-0.4-2.8-2.9-3.9-4.4-5.8
			c-0.8-1-2.5-1.8-2.1-3.1c0.6-1.8,2.6-0.8,3.9-1C225.9,163.4,226.8,163.5,227.6,163.5z"/>
	</g>
</g>
<text transform="matrix(1 0 0 1 13.214 351.5441)" class="st0 st1 st2">BIOBANK JAPAN</text>
</svg>
