<?xml version="1.0" encoding="utf-8"?>
<!-- Generator: Adobe Illustrator 23.1.1, SVG Export Plug-In . SVG Version: 6.00 Build 0)  -->
<svg version="1.1" id="Layer_1" xmlns="http://www.w3.org/2000/svg" xmlns:xlink="http://www.w3.org/1999/xlink" x="0px" y="0px"
	 viewBox="0 0 2696.6 1084.7" style="enable-background:new 0 0 2696.6 1084.7;" xml:space="preserve">
<style type="text/css">
	.st0{fill:none;stroke:#000000;stroke-width:4;stroke-miterlimit:10;}
	.st1{enable-background:new    ;}
	.st2{font-family:'Avenir-Black';}
	.st3{font-size:36px;}
	.st4{fill:#4CC1BB;}
	.st5{font-family:'AndaleMono';}
	.st6{font-size:48px;}
	.st7{fill:#515151;}
	.st8{fill:none;stroke:#515151;stroke-miterlimit:10;}
	.st9{font-size:28px;}
	.st10{fill:#CE52CE;}
	.st11{fill:url(#SVGID_1_);}
	.st12{fill:url(#SVGID_2_);}
	.st13{fill:url(#SVGID_3_);}
	.st14{fill:url(#SVGID_4_);}
	.st15{fill:url(#SVGID_5_);}
	.st16{fill:url(#SVGID_6_);}
	.st17{fill:url(#SVGID_7_);}
	.st18{fill:url(#SVGID_8_);}
	.st19{fill:url(#SVGID_9_);}
	.st20{fill:url(#SVGID_10_);}
	.st21{fill:url(#SVGID_11_);}
	.st22{fill:url(#SVGID_12_);}
	.st23{fill:url(#SVGID_13_);}
	.st24{fill:url(#SVGID_14_);}
	.st25{fill:url(#SVGID_15_);}
	.st26{fill:url(#SVGID_16_);}
	.st27{fill:url(#SVGID_17_);}
	.st28{fill:url(#SVGID_18_);}
	.st29{fill:url(#SVGID_19_);}
	.st30{fill:url(#SVGID_20_);}
	.st31{fill:url(#SVGID_21_);}
	.st32{fill:url(#SVGID_22_);}
	.st33{fill:url(#SVGID_23_);}
	.st34{fill:url(#SVGID_24_);}
	.st35{fill:none;stroke:#000000;stroke-miterlimit:10;}
	.st36{fill:url(#SVGID_25_);}
	.st37{fill:url(#SVGID_26_);}
	.st38{fill:url(#SVGID_27_);}
	.st39{fill:url(#SVGID_28_);}
	.st40{fill:url(#SVGID_29_);}
</style>
<line class="st0" x1="333.4" y1="872.4" x2="2636.2" y2="872.4"/>
<text transform="matrix(1 0 0 1 465.3524 182.355)" class="st1"><tspan x="0" y="0" class="st2 st3">Lipid metabolism</tspan><tspan x="-53.9" y="43.2" class="st2 st3">Cornary Artery Disease</tspan></text>
<text transform="matrix(1 0 0 1 979.3751 182.3553)" class="st2 st3">Inflammatory bowel disease</text>
<text transform="matrix(1 0 0 1 1033.3751 225.5554)" class="st2 st3"> medication selection</text>
<text transform="matrix(1 0 0 1 1672.4409 182.3553)" class="st2 st3">CYP expression</text>
<text transform="matrix(1 0 0 1 1661.6409 225.5553)" class="st2 st3">Drug metabolism</text>
<text transform="matrix(1 0 0 1 2246.2864 182.3552)" class="st2 st3">Immunotherapy</text>
<text transform="matrix(1 0 0 1 2311.0864 225.5552)" class="st2 st3">potency</text>
<line class="st0" x1="334.6" y1="235" x2="334.6" y2="872.6"/>
<text transform="matrix(1 0 0 1 53.35 336.7792)" class="st1"><tspan x="0" y="0" class="st4 st5 st6">Perfect</tspan><tspan x="-43.2" y="57.6" class="st4 st5 st6">Prediction</tspan><tspan x="0" y="115.2" class="st4 st5 st6">AUC=1.0</tspan></text>
<g>
	<text transform="matrix(1 0 0 1 67.7521 843.5283)" class="st7 st5 st3">Guessing</text>
	<text transform="matrix(1 0 0 1 78.5521 886.7283)" class="st7 st5 st3">AUC=0.5</text>
</g>
<text transform="matrix(1 0 0 1 627.5553 947.2837)" class="st7 st5 st3">published</text>
<text transform="matrix(1 0 0 1 616.7553 990.4837)" class="st7 st5 st3">literature</text>
<g>
	<text transform="matrix(1 0 0 1 1242.3717 947.2834)" class="st7 st5 st3">current</text>
	<text transform="matrix(1 0 0 1 1231.5717 990.4834)" class="st7 st5 st3">practice</text>
</g>
<g>
	<text transform="matrix(1 0 0 1 1792.3779 968.8838)" class="st7 st5 st3">competitors</text>
</g>
<g>
	<text transform="matrix(1 0 0 1 2428.7979 947.2836)" class="st7 st5 st3">current</text>
	<text transform="matrix(1 0 0 1 2417.9978 990.4836)" class="st7 st5 st3">practice</text>
</g>
<g>
	<line class="st8" x1="921.1" y1="206.2" x2="921.1" y2="1003.6"/>
	<line class="st8" x1="1515.3" y1="206.2" x2="1515.3" y2="1003.6"/>
	<line class="st8" x1="2109.6" y1="206.2" x2="2109.6" y2="1003.6"/>
</g>
<line class="st8" x1="302.6" y1="381.6" x2="365.7" y2="381.6"/>
<g>
	<text transform="matrix(1 0 0 1 611.9424 523.788)" class="st7 st5 st9">european</text>
	<text transform="matrix(1 0 0 1 611.9424 557.3881)" class="st7 st5 st9">ancestry</text>
</g>
<g>
	<text transform="matrix(1 0 0 1 774.4539 585.0261)" class="st10 st5 st9">diverse</text>
	<text transform="matrix(1 0 0 1 749.2538 618.6262)" class="st10 st5 st9">population</text>
</g>
<g>
	<g>
		
			<linearGradient id="SVGID_1_" gradientUnits="userSpaceOnUse" x1="374.8286" y1="345.4602" x2="443.8596" y2="345.4602" gradientTransform="matrix(1 0 0 1 0 598)">
			<stop  offset="0" style="stop-color:#00DDFF"/>
			<stop  offset="0.2502" style="stop-color:#00D1EA"/>
			<stop  offset="0.7636" style="stop-color:#00B1B5"/>
			<stop  offset="1" style="stop-color:#00A19A"/>
		</linearGradient>
		<path class="st11" d="M409.4,977.4c0.6-1,1.3-2,1.7-3.1c0.5-1.1,0.9-2.2,1.2-3.4c0.3-1.3,0.5-2.8,0.4-4.3c1.6,0.8,3.3,1.5,5.1,2
			c1.8,0.5,3.6,0.8,5.5,1.1c3.7,0.5,7.4,0.5,11,0s7.3-1.5,10.6-3.3c0.4-0.2,0.5-0.7,0.3-1c-0.2-0.4-0.7-0.5-1.1-0.4l0,0
			c-3.1,1.5-6.6,2.3-10.1,2.6s-7,0.1-10.5-0.5c-1.7-0.3-3.4-0.7-5-1.2s-3.2-1.2-4.7-2.1c-0.7-0.4-4-2.4-4.5-2.7
			c-1.4-0.9-3.4-2.4-4.5-3.5c-0.8-3.1-2.5-6.1-5.1-8.2c-0.9-0.7-1.9-1.4-2.9-1.9c-0.5-0.2-1-0.5-1.5-0.7l-1.5-0.6
			c-1-0.4-2-0.7-3.1-0.9h-0.1c-0.3-0.1-0.7-0.1-1-0.2c-2.3-0.4-3.4-0.4-3.4-0.4c2.2-1.2,4.1-2,6.6-2c0.1,0,0.1,0,0.2,0h0.1
			c0.1,0,0.1,0,0.2,0l0,0c1.5,0,3,0.2,4.5,0.5c1.6,0.3,3.2,0.7,4.8,1.1c0.8,0.2,1.6,0.5,2.3,0.8c0.8,0.3,1.6,0.5,2.4,0.6
			c1.2,0.8,2.2,1.9,2.9,3.3c0.5,1,1.2,2.2,2,3.2s1.8,1.9,3,2.5c0.2,0.1,0.5,0.1,0.6-0.1c0.2-0.2,0.2-0.5,0-0.7l0,0
			c-0.9-0.8-1.6-1.7-2.1-2.7s-0.9-2-1.3-3.2c-0.3-0.8-0.7-1.5-1.2-2.2c0.8-0.1,1.5-0.1,2.3-0.3c1.8-0.3,3.5-0.8,5.2-1.4
			c0.5-0.2,1-0.4,1.5-0.5c0.2,0,0.5,0,0.7,0c0.7,0.1,1.5,0.3,2.2,0.5c1.5,0.5,3.2,1,4.9,1.4c1.7,0.4,3.5,0.5,5.2,0.2
			s3.4-0.9,4.9-1.8c0.3-0.2,0.4-0.5,0.3-0.8s-0.5-0.5-0.9-0.3l0,0c-1.4,0.7-3,1.1-4.5,1.2c-1.5,0.1-3.1-0.1-4.6-0.6
			c-1.4-0.4-2.7-1-4.2-1.6c1.3-0.6,2.7-1.1,3.9-1.7c0.8-0.4,1.5-0.7,2.3-1c0.7-0.3,1.5-0.5,2.3-0.7c1.5-0.3,3-0.4,4.4,0
			s2.7,1.2,3.8,2.3c1.1,1.1,2,2.5,2.9,3.8c3.4,5.6,4.8,12.5,4.9,19.2l0,0c0,0.3,0.2,0.5,0.5,0.5s0.5-0.2,0.5-0.5
			c0.2-3.5,0-6.9-0.6-10.4c-0.6-3.4-1.7-6.9-3.4-10c-0.9-1.6-1.8-3.1-3.1-4.5c-1.3-1.4-3-2.5-4.8-3.1c-1.9-0.6-3.9-0.6-5.7-0.3
			c-0.9,0.1-1.8,0.4-2.7,0.7s-1.7,0.7-2.5,0.9c-3.2,1.3-6.3,2.6-9.4,3.6s-6.4,1.7-9.3,1.3c-0.7-0.1-1.4-0.3-2.1-0.5
			c-0.8-0.3-1.7-0.6-2.6-0.8c-1.7-0.5-3.4-0.9-5.2-1.3c-0.5-0.1-1-0.2-1.5-0.3c1.8-0.6,3.6-1.3,5.4-2c2.1-0.9,4.2-2,6.1-3.4
			s3.6-3.2,4.7-5.5c0.5-1.2,0.8-2.2,1.3-3.1c0.4-0.9,1-1.8,1.6-2.6s1.3-1.5,2.2-2.1c0.4-0.3,0.8-0.5,1.2-0.7
			c0.4-0.2,0.9-0.4,1.4-0.5c4-1.2,8.5-0.9,12.2,1.1c0.3,0.1,0.7,0.1,0.9-0.2c0.2-0.3,0.1-0.7-0.2-0.9c-1.9-1.3-4.2-2.1-6.5-2.5
			s-4.7-0.2-7,0.4c-0.3,0.1-0.6,0.1-0.9,0.3c-0.3,0.1-0.6,0.2-0.9,0.3c-0.6,0.3-1.2,0.5-1.7,0.9c-1.1,0.7-2,1.5-2.7,2.5s-1.4,2-2,3
			c-0.5,1.1-0.9,2.3-1.3,3.1c-0.8,1.8-2.3,3.3-3.9,4.6s-3.5,2.3-5.5,3.3c-1.4,0.7-2.9,1.3-4.4,2c1.5-2.1,2.6-4.4,3.5-6.7
			c1.3-3.2,2.3-6.2,3.9-8.9c3-5.5,8.9-8.8,15.2-9.5c3.2-0.4,6.4-0.2,9.6,0.3s6.4,1.4,9.4,2.6l0,0c0.5,0.2,1.1,0,1.3-0.5
			c0.2-0.5,0-1.1-0.5-1.3c-3.2-1.4-6.5-2.3-9.8-3c-3.4-0.7-6.8-0.9-10.3-0.7c-3.5,0.3-7,1.3-10.1,3c-1.5,0.9-3,1.9-4.3,3.2
			c-1,0.9-1.9,2-2.6,3.1c-0.3-1.2-0.8-2.3-1.3-3.3c-1.2-2.3-3.2-4.3-5.5-5.4c-0.2-0.1-0.5,0-0.7,0.2c-0.1,0.3-0.1,0.5,0.1,0.7l0,0
			c2,1.2,3.4,3.2,4.3,5.3c0.4,1.1,0.7,2.2,0.8,3.3s0.1,2.2-0.2,3.1l0,0c0,0,0,0.1,0,0.2c0,0,0,0,0,0.1c-1,2-1.8,4.1-2.7,6.1
			c-1.3,3-2.9,5.7-5,7.8c-2.1,2.2-5.6,3.7-5.7,3.7c0.1-0.5,0.3-0.9,0.4-1.4c0.3-1.2,0.6-2.3,0.9-3.4c0.2-0.5,0.4-1,0.7-1.5
			c0.3-0.5,0.5-0.8,0.9-1.4c1.5-2.1,2.6-4.6,2.7-7.3c0.1-1.3-0.1-2.7-0.6-3.9c-0.4-1.2-1.1-2.4-1.9-3.4c-0.2-0.3-0.7-0.4-1-0.1
			s-0.4,0.7-0.2,1l0,0c1.3,1.9,2,4.1,1.7,6.3s-1.3,4.2-2.8,5.9c-0.3,0.4-0.8,0.9-1.1,1.5c-0.3-1.3-0.8-2.6-1.3-3.8
			c-0.6-1.3-1.3-2.6-2.1-3.9c-0.2-0.4-0.7-0.5-1.1-0.3s-0.6,0.7-0.4,1.1l0,0c0.6,1.2,1.1,2.5,1.5,3.8s0.7,2.6,0.8,3.9
			c0.3,2.6-0.3,6.1-1.4,8.1c-2.3,0.5-4.7,0.7-7,0.6l0,0l0,0c-1.2,0-2.2,1-2.2,2.2c0,0.5,0,2.1,0,2.6c0,1.2,1,2.2,2.2,2.2
			c2.3,0,4.2-0.3,6.2-0.4c1.5-0.1,3-0.1,4.5-0.1c0.9,1.2,1.6,2.5,2.1,4c0.3,1,0.5,2,0.6,3.1s0.1,2.2,0.1,3.2l0,0
			c0,0.4,0.3,0.8,0.7,0.8c0.4,0.1,0.9-0.2,1-0.7c0.2-1.1,0.4-2.3,0.5-3.5s0-2.4-0.1-3.6c-0.1-1-0.4-2-0.8-3c0.9,0.1,1.8,0.4,2.7,0.7
			l1.3,0.4c0.4,0.1,0.8,0.4,1.3,0.5c0.8,0.4,1.6,0.8,2.3,1.3c1.4,1,2.6,2.3,3.4,3.9c0.8,1.6,1.3,3.3,1.5,5.1
			c0.3,3.6-0.8,7.5-3.5,10.1l0,0c-0.3,0.3-0.4,0.8-0.1,1.1c0.3,0.4,0.8,0.5,1.2,0.2c1.8-1.2,3.2-3.1,4.1-5.1
			c0.8-1.7,1.2-3.7,1.3-5.6c0.8,0.6,1.5,1.1,2.3,1.6c0.3,0.2,0.6,0.4,0.9,0.5c0,0.1,0,0.2,0.1,0.3c0.8,1.7,1.1,3.8,0.9,5.8
			c-0.1,1-0.3,2-0.6,3.1c-0.3,1-0.7,2-1.1,3l0,0c-0.2,0.4,0,0.8,0.3,1.1C408.7,977.9,409.2,977.8,409.4,977.4z"/>
		
			<linearGradient id="SVGID_2_" gradientUnits="userSpaceOnUse" x1="487.2422" y1="333.3087" x2="405.4429" y2="333.3087" gradientTransform="matrix(1 0 0 1 0 598)">
			<stop  offset="0" style="stop-color:#00ECC6"/>
			<stop  offset="0.3246" style="stop-color:#00D7BA"/>
			<stop  offset="0.9916" style="stop-color:#00A29A"/>
			<stop  offset="1" style="stop-color:#00A19A"/>
		</linearGradient>
		<path class="st12" d="M455.8,898.8c-1.8,1.2-3.2,3.1-4.1,5.1c-0.8,1.7-1.2,3.7-1.3,5.6c-0.8-0.6-1.5-1.1-2.3-1.6
			c-1.6-1-3.2-1.9-4.8-2.7c-1.7-0.8-3.4-1.5-5.2-2c-1.8-0.5-3.6-0.8-5.5-1.1c-3.7-0.5-7.4-0.5-11,0s-7.3,1.5-10.6,3.3
			c-0.4,0.2-0.5,0.7-0.3,1c0.2,0.4,0.7,0.5,1.1,0.4l0,0c3.1-1.5,6.6-2.3,10.1-2.6s7-0.1,10.5,0.5c1.7,0.3,3.4,0.7,5,1.2
			s3.2,1.3,4.7,2.1s3,1.7,4.5,2.7c1.3,0.9,3.4,2.6,4.6,3.6c0.4,1.7,1.2,3.4,2.2,4.9c0,0-3.1-0.7-4.7-2s-3-3.7-3.9-4.8
			c-0.1-0.1-0.3-0.3-0.5-0.2c-0.3,0-0.6,0.3-0.5,0.7l0,0c0,0.2,0,0.4,0.1,0.6c0.4,1.8,1.9,4.2,4.1,6.1c1.9,1.5,7.1,3.4,9.7,4.2
			c0.5,0.1,0.9,0.3,1.4,0.4c0.1,0,0.1,0.1,0.2,0.1c0.5,0.2,1,0.5,1.5,0.7l1.5,0.6c1.8,0.7,3.7,1.1,5.6,1.3c-0.5,0.3-1.1,0.5-1.6,0.9
			c-0.9,0.3-2.1,0.4-3.2,0.4c-1.6,0-3.2-0.3-4.9-0.5c-1.6-0.3-3.3-0.7-4.9-1.2l-1.2-0.4l-1.2-0.4c-1-0.3-2-0.5-3-0.6
			c-2-0.2-3.9,0.1-5.7,0.4s-3.6,0.9-5.3,1.5c-0.3,0.1-0.5,0.2-0.8,0.3c-0.2,0-0.5,0-0.7,0c-0.7-0.1-1.5-0.3-2.2-0.5
			c-1.5-0.5-3.2-1-4.9-1.4c-1.7-0.4-3.5-0.5-5.2-0.2s-3.4,0.9-4.9,1.8c-0.3,0.2-0.4,0.5-0.3,0.8s0.5,0.5,0.9,0.3l0,0
			c1.4-0.7,3-1.1,4.5-1.2c1.5-0.1,3.1,0.1,4.6,0.6c1.4,0.4,2.7,1,4.2,1.6c-1.6,0.7-3.3,1.4-4.9,2.2c-3,1.3-6.3,2.1-9,0.8
			c-1.4-0.6-2.6-1.6-3.6-2.8c-1.1-1.3-2-2.7-2.8-4.2c-1.6-3-2.7-6.3-3.3-9.7c-0.7-3.4-0.9-6.9-0.8-10.3c0-0.3-0.2-0.5-0.5-0.5
			s-0.5,0.2-0.5,0.5c-0.3,3.5-0.3,7.1,0.2,10.6s1.5,7.1,3,10.4c0.8,1.6,1.7,3.2,2.8,4.7c1.1,1.5,2.6,2.9,4.4,3.8
			c1.8,0.9,3.9,1.2,5.8,1s3.8-0.7,5.5-1.4c3.2-1.3,6.5-2.7,9.7-3.8s6.6-1.9,9.6-1.6c0.8,0.1,1.5,0.2,2.2,0.5l1.2,0.4l1.3,0.4
			c1.7,0.5,3.5,1,5.3,1.3c0.8,0.1,1.7,0.3,2.5,0.4c-2,0.7-4.1,1.4-6.1,2.3c-2.1,0.9-4.2,2-6.1,3.4s-3.6,3.2-4.7,5.5
			c-0.5,1.2-0.8,2.2-1.3,3.1c-0.4,0.9-1,1.8-1.6,2.6s-1.3,1.5-2.2,2.1c-0.4,0.3-0.8,0.5-1.2,0.7c-0.4,0.2-0.9,0.4-1.4,0.5
			c-4,1.2-8.5,0.9-12.2-1.1c-0.3-0.1-0.7-0.1-0.9,0.2c-0.2,0.3-0.1,0.7,0.2,0.9c1.9,1.3,4.2,2.1,6.5,2.5s4.7,0.2,7-0.4
			c0.3-0.1,0.6-0.1,0.9-0.3c0.3-0.1,0.6-0.2,0.9-0.3c0.6-0.3,1.2-0.5,1.7-0.9c1.1-0.7,2-1.5,2.7-2.5c0.8-0.9,1.4-2,2-3
			c0.5-1.1,0.9-2.3,1.3-3.1c0.8-1.8,2.3-3.3,3.9-4.6s3.5-2.3,5.5-3.3c1.5-0.8,3.1-1.5,4.7-2.2c-1.7,2.3-2.9,4.8-3.9,7.3
			c-1.3,3.2-2.4,6.3-4,9.1s-3.6,5.3-6.2,7.2c-0.7,0.5-1.3,0.9-2,1.3c-0.7,0.4-1.4,0.8-2.1,1.1c-1.5,0.6-3,1.1-4.6,1.3
			c-3.2,0.5-6.5,0.5-9.7,0s-6.5-1.4-9.5-2.7l0,0c-0.5-0.2-1.1,0-1.3,0.5c-0.2,0.5,0,1.1,0.5,1.3c3.2,1.5,6.5,2.4,10,3.1
			c3.4,0.6,7,0.8,10.5,0.3c1.8-0.3,3.5-0.7,5.2-1.4c0.8-0.3,1.7-0.7,2.5-1.2c0.8-0.4,1.5-0.9,2.3-1.5c3-2.1,5.4-4.9,7.2-7.9
			c1.8-3.1,3.1-6.3,4.4-9.4c0-0.1,0.1-0.1,0.1-0.2c0,0.1,0,0.3-0.1,0.5c-0.2,2.3-0.3,4.7,0,7s0.7,4.6,1.5,6.7
			c0.1,0.3,0.4,0.4,0.7,0.4c0.3-0.1,0.5-0.4,0.4-0.7l0,0c-0.5-2.2-0.7-4.3-0.7-6.5s0.3-4.4,0.7-6.5c0.4-2.1,1.1-4.2,1.9-6.2
			c0.2-0.5,0.4-0.9,0.7-1.5c0.3-0.5,0.5-0.9,0.8-1.3l0.1-0.1c0,0.1,0,0.2,0.1,0.3c0.3,1.3,0.8,2.5,1.4,3.6c1.2,2.3,3.1,4.2,5.4,5.2
			c0.2,0.1,0.5,0,0.7-0.2c0.1-0.3,0.1-0.5-0.1-0.7l0,0c-1.9-1.2-3.4-3.1-4.2-5.2c-0.4-1-0.7-2.1-0.8-3.2c-0.1-0.8-0.1-1.5,0-2.3
			c1.4-0.9,2.9-1.7,4.5-2.2c3-1,6.1-1.3,9.3-1.3l0,0l0,0c1.2,0,2.2-1,2.2-2.2c0-0.3,0-1.4,0-1.7c0-1.2-1-2.2-2.2-2.2
			c-1.5,0-2.8,0.1-4.1,0.2c-2-1.6-3.5-4.5-4.2-7c-0.4-1.3-0.6-2.6-0.7-3.9c-0.1-1.3-0.1-2.7,0-4.1l0,0c0-0.4-0.3-0.8-0.7-0.9
			c-0.5-0.1-0.9,0.2-1,0.7c-0.3,1.4-0.5,2.9-0.5,4.3c0,1.3,0,2.7,0.2,4c-0.5-0.4-1.2-0.7-1.6-0.9c-2-1.1-3.7-2.6-4.7-4.5
			c-1.1-1.9-1.2-4.2-0.7-6.5l0,0c0.1-0.4-0.1-0.7-0.5-0.8s-0.8,0.1-0.9,0.5c-0.4,1.2-0.6,2.5-0.5,3.8c0,1.3,0.3,2.7,0.9,3.9
			c1.1,2.5,3.1,4.4,5.2,5.8c0.6,0.4,0.9,0.6,1.3,1c0.4,0.3,0.8,0.7,1.1,1.1c0.7,0.8,1.4,1.8,2.1,2.8c0.2,0.3,0.5,0.6,0.7,0.9
			c-1.1,0-2.2,0-3.2-0.1c-1.9-0.1-3.7-0.4-5.5-1l-1.3-0.4c-0.4-0.1-0.8-0.4-1.3-0.5c-0.8-0.4-1.6-0.8-2.3-1.3
			c-1.4-1-2.6-2.3-3.4-3.9c-0.8-1.6-1.3-3.3-1.5-5.1c-0.3-3.6,0.8-7.5,3.5-10.1l0,0c0.3-0.3,0.4-0.8,0.1-1.1
			C456.7,898.6,456.1,898.6,455.8,898.8z"/>
		<g>
			
				<linearGradient id="SVGID_3_" gradientUnits="userSpaceOnUse" x1="407.1" y1="353.7839" x2="407.1" y2="218.8301" gradientTransform="matrix(1 0 0 1 0 598)">
				<stop  offset="0" style="stop-color:#00DDFF"/>
				<stop  offset="0.2502" style="stop-color:#00D1EA"/>
				<stop  offset="0.7636" style="stop-color:#00B1B5"/>
				<stop  offset="1" style="stop-color:#00A19A"/>
			</linearGradient>
			<path class="st13" d="M408.2,917c-0.1-0.7-0.3-1.3-0.4-1.9c-0.1-0.5-0.2-0.9-0.3-1.4c-0.5,0.4-1,0.7-1.5,1.1c0,0.2,0,0.3,0.1,0.5
				c0.1,1.1,0.3,2.1,0.6,3.2C407.2,918,407.7,917.5,408.2,917z"/>
			
				<linearGradient id="SVGID_4_" gradientUnits="userSpaceOnUse" x1="411.85" y1="353.7839" x2="411.85" y2="218.8301" gradientTransform="matrix(1 0 0 1 0 598)">
				<stop  offset="0" style="stop-color:#00DDFF"/>
				<stop  offset="0.2502" style="stop-color:#00D1EA"/>
				<stop  offset="0.7636" style="stop-color:#00B1B5"/>
				<stop  offset="1" style="stop-color:#00A19A"/>
			</linearGradient>
			<path class="st14" d="M410.4,928.1c0.5,0.8,1,1.6,1.6,2.3l0,0c0.4-0.6,0.9-1.3,1.2-2c0-0.1,0.1-0.2,0.1-0.3
				c-0.6-0.8-1.2-1.7-1.7-2.6c-0.3,0.7-0.5,1.3-0.7,1.7C410.7,927.6,410.5,927.9,410.4,928.1z"/>
			
				<linearGradient id="SVGID_5_" gradientUnits="userSpaceOnUse" x1="448.8" y1="353.7839" x2="448.8" y2="218.8301" gradientTransform="matrix(1 0 0 1 0 598)">
				<stop  offset="0" style="stop-color:#00DDFF"/>
				<stop  offset="0.2502" style="stop-color:#00D1EA"/>
				<stop  offset="0.7636" style="stop-color:#00B1B5"/>
				<stop  offset="1" style="stop-color:#00A19A"/>
			</linearGradient>
			<path class="st15" d="M449.8,957.3c-0.1-1.2-0.3-2.4-0.5-3.6c0-0.1-0.1-0.3-0.1-0.5c-0.4,0.6-0.9,1.1-1.4,1.7
				c0.3,1.2,0.5,2.4,0.6,3.6C449,958.1,449.4,957.7,449.8,957.3z"/>
			
				<linearGradient id="SVGID_6_" gradientUnits="userSpaceOnUse" x1="444.05" y1="353.7839" x2="444.05" y2="218.8301" gradientTransform="matrix(1 0 0 1 0 598)">
				<stop  offset="0" style="stop-color:#00DDFF"/>
				<stop  offset="0.2502" style="stop-color:#00D1EA"/>
				<stop  offset="0.7636" style="stop-color:#00B1B5"/>
				<stop  offset="1" style="stop-color:#00A19A"/>
			</linearGradient>
			<path class="st16" d="M445.5,942.9c-0.5-0.8-1-1.6-1.6-2.4c-0.5,0.7-1,1.4-1.3,2.2l0,0c0.5,0.7,0.9,1.3,1.4,2
				c0.1,0.2,0.2,0.4,0.4,0.6c0.2-0.6,0.4-1.1,0.7-1.6C445.1,943.5,445.3,943.2,445.5,942.9z"/>
		</g>
	</g>
	<g>
		<text transform="matrix(1 0 0 1 375.2686 1008.6981)" class="st4 st5 st3">Coral</text>
	</g>
</g>
<g>
	<g>
		
			<linearGradient id="SVGID_7_" gradientUnits="userSpaceOnUse" x1="968.0417" y1="345.4602" x2="1037.0728" y2="345.4602" gradientTransform="matrix(1 0 0 1 0 598)">
			<stop  offset="0" style="stop-color:#00DDFF"/>
			<stop  offset="0.2502" style="stop-color:#00D1EA"/>
			<stop  offset="0.7636" style="stop-color:#00B1B5"/>
			<stop  offset="1" style="stop-color:#00A19A"/>
		</linearGradient>
		<path class="st17" d="M1002.6,977.4c0.6-1,1.3-2,1.7-3.1c0.5-1.1,0.9-2.2,1.2-3.4c0.3-1.3,0.5-2.8,0.4-4.3c1.6,0.8,3.3,1.5,5.1,2
			s3.6,0.8,5.5,1.1c3.7,0.5,7.4,0.5,11,0s7.3-1.5,10.6-3.3c0.4-0.2,0.5-0.7,0.3-1c-0.2-0.4-0.7-0.5-1.1-0.4l0,0
			c-3.1,1.5-6.6,2.3-10.1,2.6s-7,0.1-10.5-0.5c-1.7-0.3-3.4-0.7-5-1.2s-3.2-1.2-4.7-2.1c-0.7-0.4-4-2.4-4.5-2.7
			c-1.4-0.9-3.4-2.4-4.5-3.5c-0.8-3.1-2.5-6.1-5.1-8.2c-0.9-0.7-1.9-1.4-2.9-1.9c-0.5-0.2-1-0.5-1.5-0.7l-1.5-0.6
			c-1-0.4-2-0.7-3.1-0.9h-0.1c-0.3-0.1-0.7-0.1-1-0.2c-2.3-0.4-3.4-0.4-3.4-0.4c2.2-1.2,4.1-2,6.6-2c0.1,0,0.1,0,0.2,0h0.1
			c0.1,0,0.1,0,0.2,0l0,0c1.5,0,3,0.2,4.5,0.5c1.6,0.3,3.2,0.7,4.8,1.1c0.8,0.2,1.6,0.5,2.3,0.8c0.8,0.3,1.6,0.5,2.4,0.6
			c1.2,0.8,2.2,1.9,2.9,3.3c0.5,1,1.2,2.2,2,3.2s1.8,1.9,3,2.5c0.2,0.1,0.5,0.1,0.6-0.1c0.2-0.2,0.2-0.5,0-0.7l0,0
			c-0.9-0.8-1.6-1.7-2.1-2.7s-0.9-2-1.3-3.2c-0.3-0.8-0.7-1.5-1.2-2.2c0.8-0.1,1.5-0.1,2.3-0.3c1.8-0.3,3.5-0.8,5.2-1.4
			c0.5-0.2,1-0.4,1.5-0.5c0.2,0,0.5,0,0.7,0c0.7,0.1,1.5,0.3,2.2,0.5c1.5,0.5,3.2,1,4.9,1.4s3.5,0.5,5.2,0.2s3.4-0.9,4.9-1.8
			c0.3-0.2,0.4-0.5,0.3-0.8s-0.5-0.5-0.9-0.3l0,0c-1.4,0.7-3,1.1-4.5,1.2c-1.5,0.1-3.1-0.1-4.6-0.6c-1.4-0.4-2.7-1-4.2-1.6
			c1.3-0.6,2.7-1.1,3.9-1.7c0.8-0.4,1.5-0.7,2.3-1c0.7-0.3,1.5-0.5,2.3-0.7c1.5-0.3,3-0.4,4.4,0s2.7,1.2,3.8,2.3
			c1.1,1.1,2,2.5,2.9,3.8c3.4,5.6,4.8,12.5,4.9,19.2l0,0c0,0.3,0.2,0.5,0.5,0.5s0.5-0.2,0.5-0.5c0.2-3.5,0-6.9-0.6-10.4
			c-0.6-3.4-1.7-6.9-3.4-10c-0.9-1.6-1.8-3.1-3.1-4.5c-1.3-1.4-3-2.5-4.8-3.1s-3.9-0.6-5.7-0.3c-0.9,0.1-1.8,0.4-2.7,0.7
			s-1.7,0.7-2.5,0.9c-3.2,1.3-6.3,2.6-9.4,3.6c-3.1,1-6.4,1.7-9.3,1.3c-0.7-0.1-1.4-0.3-2.1-0.5c-0.8-0.3-1.7-0.6-2.6-0.8
			c-1.7-0.5-3.4-0.9-5.2-1.3c-0.5-0.1-1-0.2-1.5-0.3c1.8-0.6,3.6-1.3,5.4-2c2.1-0.9,4.2-2,6.1-3.4c1.9-1.4,3.6-3.2,4.7-5.5
			c0.5-1.2,0.8-2.2,1.3-3.1c0.4-0.9,1-1.8,1.6-2.6s1.3-1.5,2.2-2.1c0.4-0.3,0.8-0.5,1.2-0.7s0.9-0.4,1.4-0.5c4-1.2,8.5-0.9,12.2,1.1
			c0.3,0.1,0.7,0.1,0.9-0.2c0.2-0.3,0.1-0.7-0.2-0.9c-1.9-1.3-4.2-2.1-6.5-2.5s-4.7-0.2-7,0.4c-0.3,0.1-0.6,0.1-0.9,0.3
			c-0.3,0.1-0.6,0.2-0.9,0.3c-0.6,0.3-1.2,0.5-1.7,0.9c-1.1,0.7-2,1.5-2.7,2.5s-1.4,2-2,3c-0.5,1.1-0.9,2.3-1.3,3.1
			c-0.8,1.8-2.3,3.3-3.9,4.6c-1.6,1.3-3.5,2.3-5.5,3.3c-1.4,0.7-2.9,1.3-4.4,2c1.5-2.1,2.6-4.4,3.5-6.7c1.3-3.2,2.3-6.2,3.9-8.9
			c3-5.5,8.9-8.8,15.2-9.5c3.2-0.4,6.4-0.2,9.6,0.3s6.4,1.4,9.4,2.6l0,0c0.5,0.2,1.1,0,1.3-0.5s0-1.1-0.5-1.3
			c-3.2-1.4-6.5-2.3-9.8-3c-3.4-0.7-6.8-0.9-10.3-0.7c-3.5,0.3-7,1.3-10.1,3c-1.5,0.9-3,1.9-4.3,3.2c-1,0.9-1.9,2-2.6,3.1
			c-0.3-1.2-0.8-2.3-1.3-3.3c-1.2-2.3-3.2-4.3-5.5-5.4c-0.2-0.1-0.5,0-0.7,0.2c-0.1,0.3-0.1,0.5,0.1,0.7l0,0c2,1.2,3.4,3.2,4.3,5.3
			c0.4,1.1,0.7,2.2,0.8,3.3s0.1,2.2-0.2,3.1l0,0c0,0,0,0.1,0,0.2c0,0,0,0,0,0.1c-1,2-1.8,4.1-2.7,6.1c-1.3,3-2.9,5.7-5,7.8
			c-2.1,2.2-5.6,3.7-5.7,3.7c0.1-0.5,0.3-0.9,0.4-1.4c0.3-1.2,0.6-2.3,0.9-3.4c0.2-0.5,0.4-1,0.7-1.5s0.5-0.8,0.9-1.4
			c1.5-2.1,2.6-4.6,2.7-7.3c0.1-1.3-0.1-2.7-0.6-3.9c-0.4-1.2-1.1-2.4-1.9-3.4c-0.2-0.3-0.7-0.4-1-0.1s-0.4,0.7-0.2,1l0,0
			c1.3,1.9,2,4.1,1.7,6.3s-1.3,4.2-2.8,5.9c-0.3,0.4-0.8,0.9-1.1,1.5c-0.3-1.3-0.8-2.6-1.3-3.8c-0.6-1.3-1.3-2.6-2.1-3.9
			c-0.2-0.4-0.7-0.5-1.1-0.3c-0.4,0.2-0.6,0.7-0.4,1.1l0,0c0.6,1.2,1.1,2.5,1.5,3.8s0.7,2.6,0.8,3.9c0.3,2.6-0.3,6.1-1.4,8.1
			c-2.3,0.5-4.7,0.7-7,0.6l0,0l0,0c-1.2,0-2.2,1-2.2,2.2c0,0.5,0,2.1,0,2.6c0,1.2,1,2.2,2.2,2.2c2.3,0,4.2-0.3,6.2-0.4
			c1.5-0.1,3-0.1,4.5-0.1c0.9,1.2,1.6,2.5,2.1,4c0.3,1,0.5,2,0.6,3.1s0.1,2.2,0.1,3.2l0,0c0,0.4,0.3,0.8,0.7,0.8
			c0.4,0.1,0.9-0.2,1-0.7c0.2-1.1,0.4-2.3,0.5-3.5s0-2.4-0.1-3.6c-0.1-1-0.4-2-0.8-3c0.9,0.1,1.8,0.4,2.7,0.7l1.3,0.4
			c0.4,0.1,0.8,0.4,1.3,0.5c0.8,0.4,1.6,0.8,2.3,1.3c1.4,1,2.6,2.3,3.4,3.9c0.8,1.6,1.3,3.3,1.5,5.1c0.3,3.6-0.8,7.5-3.5,10.1l0,0
			c-0.3,0.3-0.4,0.8-0.1,1.1c0.3,0.4,0.8,0.5,1.2,0.2c1.8-1.2,3.2-3.1,4.1-5.1c0.8-1.7,1.2-3.7,1.3-5.6c0.8,0.6,1.5,1.1,2.3,1.6
			c0.3,0.2,0.6,0.4,0.9,0.5c0,0.1,0,0.2,0.1,0.3c0.8,1.7,1.1,3.8,0.9,5.8c-0.1,1-0.3,2-0.6,3.1c-0.3,1-0.7,2-1.1,3l0,0
			c-0.2,0.4,0,0.8,0.3,1.1C1001.9,977.9,1002.4,977.8,1002.6,977.4z"/>
		
			<linearGradient id="SVGID_8_" gradientUnits="userSpaceOnUse" x1="1080.4552" y1="333.3087" x2="998.656" y2="333.3087" gradientTransform="matrix(1 0 0 1 0 598)">
			<stop  offset="0" style="stop-color:#00ECC6"/>
			<stop  offset="0.3246" style="stop-color:#00D7BA"/>
			<stop  offset="0.9916" style="stop-color:#00A29A"/>
			<stop  offset="1" style="stop-color:#00A19A"/>
		</linearGradient>
		<path class="st18" d="M1049,898.8c-1.8,1.2-3.2,3.1-4.1,5.1c-0.8,1.7-1.2,3.7-1.3,5.6c-0.8-0.6-1.5-1.1-2.3-1.6
			c-1.6-1-3.2-1.9-4.8-2.7c-1.7-0.8-3.4-1.5-5.2-2c-1.8-0.5-3.6-0.8-5.5-1.1c-3.7-0.5-7.4-0.5-11,0s-7.3,1.5-10.6,3.3
			c-0.4,0.2-0.5,0.7-0.3,1c0.2,0.4,0.7,0.5,1.1,0.4l0,0c3.1-1.5,6.6-2.3,10.1-2.6s7-0.1,10.5,0.5c1.7,0.3,3.4,0.7,5,1.2
			s3.2,1.3,4.7,2.1s3,1.7,4.5,2.7c1.3,0.9,3.4,2.6,4.6,3.6c0.4,1.7,1.2,3.4,2.2,4.9c0,0-3.1-0.7-4.7-2s-3-3.7-3.9-4.8
			c-0.1-0.1-0.3-0.3-0.5-0.2c-0.3,0-0.6,0.3-0.5,0.7l0,0c0,0.2,0,0.4,0.1,0.6c0.4,1.8,1.9,4.2,4.1,6.1c1.9,1.5,7.1,3.4,9.7,4.2
			c0.5,0.1,0.9,0.3,1.4,0.4c0.1,0,0.1,0.1,0.2,0.1c0.5,0.2,1,0.5,1.5,0.7l1.5,0.6c1.8,0.7,3.7,1.1,5.6,1.3c-0.5,0.3-1.1,0.5-1.6,0.9
			c-0.9,0.3-2.1,0.4-3.2,0.4c-1.6,0-3.2-0.3-4.9-0.5c-1.6-0.3-3.3-0.7-4.9-1.2l-1.2-0.4l-1.2-0.4c-1-0.3-2-0.5-3-0.6
			c-2-0.2-3.9,0.1-5.7,0.4s-3.6,0.9-5.3,1.5c-0.3,0.1-0.5,0.2-0.8,0.3c-0.2,0-0.5,0-0.7,0c-0.7-0.1-1.5-0.3-2.2-0.5
			c-1.5-0.5-3.2-1-4.9-1.4s-3.5-0.5-5.2-0.2s-3.4,0.9-4.9,1.8c-0.3,0.2-0.4,0.5-0.3,0.8c0.1,0.3,0.5,0.5,0.9,0.3l0,0
			c1.4-0.7,3-1.1,4.5-1.2c1.5-0.1,3.1,0.1,4.6,0.6c1.4,0.4,2.7,1,4.2,1.6c-1.6,0.7-3.3,1.4-4.9,2.2c-3,1.3-6.3,2.1-9,0.8
			c-1.4-0.6-2.6-1.6-3.6-2.8c-1.1-1.3-2-2.7-2.8-4.2c-1.6-3-2.7-6.3-3.3-9.7c-0.7-3.4-0.9-6.9-0.8-10.3c0-0.3-0.2-0.5-0.5-0.5
			s-0.5,0.2-0.5,0.5c-0.3,3.5-0.3,7.1,0.2,10.6s1.5,7.1,3,10.4c0.8,1.6,1.7,3.2,2.8,4.7s2.6,2.9,4.4,3.8c1.8,0.9,3.9,1.2,5.8,1
			c1.9-0.2,3.8-0.7,5.5-1.4c3.2-1.3,6.5-2.7,9.7-3.8s6.6-1.9,9.6-1.6c0.8,0.1,1.5,0.2,2.2,0.5l1.2,0.4l1.3,0.4
			c1.7,0.5,3.5,1,5.3,1.3c0.8,0.1,1.7,0.3,2.5,0.4c-2,0.7-4.1,1.4-6.1,2.3c-2.1,0.9-4.2,2-6.1,3.4s-3.6,3.2-4.7,5.5
			c-0.5,1.2-0.8,2.2-1.3,3.1c-0.4,0.9-1,1.8-1.6,2.6s-1.3,1.5-2.2,2.1c-0.4,0.3-0.8,0.5-1.2,0.7c-0.4,0.2-0.9,0.4-1.4,0.5
			c-4,1.2-8.5,0.9-12.2-1.1c-0.3-0.1-0.7-0.1-0.9,0.2s-0.1,0.7,0.2,0.9c1.9,1.3,4.2,2.1,6.5,2.5c2.3,0.4,4.7,0.2,7-0.4
			c0.3-0.1,0.6-0.1,0.9-0.3c0.3-0.1,0.6-0.2,0.9-0.3c0.6-0.3,1.2-0.5,1.7-0.9c1.1-0.7,2-1.5,2.7-2.5c0.8-0.9,1.4-2,2-3
			s0.9-2.3,1.3-3.1c0.8-1.8,2.3-3.3,3.9-4.6s3.5-2.3,5.5-3.3c1.5-0.8,3.1-1.5,4.7-2.2c-1.7,2.3-2.9,4.8-3.9,7.3
			c-1.3,3.2-2.4,6.3-4,9.1s-3.6,5.3-6.2,7.2c-0.7,0.5-1.3,0.9-2,1.3c-0.7,0.4-1.4,0.8-2.1,1.1c-1.5,0.6-3,1.1-4.6,1.3
			c-3.2,0.5-6.5,0.5-9.7,0s-6.5-1.4-9.5-2.7l0,0c-0.5-0.2-1.1,0-1.3,0.5s0,1.1,0.5,1.3c3.2,1.5,6.5,2.4,10,3.1
			c3.4,0.6,7,0.8,10.5,0.3c1.8-0.3,3.5-0.7,5.2-1.4c0.8-0.3,1.7-0.7,2.5-1.2c0.8-0.4,1.5-0.9,2.3-1.5c3-2.1,5.4-4.9,7.2-7.9
			c1.8-3.1,3.1-6.3,4.4-9.4c0-0.1,0.1-0.1,0.1-0.2c0,0.1,0,0.3-0.1,0.5c-0.2,2.3-0.3,4.7,0,7s0.7,4.6,1.5,6.7
			c0.1,0.3,0.4,0.4,0.7,0.4c0.3-0.1,0.5-0.4,0.4-0.7l0,0c-0.5-2.2-0.7-4.3-0.7-6.5s0.3-4.4,0.7-6.5c0.4-2.1,1.1-4.2,1.9-6.2
			c0.2-0.5,0.4-0.9,0.7-1.5c0.3-0.5,0.5-0.9,0.8-1.3l0.1-0.1c0,0.1,0,0.2,0.1,0.3c0.3,1.3,0.8,2.5,1.4,3.6c1.2,2.3,3.1,4.2,5.4,5.2
			c0.2,0.1,0.5,0,0.7-0.2c0.1-0.3,0.1-0.5-0.1-0.7l0,0c-1.9-1.2-3.4-3.1-4.2-5.2c-0.4-1-0.7-2.1-0.8-3.2c-0.1-0.8-0.1-1.5,0-2.3
			c1.4-0.9,2.9-1.7,4.5-2.2c3-1,6.1-1.3,9.3-1.3l0,0l0,0c1.2,0,2.2-1,2.2-2.2c0-0.3,0-1.4,0-1.7c0-1.2-1-2.2-2.2-2.2
			c-1.5,0-2.8,0.1-4.1,0.2c-2-1.6-3.5-4.5-4.2-7c-0.4-1.3-0.6-2.6-0.7-3.9c-0.1-1.3-0.1-2.7,0-4.1l0,0c0-0.4-0.3-0.8-0.7-0.9
			c-0.5-0.1-0.9,0.2-1,0.7c-0.3,1.4-0.5,2.9-0.5,4.3c0,1.3,0,2.7,0.2,4c-0.5-0.4-1.2-0.7-1.6-0.9c-2-1.1-3.7-2.6-4.7-4.5
			c-1.1-1.9-1.2-4.2-0.7-6.5l0,0c0.1-0.4-0.1-0.7-0.5-0.8s-0.8,0.1-0.9,0.5c-0.4,1.2-0.6,2.5-0.5,3.8c0,1.3,0.3,2.7,0.9,3.9
			c1.1,2.5,3.1,4.4,5.2,5.8c0.6,0.4,0.9,0.6,1.3,1c0.4,0.3,0.8,0.7,1.1,1.1c0.7,0.8,1.4,1.8,2.1,2.8c0.2,0.3,0.5,0.6,0.7,0.9
			c-1.1,0-2.2,0-3.2-0.1c-1.9-0.1-3.7-0.4-5.5-1l-1.3-0.4c-0.4-0.1-0.8-0.4-1.3-0.5c-0.8-0.4-1.6-0.8-2.3-1.3
			c-1.4-1-2.6-2.3-3.4-3.9c-0.8-1.6-1.3-3.3-1.5-5.1c-0.3-3.6,0.8-7.5,3.5-10.1l0,0c0.3-0.3,0.4-0.8,0.1-1.1
			C1049.9,898.6,1049.4,898.6,1049,898.8z"/>
		<g>
			
				<linearGradient id="SVGID_9_" gradientUnits="userSpaceOnUse" x1="1000.3" y1="353.7837" x2="1000.3" y2="218.8298" gradientTransform="matrix(1 0 0 1 0 598)">
				<stop  offset="0" style="stop-color:#00DDFF"/>
				<stop  offset="0.2502" style="stop-color:#00D1EA"/>
				<stop  offset="0.7636" style="stop-color:#00B1B5"/>
				<stop  offset="1" style="stop-color:#00A19A"/>
			</linearGradient>
			<path class="st19" d="M1001.4,917c-0.1-0.7-0.3-1.3-0.4-1.9c-0.1-0.5-0.2-0.9-0.3-1.4c-0.5,0.4-1,0.7-1.5,1.1
				c0,0.2,0,0.3,0.1,0.5c0.1,1.1,0.3,2.1,0.6,3.2C1000.4,918,1000.9,917.5,1001.4,917z"/>
			
				<linearGradient id="SVGID_10_" gradientUnits="userSpaceOnUse" x1="1005.0499" y1="353.7837" x2="1005.0499" y2="218.8298" gradientTransform="matrix(1 0 0 1 0 598)">
				<stop  offset="0" style="stop-color:#00DDFF"/>
				<stop  offset="0.2502" style="stop-color:#00D1EA"/>
				<stop  offset="0.7636" style="stop-color:#00B1B5"/>
				<stop  offset="1" style="stop-color:#00A19A"/>
			</linearGradient>
			<path class="st20" d="M1003.6,928.1c0.5,0.8,1,1.6,1.6,2.3l0,0c0.4-0.6,0.9-1.3,1.2-2c0-0.1,0.1-0.2,0.1-0.3
				c-0.6-0.8-1.2-1.7-1.7-2.6c-0.3,0.7-0.5,1.3-0.7,1.7C1003.9,927.6,1003.7,927.9,1003.6,928.1z"/>
			
				<linearGradient id="SVGID_11_" gradientUnits="userSpaceOnUse" x1="1042.1" y1="353.7837" x2="1042.1" y2="218.8298" gradientTransform="matrix(1 0 0 1 0 598)">
				<stop  offset="0" style="stop-color:#00DDFF"/>
				<stop  offset="0.2502" style="stop-color:#00D1EA"/>
				<stop  offset="0.7636" style="stop-color:#00B1B5"/>
				<stop  offset="1" style="stop-color:#00A19A"/>
			</linearGradient>
			<path class="st21" d="M1043.1,957.3c-0.1-1.2-0.3-2.4-0.5-3.6c0-0.1-0.1-0.3-0.1-0.5c-0.4,0.6-0.9,1.1-1.4,1.7
				c0.3,1.2,0.5,2.4,0.6,3.6C1042.2,958.1,1042.6,957.7,1043.1,957.3z"/>
			
				<linearGradient id="SVGID_12_" gradientUnits="userSpaceOnUse" x1="1037.3501" y1="353.7837" x2="1037.3501" y2="218.8298" gradientTransform="matrix(1 0 0 1 0 598)">
				<stop  offset="0" style="stop-color:#00DDFF"/>
				<stop  offset="0.2502" style="stop-color:#00D1EA"/>
				<stop  offset="0.7636" style="stop-color:#00B1B5"/>
				<stop  offset="1" style="stop-color:#00A19A"/>
			</linearGradient>
			<path class="st22" d="M1038.8,942.9c-0.5-0.8-1-1.6-1.6-2.4c-0.5,0.7-1,1.4-1.3,2.2l0,0c0.5,0.7,0.9,1.3,1.4,2
				c0.1,0.2,0.2,0.4,0.4,0.6c0.2-0.6,0.4-1.1,0.7-1.6C1038.4,943.5,1038.5,943.2,1038.8,942.9z"/>
		</g>
	</g>
	<g>
		<text transform="matrix(1 0 0 1 968.4816 1008.6979)" class="st4 st5 st3">Coral</text>
	</g>
</g>
<g>
	<g>
		
			<linearGradient id="SVGID_13_" gradientUnits="userSpaceOnUse" x1="1561.2546" y1="345.4602" x2="1630.2856" y2="345.4602" gradientTransform="matrix(1 0 0 1 0 598)">
			<stop  offset="0" style="stop-color:#00DDFF"/>
			<stop  offset="0.2502" style="stop-color:#00D1EA"/>
			<stop  offset="0.7636" style="stop-color:#00B1B5"/>
			<stop  offset="1" style="stop-color:#00A19A"/>
		</linearGradient>
		<path class="st23" d="M1595.8,977.4c0.6-1,1.3-2,1.7-3.1c0.5-1.1,0.9-2.2,1.2-3.4c0.3-1.3,0.5-2.8,0.4-4.3c1.6,0.8,3.3,1.5,5.1,2
			c1.8,0.5,3.6,0.8,5.5,1.1c3.7,0.5,7.4,0.5,11,0s7.3-1.5,10.6-3.3c0.4-0.2,0.5-0.7,0.3-1c-0.2-0.4-0.7-0.5-1.1-0.4l0,0
			c-3.1,1.5-6.6,2.3-10.1,2.6s-7,0.1-10.5-0.5c-1.7-0.3-3.4-0.7-5-1.2s-3.2-1.2-4.7-2.1c-0.7-0.4-4-2.4-4.5-2.7
			c-1.4-0.9-3.4-2.4-4.5-3.5c-0.8-3.1-2.5-6.1-5.1-8.2c-0.9-0.7-1.9-1.4-2.9-1.9c-0.5-0.2-1-0.5-1.5-0.7l-1.5-0.6
			c-1-0.4-2-0.7-3.1-0.9h-0.1c-0.3-0.1-0.7-0.1-1-0.2c-2.3-0.4-3.4-0.4-3.4-0.4c2.2-1.2,4.1-2,6.6-2c0.1,0,0.1,0,0.2,0h0.1
			c0.1,0,0.1,0,0.2,0l0,0c1.5,0,3,0.2,4.5,0.5c1.6,0.3,3.2,0.7,4.8,1.1c0.8,0.2,1.6,0.5,2.3,0.8c0.8,0.3,1.6,0.5,2.4,0.6
			c1.2,0.8,2.2,1.9,2.9,3.3c0.5,1,1.2,2.2,2,3.2s1.8,1.9,3,2.5c0.2,0.1,0.5,0.1,0.6-0.1c0.2-0.2,0.2-0.5,0-0.7l0,0
			c-0.9-0.8-1.6-1.7-2.1-2.7s-0.9-2-1.3-3.2c-0.3-0.8-0.7-1.5-1.2-2.2c0.8-0.1,1.5-0.1,2.3-0.3c1.8-0.3,3.5-0.8,5.2-1.4
			c0.5-0.2,1-0.4,1.5-0.5c0.2,0,0.5,0,0.7,0c0.7,0.1,1.5,0.3,2.2,0.5c1.5,0.5,3.2,1,4.9,1.4s3.5,0.5,5.2,0.2s3.4-0.9,4.9-1.8
			c0.3-0.2,0.4-0.5,0.3-0.8s-0.5-0.5-0.9-0.3l0,0c-1.4,0.7-3,1.1-4.5,1.2c-1.5,0.1-3.1-0.1-4.6-0.6c-1.4-0.4-2.7-1-4.2-1.6
			c1.3-0.6,2.7-1.1,3.9-1.7c0.8-0.4,1.5-0.7,2.3-1c0.7-0.3,1.5-0.5,2.3-0.7c1.5-0.3,3-0.4,4.4,0s2.7,1.2,3.8,2.3
			c1.1,1.1,2,2.5,2.9,3.8c3.4,5.6,4.8,12.5,4.9,19.2l0,0c0,0.3,0.2,0.5,0.5,0.5s0.5-0.2,0.5-0.5c0.2-3.5,0-6.9-0.6-10.4
			c-0.6-3.4-1.7-6.9-3.4-10c-0.9-1.6-1.8-3.1-3.1-4.5c-1.3-1.4-3-2.5-4.8-3.1c-1.9-0.6-3.9-0.6-5.7-0.3c-0.9,0.1-1.8,0.4-2.7,0.7
			c-0.9,0.3-1.7,0.7-2.5,0.9c-3.2,1.3-6.3,2.6-9.4,3.6s-6.4,1.7-9.3,1.3c-0.7-0.1-1.4-0.3-2.1-0.5c-0.8-0.3-1.7-0.6-2.6-0.8
			c-1.7-0.5-3.4-0.9-5.2-1.3c-0.5-0.1-1-0.2-1.5-0.3c1.8-0.6,3.6-1.3,5.4-2c2.1-0.9,4.2-2,6.1-3.4s3.6-3.2,4.7-5.5
			c0.5-1.2,0.8-2.2,1.3-3.1c0.4-0.9,1-1.8,1.6-2.6s1.3-1.5,2.2-2.1c0.4-0.3,0.8-0.5,1.2-0.7c0.4-0.2,0.9-0.4,1.4-0.5
			c4-1.2,8.5-0.9,12.2,1.1c0.3,0.1,0.7,0.1,0.9-0.2c0.2-0.3,0.1-0.7-0.2-0.9c-1.9-1.3-4.2-2.1-6.5-2.5s-4.7-0.2-7,0.4
			c-0.3,0.1-0.6,0.1-0.9,0.3c-0.3,0.1-0.6,0.2-0.9,0.3c-0.6,0.3-1.2,0.5-1.7,0.9c-1.1,0.7-2,1.5-2.7,2.5c-0.8,0.9-1.4,2-2,3
			s-0.9,2.3-1.3,3.1c-0.8,1.8-2.3,3.3-3.9,4.6s-3.5,2.3-5.5,3.3c-1.4,0.7-2.9,1.3-4.4,2c1.5-2.1,2.6-4.4,3.5-6.7
			c1.3-3.2,2.3-6.2,3.9-8.9c3-5.5,8.9-8.8,15.2-9.5c3.2-0.4,6.4-0.2,9.6,0.3s6.4,1.4,9.4,2.6l0,0c0.5,0.2,1.1,0,1.3-0.5
			c0.2-0.5,0-1.1-0.5-1.3c-3.2-1.4-6.5-2.3-9.8-3c-3.4-0.7-6.8-0.9-10.3-0.7c-3.5,0.3-7,1.3-10.1,3c-1.5,0.9-3,1.9-4.3,3.2
			c-1,0.9-1.9,2-2.6,3.1c-0.3-1.2-0.8-2.3-1.3-3.3c-1.2-2.3-3.2-4.3-5.5-5.4c-0.2-0.1-0.5,0-0.7,0.2c-0.1,0.3-0.1,0.5,0.1,0.7l0,0
			c2,1.2,3.4,3.2,4.3,5.3c0.4,1.1,0.7,2.2,0.8,3.3s0.1,2.2-0.2,3.1l0,0c0,0,0,0.1,0,0.2c0,0,0,0,0,0.1c-1,2-1.8,4.1-2.7,6.1
			c-1.3,3-2.9,5.7-5,7.8c-2.1,2.2-5.6,3.7-5.7,3.7c0.1-0.5,0.3-0.9,0.4-1.4c0.3-1.2,0.6-2.3,0.9-3.4c0.2-0.5,0.4-1,0.7-1.5
			c0.3-0.5,0.5-0.8,0.9-1.4c1.5-2.1,2.6-4.6,2.7-7.3c0.1-1.3-0.1-2.7-0.6-3.9c-0.4-1.2-1.1-2.4-1.9-3.4c-0.2-0.3-0.7-0.4-1-0.1
			c-0.3,0.2-0.4,0.7-0.2,1l0,0c1.3,1.9,2,4.1,1.7,6.3s-1.3,4.2-2.8,5.9c-0.3,0.4-0.8,0.9-1.1,1.5c-0.3-1.3-0.8-2.6-1.3-3.8
			c-0.6-1.3-1.3-2.6-2.1-3.9c-0.2-0.4-0.7-0.5-1.1-0.3s-0.6,0.7-0.4,1.1l0,0c0.6,1.2,1.1,2.5,1.5,3.8s0.7,2.6,0.8,3.9
			c0.3,2.6-0.3,6.1-1.4,8.1c-2.3,0.5-4.7,0.7-7,0.6l0,0l0,0c-1.2,0-2.2,1-2.2,2.2c0,0.5,0,2.1,0,2.6c0,1.2,1,2.2,2.2,2.2
			c2.3,0,4.2-0.3,6.2-0.4c1.5-0.1,3-0.1,4.5-0.1c0.9,1.2,1.6,2.5,2.1,4c0.3,1,0.5,2,0.6,3.1s0.1,2.2,0.1,3.2l0,0
			c0,0.4,0.3,0.8,0.7,0.8c0.4,0.1,0.9-0.2,1-0.7c0.2-1.1,0.4-2.3,0.5-3.5s0-2.4-0.1-3.6c-0.1-1-0.4-2-0.8-3c0.9,0.1,1.8,0.4,2.7,0.7
			l1.3,0.4c0.4,0.1,0.8,0.4,1.3,0.5c0.8,0.4,1.6,0.8,2.3,1.3c1.4,1,2.6,2.3,3.4,3.9c0.8,1.6,1.3,3.3,1.5,5.1
			c0.3,3.6-0.8,7.5-3.5,10.1l0,0c-0.3,0.3-0.4,0.8-0.1,1.1c0.3,0.4,0.8,0.5,1.2,0.2c1.8-1.2,3.2-3.1,4.1-5.1
			c0.8-1.7,1.2-3.7,1.3-5.6c0.8,0.6,1.5,1.1,2.3,1.6c0.3,0.2,0.6,0.4,0.9,0.5c0,0.1,0,0.2,0.1,0.3c0.8,1.7,1.1,3.8,0.9,5.8
			c-0.1,1-0.3,2-0.6,3.1s-0.7,2-1.1,3l0,0c-0.2,0.4,0,0.8,0.3,1.1C1595.1,977.9,1595.6,977.8,1595.8,977.4z"/>
		
			<linearGradient id="SVGID_14_" gradientUnits="userSpaceOnUse" x1="1673.6681" y1="333.3087" x2="1591.8689" y2="333.3087" gradientTransform="matrix(1 0 0 1 0 598)">
			<stop  offset="0" style="stop-color:#00ECC6"/>
			<stop  offset="0.3246" style="stop-color:#00D7BA"/>
			<stop  offset="0.9916" style="stop-color:#00A29A"/>
			<stop  offset="1" style="stop-color:#00A19A"/>
		</linearGradient>
		<path class="st24" d="M1642.2,898.8c-1.8,1.2-3.2,3.1-4.1,5.1c-0.8,1.7-1.2,3.7-1.3,5.6c-0.8-0.6-1.5-1.1-2.3-1.6
			c-1.6-1-3.2-1.9-4.8-2.7c-1.7-0.8-3.4-1.5-5.2-2c-1.8-0.5-3.6-0.8-5.5-1.1c-3.7-0.5-7.4-0.5-11,0s-7.3,1.5-10.6,3.3
			c-0.4,0.2-0.5,0.7-0.3,1c0.2,0.4,0.7,0.5,1.1,0.4l0,0c3.1-1.5,6.6-2.3,10.1-2.6s7-0.1,10.5,0.5c1.7,0.3,3.4,0.7,5,1.2
			s3.2,1.3,4.7,2.1s3,1.7,4.5,2.7c1.3,0.9,3.4,2.6,4.6,3.6c0.4,1.7,1.2,3.4,2.2,4.9c0,0-3.1-0.7-4.7-2s-3-3.7-3.9-4.8
			c-0.1-0.1-0.3-0.3-0.5-0.2c-0.3,0-0.6,0.3-0.5,0.7l0,0c0,0.2,0,0.4,0.1,0.6c0.4,1.8,1.9,4.2,4.1,6.1c1.9,1.5,7.1,3.4,9.7,4.2
			c0.5,0.1,0.9,0.3,1.4,0.4c0.1,0,0.1,0.1,0.2,0.1c0.5,0.2,1,0.5,1.5,0.7l1.5,0.6c1.8,0.7,3.7,1.1,5.6,1.3c-0.5,0.3-1.1,0.5-1.6,0.9
			c-0.9,0.3-2.1,0.4-3.2,0.4c-1.6,0-3.2-0.3-4.9-0.5c-1.6-0.3-3.3-0.7-4.9-1.2l-1.2-0.4l-1.2-0.4c-1-0.3-2-0.5-3-0.6
			c-2-0.2-3.9,0.1-5.7,0.4s-3.6,0.9-5.3,1.5c-0.3,0.1-0.5,0.2-0.8,0.3c-0.2,0-0.5,0-0.7,0c-0.7-0.1-1.5-0.3-2.2-0.5
			c-1.5-0.5-3.2-1-4.9-1.4c-1.7-0.4-3.5-0.5-5.2-0.2s-3.4,0.9-4.9,1.8c-0.3,0.2-0.4,0.5-0.3,0.8s0.5,0.5,0.9,0.3l0,0
			c1.4-0.7,3-1.1,4.5-1.2c1.5-0.1,3.1,0.1,4.6,0.6c1.4,0.4,2.7,1,4.2,1.6c-1.6,0.7-3.3,1.4-4.9,2.2c-3,1.3-6.3,2.1-9,0.8
			c-1.4-0.6-2.6-1.6-3.6-2.8c-1.1-1.3-2-2.7-2.8-4.2c-1.6-3-2.7-6.3-3.3-9.7c-0.7-3.4-0.9-6.9-0.8-10.3c0-0.3-0.2-0.5-0.5-0.5
			s-0.5,0.2-0.5,0.5c-0.3,3.5-0.3,7.1,0.2,10.6s1.5,7.1,3,10.4c0.8,1.6,1.7,3.2,2.8,4.7c1.1,1.5,2.6,2.9,4.4,3.8
			c1.8,0.9,3.9,1.2,5.8,1s3.8-0.7,5.5-1.4c3.2-1.3,6.5-2.7,9.7-3.8s6.6-1.9,9.6-1.6c0.8,0.1,1.5,0.2,2.2,0.5l1.2,0.4l1.3,0.4
			c1.7,0.5,3.5,1,5.3,1.3c0.8,0.1,1.7,0.3,2.5,0.4c-2,0.7-4.1,1.4-6.1,2.3c-2.1,0.9-4.2,2-6.1,3.4s-3.6,3.2-4.7,5.5
			c-0.5,1.2-0.8,2.2-1.3,3.1c-0.4,0.9-1,1.8-1.6,2.6s-1.3,1.5-2.2,2.1c-0.4,0.3-0.8,0.5-1.2,0.7c-0.4,0.2-0.9,0.4-1.4,0.5
			c-4,1.2-8.5,0.9-12.2-1.1c-0.3-0.1-0.7-0.1-0.9,0.2c-0.2,0.3-0.1,0.7,0.2,0.9c1.9,1.3,4.2,2.1,6.5,2.5s4.7,0.2,7-0.4
			c0.3-0.1,0.6-0.1,0.9-0.3c0.3-0.1,0.6-0.2,0.9-0.3c0.6-0.3,1.2-0.5,1.7-0.9c1.1-0.7,2-1.5,2.7-2.5c0.8-0.9,1.4-2,2-3
			s0.9-2.3,1.3-3.1c0.8-1.8,2.3-3.3,3.9-4.6s3.5-2.3,5.5-3.3c1.5-0.8,3.1-1.5,4.7-2.2c-1.7,2.3-2.9,4.8-3.9,7.3
			c-1.3,3.2-2.4,6.3-4,9.1s-3.6,5.3-6.2,7.2c-0.7,0.5-1.3,0.9-2,1.3c-0.7,0.4-1.4,0.8-2.1,1.1c-1.5,0.6-3,1.1-4.6,1.3
			c-3.2,0.5-6.5,0.5-9.7,0s-6.5-1.4-9.5-2.7l0,0c-0.5-0.2-1.1,0-1.3,0.5c-0.2,0.5,0,1.1,0.5,1.3c3.2,1.5,6.5,2.4,10,3.1
			c3.4,0.6,7,0.8,10.5,0.3c1.8-0.3,3.5-0.7,5.2-1.4c0.8-0.3,1.7-0.7,2.5-1.2c0.8-0.4,1.5-0.9,2.3-1.5c3-2.1,5.4-4.9,7.2-7.9
			c1.8-3.1,3.1-6.3,4.4-9.4c0-0.1,0.1-0.1,0.1-0.2c0,0.1,0,0.3-0.1,0.5c-0.2,2.3-0.3,4.7,0,7s0.7,4.6,1.5,6.7
			c0.1,0.3,0.4,0.4,0.7,0.4c0.3-0.1,0.5-0.4,0.4-0.7l0,0c-0.5-2.2-0.7-4.3-0.7-6.5s0.3-4.4,0.7-6.5c0.4-2.1,1.1-4.2,1.9-6.2
			c0.2-0.5,0.4-0.9,0.7-1.5c0.3-0.5,0.5-0.9,0.8-1.3l0.1-0.1c0,0.1,0,0.2,0.1,0.3c0.3,1.3,0.8,2.5,1.4,3.6c1.2,2.3,3.1,4.2,5.4,5.2
			c0.2,0.1,0.5,0,0.7-0.2c0.1-0.3,0.1-0.5-0.1-0.7l0,0c-1.9-1.2-3.4-3.1-4.2-5.2c-0.4-1-0.7-2.1-0.8-3.2c-0.1-0.8-0.1-1.5,0-2.3
			c1.4-0.9,2.9-1.7,4.5-2.2c3-1,6.1-1.3,9.3-1.3l0,0l0,0c1.2,0,2.2-1,2.2-2.2c0-0.3,0-1.4,0-1.7c0-1.2-1-2.2-2.2-2.2
			c-1.5,0-2.8,0.1-4.1,0.2c-2-1.6-3.5-4.5-4.2-7c-0.4-1.3-0.6-2.6-0.7-3.9c-0.1-1.3-0.1-2.7,0-4.1l0,0c0-0.4-0.3-0.8-0.7-0.9
			c-0.5-0.1-0.9,0.2-1,0.7c-0.3,1.4-0.5,2.9-0.5,4.3c0,1.3,0,2.7,0.2,4c-0.5-0.4-1.2-0.7-1.6-0.9c-2-1.1-3.7-2.6-4.7-4.5
			c-1.1-1.9-1.2-4.2-0.7-6.5l0,0c0.1-0.4-0.1-0.7-0.5-0.8s-0.8,0.1-0.9,0.5c-0.4,1.2-0.6,2.5-0.5,3.8c0,1.3,0.3,2.7,0.9,3.9
			c1.1,2.5,3.1,4.4,5.2,5.8c0.6,0.4,0.9,0.6,1.3,1c0.4,0.3,0.8,0.7,1.1,1.1c0.7,0.8,1.4,1.8,2.1,2.8c0.2,0.3,0.5,0.6,0.7,0.9
			c-1.1,0-2.2,0-3.2-0.1c-1.9-0.1-3.7-0.4-5.5-1l-1.3-0.4c-0.4-0.1-0.8-0.4-1.3-0.5c-0.8-0.4-1.6-0.8-2.3-1.3
			c-1.4-1-2.6-2.3-3.4-3.9c-0.8-1.6-1.3-3.3-1.5-5.1c-0.3-3.6,0.8-7.5,3.5-10.1l0,0c0.3-0.3,0.4-0.8,0.1-1.1
			C1643.1,898.6,1642.6,898.6,1642.2,898.8z"/>
		<g>
			
				<linearGradient id="SVGID_15_" gradientUnits="userSpaceOnUse" x1="1593.5" y1="353.7839" x2="1593.5" y2="218.8301" gradientTransform="matrix(1 0 0 1 0 598)">
				<stop  offset="0" style="stop-color:#00DDFF"/>
				<stop  offset="0.2502" style="stop-color:#00D1EA"/>
				<stop  offset="0.7636" style="stop-color:#00B1B5"/>
				<stop  offset="1" style="stop-color:#00A19A"/>
			</linearGradient>
			<path class="st25" d="M1594.6,917c-0.1-0.7-0.3-1.3-0.4-1.9c-0.1-0.5-0.2-0.9-0.3-1.4c-0.5,0.4-1,0.7-1.5,1.1
				c0,0.2,0,0.3,0.1,0.5c0.1,1.1,0.3,2.1,0.6,3.2C1593.6,918,1594.1,917.5,1594.6,917z"/>
			
				<linearGradient id="SVGID_16_" gradientUnits="userSpaceOnUse" x1="1598.25" y1="353.7839" x2="1598.25" y2="218.8301" gradientTransform="matrix(1 0 0 1 0 598)">
				<stop  offset="0" style="stop-color:#00DDFF"/>
				<stop  offset="0.2502" style="stop-color:#00D1EA"/>
				<stop  offset="0.7636" style="stop-color:#00B1B5"/>
				<stop  offset="1" style="stop-color:#00A19A"/>
			</linearGradient>
			<path class="st26" d="M1596.8,928.1c0.5,0.8,1,1.6,1.6,2.3l0,0c0.4-0.6,0.9-1.3,1.2-2c0-0.1,0.1-0.2,0.1-0.3
				c-0.6-0.8-1.2-1.7-1.7-2.6c-0.3,0.7-0.5,1.3-0.7,1.7C1597.1,927.6,1596.9,927.9,1596.8,928.1z"/>
			
				<linearGradient id="SVGID_17_" gradientUnits="userSpaceOnUse" x1="1635.3" y1="353.7839" x2="1635.3" y2="218.8301" gradientTransform="matrix(1 0 0 1 0 598)">
				<stop  offset="0" style="stop-color:#00DDFF"/>
				<stop  offset="0.2502" style="stop-color:#00D1EA"/>
				<stop  offset="0.7636" style="stop-color:#00B1B5"/>
				<stop  offset="1" style="stop-color:#00A19A"/>
			</linearGradient>
			<path class="st27" d="M1636.3,957.3c-0.1-1.2-0.3-2.4-0.5-3.6c0-0.1-0.1-0.3-0.1-0.5c-0.4,0.6-0.9,1.1-1.4,1.7
				c0.3,1.2,0.5,2.4,0.6,3.6C1635.4,958.1,1635.8,957.7,1636.3,957.3z"/>
			
				<linearGradient id="SVGID_18_" gradientUnits="userSpaceOnUse" x1="1630.55" y1="353.7839" x2="1630.55" y2="218.8301" gradientTransform="matrix(1 0 0 1 0 598)">
				<stop  offset="0" style="stop-color:#00DDFF"/>
				<stop  offset="0.2502" style="stop-color:#00D1EA"/>
				<stop  offset="0.7636" style="stop-color:#00B1B5"/>
				<stop  offset="1" style="stop-color:#00A19A"/>
			</linearGradient>
			<path class="st28" d="M1632,942.9c-0.5-0.8-1-1.6-1.6-2.4c-0.5,0.7-1,1.4-1.3,2.2l0,0c0.5,0.7,0.9,1.3,1.4,2
				c0.1,0.2,0.2,0.4,0.4,0.6c0.2-0.6,0.4-1.1,0.7-1.6C1631.6,943.5,1631.7,943.2,1632,942.9z"/>
		</g>
	</g>
	<g>
		<text transform="matrix(1 0 0 1 1561.6946 1008.6981)" class="st4 st5 st3">Coral</text>
	</g>
</g>
<g>
	<g>
		
			<linearGradient id="SVGID_19_" gradientUnits="userSpaceOnUse" x1="2154.467" y1="345.3875" x2="2223.4983" y2="345.3875" gradientTransform="matrix(1 0 0 1 0 598)">
			<stop  offset="0" style="stop-color:#00DDFF"/>
			<stop  offset="0.2502" style="stop-color:#00D1EA"/>
			<stop  offset="0.7636" style="stop-color:#00B1B5"/>
			<stop  offset="1" style="stop-color:#00A19A"/>
		</linearGradient>
		<path class="st29" d="M2189.1,977.4c0.6-1,1.3-2,1.7-3.1c0.5-1.1,0.9-2.2,1.2-3.4c0.3-1.3,0.5-2.8,0.4-4.3c1.6,0.8,3.3,1.5,5.1,2
			s3.6,0.8,5.5,1.1c3.7,0.5,7.4,0.5,11,0s7.3-1.5,10.6-3.3c0.4-0.2,0.5-0.7,0.3-1c-0.2-0.4-0.7-0.5-1.1-0.4l0,0
			c-3.1,1.5-6.6,2.3-10.1,2.6s-7,0.1-10.5-0.5c-1.7-0.3-3.4-0.7-5-1.2s-3.2-1.2-4.7-2.1c-0.7-0.4-4-2.4-4.5-2.7
			c-1.4-0.9-3.4-2.4-4.5-3.5c-0.8-3.1-2.5-6.1-5.1-8.2c-0.9-0.7-1.9-1.4-2.9-1.9c-0.5-0.2-1-0.5-1.5-0.7l-1.5-0.6
			c-1-0.4-2-0.7-3.1-0.9h-0.1c-0.3-0.1-0.7-0.1-1-0.2c-2.3-0.4-3.4-0.4-3.4-0.4c2.2-1.2,4.1-2,6.6-2c0.1,0,0.1,0,0.2,0h0.1
			c0.1,0,0.1,0,0.2,0l0,0c1.5,0,3,0.2,4.5,0.5c1.6,0.3,3.2,0.7,4.8,1.1c0.8,0.2,1.6,0.5,2.3,0.8c0.8,0.3,1.6,0.5,2.4,0.6
			c1.2,0.8,2.2,1.9,2.9,3.3c0.5,1,1.2,2.2,2,3.2s1.8,1.9,3,2.5c0.2,0.1,0.5,0.1,0.6-0.1c0.2-0.2,0.2-0.5,0-0.7l0,0
			c-0.9-0.8-1.6-1.7-2.1-2.7s-0.9-2-1.3-3.2c-0.3-0.8-0.7-1.5-1.2-2.2c0.8-0.1,1.5-0.1,2.3-0.3c1.8-0.3,3.5-0.8,5.2-1.4
			c0.5-0.2,1-0.4,1.5-0.5c0.2,0,0.5,0,0.7,0c0.7,0.1,1.5,0.3,2.2,0.5c1.5,0.5,3.2,1,4.9,1.4s3.5,0.5,5.2,0.2s3.4-0.9,4.9-1.8
			c0.3-0.2,0.4-0.5,0.3-0.8c-0.1-0.3-0.5-0.5-0.9-0.3l0,0c-1.4,0.7-3,1.1-4.5,1.2c-1.5,0.1-3.1-0.1-4.6-0.6c-1.4-0.4-2.7-1-4.2-1.6
			c1.3-0.6,2.7-1.1,3.9-1.7c0.8-0.4,1.5-0.7,2.3-1c0.7-0.3,1.5-0.5,2.3-0.7c1.5-0.3,3-0.4,4.4,0s2.7,1.2,3.8,2.3s2,2.5,2.9,3.8
			c3.4,5.6,4.8,12.5,4.9,19.2l0,0c0,0.3,0.2,0.5,0.5,0.5s0.5-0.2,0.5-0.5c0.2-3.5,0-6.9-0.6-10.4c-0.6-3.4-1.7-6.9-3.4-10
			c-0.9-1.6-1.8-3.1-3.1-4.5s-3-2.5-4.8-3.1c-1.9-0.6-3.9-0.6-5.7-0.3c-0.9,0.1-1.8,0.4-2.7,0.7s-1.7,0.7-2.5,0.9
			c-3.2,1.3-6.3,2.6-9.4,3.6c-3.1,1-6.4,1.7-9.3,1.3c-0.7-0.1-1.4-0.3-2.1-0.5c-0.8-0.3-1.7-0.6-2.6-0.8c-1.7-0.5-3.4-0.9-5.2-1.3
			c-0.5-0.1-1-0.2-1.5-0.3c1.8-0.6,3.6-1.3,5.4-2c2.1-0.9,4.2-2,6.1-3.4c1.9-1.4,3.6-3.2,4.7-5.5c0.5-1.2,0.8-2.2,1.3-3.1
			c0.4-0.9,1-1.8,1.6-2.6s1.3-1.5,2.2-2.1c0.4-0.3,0.8-0.5,1.2-0.7s0.9-0.4,1.4-0.5c4-1.2,8.5-0.9,12.2,1.1c0.3,0.1,0.7,0.1,0.9-0.2
			s0.1-0.7-0.2-0.9c-1.9-1.3-4.2-2.1-6.5-2.5s-4.7-0.2-7,0.4c-0.3,0.1-0.6,0.1-0.9,0.3c-0.3,0.1-0.6,0.2-0.9,0.3
			c-0.6,0.3-1.2,0.5-1.7,0.9c-1.1,0.7-2,1.5-2.7,2.5c-0.8,0.9-1.4,2-2,3c-0.5,1.1-0.9,2.3-1.3,3.1c-0.8,1.8-2.3,3.3-3.9,4.6
			c-1.6,1.3-3.5,2.3-5.5,3.3c-1.4,0.7-2.9,1.3-4.4,2c1.5-2.1,2.6-4.4,3.5-6.7c1.3-3.2,2.3-6.2,3.9-8.9c3-5.5,8.9-8.8,15.2-9.5
			c3.2-0.4,6.4-0.2,9.6,0.3c3.2,0.5,6.4,1.4,9.4,2.6l0,0c0.5,0.2,1.1,0,1.3-0.5s0-1.1-0.5-1.3c-3.2-1.4-6.5-2.3-9.8-3
			c-3.4-0.7-6.8-0.9-10.3-0.7c-3.5,0.3-7,1.3-10.1,3c-1.5,0.9-3,1.9-4.3,3.2c-1,0.9-1.9,2-2.6,3.1c-0.3-1.2-0.8-2.3-1.3-3.3
			c-1.2-2.3-3.2-4.3-5.5-5.4c-0.2-0.1-0.5,0-0.7,0.2c-0.1,0.3-0.1,0.5,0.1,0.7l0,0c2,1.2,3.4,3.2,4.3,5.3c0.4,1.1,0.7,2.2,0.8,3.3
			s0.1,2.2-0.2,3.1l0,0c0,0,0,0.1,0,0.2c0,0,0,0,0,0.1c-1,2-1.8,4.1-2.7,6.1c-1.3,3-2.9,5.7-5,7.8c-2.1,2.2-5.6,3.7-5.7,3.7
			c0.1-0.5,0.3-0.9,0.4-1.4c0.3-1.2,0.6-2.3,0.9-3.4c0.2-0.5,0.4-1,0.7-1.5s0.5-0.8,0.9-1.4c1.5-2.1,2.6-4.6,2.7-7.3
			c0.1-1.3-0.1-2.7-0.6-3.9c-0.4-1.2-1.1-2.4-1.9-3.4c-0.2-0.3-0.7-0.4-1-0.1c-0.3,0.2-0.4,0.7-0.2,1l0,0c1.3,1.9,2,4.1,1.7,6.3
			s-1.3,4.2-2.8,5.9c-0.3,0.4-0.8,0.9-1.1,1.5c-0.3-1.3-0.8-2.6-1.3-3.8c-0.6-1.3-1.3-2.6-2.1-3.9c-0.2-0.4-0.7-0.5-1.1-0.3
			c-0.4,0.2-0.6,0.7-0.4,1.1l0,0c0.6,1.2,1.1,2.5,1.5,3.8s0.7,2.6,0.8,3.9c0.3,2.6-0.3,6.1-1.4,8.1c-2.3,0.5-4.7,0.7-7,0.6l0,0l0,0
			c-1.2,0-2.2,1-2.2,2.2c0,0.5,0,2.1,0,2.6c0,1.2,1,2.2,2.2,2.2c2.3,0,4.2-0.3,6.2-0.4c1.5-0.1,3-0.1,4.5-0.1c0.9,1.2,1.6,2.5,2.1,4
			c0.3,1,0.5,2,0.6,3.1s0.1,2.2,0.1,3.2l0,0c0,0.4,0.3,0.8,0.7,0.8c0.4,0.1,0.9-0.2,1-0.7c0.2-1.1,0.4-2.3,0.5-3.5s0-2.4-0.1-3.6
			c-0.1-1-0.4-2-0.8-3c0.9,0.1,1.8,0.4,2.7,0.7l1.3,0.4c0.4,0.1,0.8,0.4,1.3,0.5c0.8,0.4,1.6,0.8,2.3,1.3c1.4,1,2.6,2.3,3.4,3.9
			s1.3,3.3,1.5,5.1c0.3,3.6-0.8,7.5-3.5,10.1l0,0c-0.3,0.3-0.4,0.8-0.1,1.1c0.3,0.4,0.8,0.5,1.2,0.2c1.8-1.2,3.2-3.1,4.1-5.1
			c0.8-1.7,1.2-3.7,1.3-5.6c0.8,0.6,1.5,1.1,2.3,1.6c0.3,0.2,0.6,0.4,0.9,0.5c0,0.1,0,0.2,0.1,0.3c0.8,1.7,1.1,3.8,0.9,5.8
			c-0.1,1-0.3,2-0.6,3.1c-0.3,1-0.7,2-1.1,3l0,0c-0.2,0.4,0,0.8,0.3,1.1S2188.8,977.8,2189.1,977.4z"/>
		
			<linearGradient id="SVGID_20_" gradientUnits="userSpaceOnUse" x1="2266.8806" y1="333.3087" x2="2185.0815" y2="333.3087" gradientTransform="matrix(1 0 0 1 0 598)">
			<stop  offset="0" style="stop-color:#00ECC6"/>
			<stop  offset="0.3246" style="stop-color:#00D7BA"/>
			<stop  offset="0.9916" style="stop-color:#00A29A"/>
			<stop  offset="1" style="stop-color:#00A19A"/>
		</linearGradient>
		<path class="st30" d="M2235.4,898.8c-1.8,1.2-3.2,3.1-4.1,5.1c-0.8,1.7-1.2,3.7-1.3,5.6c-0.8-0.6-1.5-1.1-2.3-1.6
			c-1.6-1-3.2-1.9-4.8-2.7c-1.7-0.8-3.4-1.5-5.2-2s-3.6-0.8-5.5-1.1c-3.7-0.5-7.4-0.5-11,0s-7.3,1.5-10.6,3.3
			c-0.4,0.2-0.5,0.7-0.3,1c0.2,0.4,0.7,0.5,1.1,0.4l0,0c3.1-1.5,6.6-2.3,10.1-2.6s7-0.1,10.5,0.5c1.7,0.3,3.4,0.7,5,1.2
			s3.2,1.3,4.7,2.1s3,1.7,4.5,2.7c1.3,0.9,3.4,2.6,4.6,3.6c0.4,1.7,1.2,3.4,2.2,4.9c0,0-3.1-0.7-4.7-2c-1.6-1.3-3-3.7-3.9-4.8
			c-0.1-0.1-0.3-0.3-0.5-0.2c-0.3,0-0.6,0.3-0.5,0.7l0,0c0,0.2,0,0.4,0.1,0.6c0.4,1.8,1.9,4.2,4.1,6.1c1.9,1.5,7.1,3.4,9.7,4.2
			c0.5,0.1,0.9,0.3,1.4,0.4c0.1,0,0.1,0.1,0.2,0.1c0.5,0.2,1,0.5,1.5,0.7l1.5,0.6c1.8,0.7,3.7,1.1,5.6,1.3c-0.5,0.3-1.1,0.5-1.6,0.9
			c-0.9,0.3-2.1,0.4-3.2,0.4c-1.6,0-3.2-0.3-4.9-0.5c-1.6-0.3-3.3-0.7-4.9-1.2l-1.2-0.4l-1.2-0.4c-1-0.3-2-0.5-3-0.6
			c-2-0.2-3.9,0.1-5.7,0.4s-3.6,0.9-5.3,1.5c-0.3,0.1-0.5,0.2-0.8,0.3c-0.2,0-0.5,0-0.7,0c-0.7-0.1-1.5-0.3-2.2-0.5
			c-1.5-0.5-3.2-1-4.9-1.4s-3.5-0.5-5.2-0.2s-3.4,0.9-4.9,1.8c-0.3,0.2-0.4,0.5-0.3,0.8c0.1,0.3,0.5,0.5,0.9,0.3l0,0
			c1.4-0.7,3-1.1,4.5-1.2c1.5-0.1,3.1,0.1,4.6,0.6c1.4,0.4,2.7,1,4.2,1.6c-1.6,0.7-3.3,1.4-4.9,2.2c-3,1.3-6.3,2.1-9,0.8
			c-1.4-0.6-2.6-1.6-3.6-2.8c-1.1-1.3-2-2.7-2.8-4.2c-1.6-3-2.7-6.3-3.3-9.7c-0.7-3.4-0.9-6.9-0.8-10.3c0-0.3-0.2-0.5-0.5-0.5
			s-0.5,0.2-0.5,0.5c-0.3,3.5-0.3,7.1,0.2,10.6s1.5,7.1,3,10.4c0.8,1.6,1.7,3.2,2.8,4.7s2.6,2.9,4.4,3.8s3.9,1.2,5.8,1
			c1.9-0.2,3.8-0.7,5.5-1.4c3.2-1.3,6.5-2.7,9.7-3.8s6.6-1.9,9.6-1.6c0.8,0.1,1.5,0.2,2.2,0.5l1.2,0.4l1.3,0.4
			c1.7,0.5,3.5,1,5.3,1.3c0.8,0.1,1.7,0.3,2.5,0.4c-2,0.7-4.1,1.4-6.1,2.3c-2.1,0.9-4.2,2-6.1,3.4c-1.9,1.4-3.6,3.2-4.7,5.5
			c-0.5,1.2-0.8,2.2-1.3,3.1c-0.4,0.9-1,1.8-1.6,2.6s-1.3,1.5-2.2,2.1c-0.4,0.3-0.8,0.5-1.2,0.7s-0.9,0.4-1.4,0.5
			c-4,1.2-8.5,0.9-12.2-1.1c-0.3-0.1-0.7-0.1-0.9,0.2s-0.1,0.7,0.2,0.9c1.9,1.3,4.2,2.1,6.5,2.5s4.7,0.2,7-0.4
			c0.3-0.1,0.6-0.1,0.9-0.3c0.3-0.1,0.6-0.2,0.9-0.3c0.6-0.3,1.2-0.5,1.7-0.9c1.1-0.7,2-1.5,2.7-2.5c0.8-0.9,1.4-2,2-3
			c0.5-1.1,0.9-2.3,1.3-3.1c0.8-1.8,2.3-3.3,3.9-4.6c1.6-1.3,3.5-2.3,5.5-3.3c1.5-0.8,3.1-1.5,4.7-2.2c-1.7,2.3-2.9,4.8-3.9,7.3
			c-1.3,3.2-2.4,6.3-4,9.1s-3.6,5.3-6.2,7.2c-0.7,0.5-1.3,0.9-2,1.3c-0.7,0.4-1.4,0.8-2.1,1.1c-1.5,0.6-3,1.1-4.6,1.3
			c-3.2,0.5-6.5,0.5-9.7,0s-6.5-1.4-9.5-2.7l0,0c-0.5-0.2-1.1,0-1.3,0.5s0,1.1,0.5,1.3c3.2,1.5,6.5,2.4,10,3.1
			c3.4,0.6,7,0.8,10.5,0.3c1.8-0.3,3.5-0.7,5.2-1.4c0.8-0.3,1.7-0.7,2.5-1.2c0.8-0.4,1.5-0.9,2.3-1.5c3-2.1,5.4-4.9,7.2-7.9
			c1.8-3.1,3.1-6.3,4.4-9.4c0-0.1,0.1-0.1,0.1-0.2c0,0.1,0,0.3-0.1,0.5c-0.2,2.3-0.3,4.7,0,7s0.7,4.6,1.5,6.7
			c0.1,0.3,0.4,0.4,0.7,0.4c0.3-0.1,0.5-0.4,0.4-0.7l0,0c-0.5-2.2-0.7-4.3-0.7-6.5s0.3-4.4,0.7-6.5s1.1-4.2,1.9-6.2
			c0.2-0.5,0.4-0.9,0.7-1.5c0.3-0.5,0.5-0.9,0.8-1.3l0.1-0.1c0,0.1,0,0.2,0.1,0.3c0.3,1.3,0.8,2.5,1.4,3.6c1.2,2.3,3.1,4.2,5.4,5.2
			c0.2,0.1,0.5,0,0.7-0.2c0.1-0.3,0.1-0.5-0.1-0.7l0,0c-1.9-1.2-3.4-3.1-4.2-5.2c-0.4-1-0.7-2.1-0.8-3.2c-0.1-0.8-0.1-1.5,0-2.3
			c1.4-0.9,2.9-1.7,4.5-2.2c3-1,6.1-1.3,9.3-1.3l0,0l0,0c1.2,0,2.2-1,2.2-2.2c0-0.3,0-1.4,0-1.7c0-1.2-1-2.2-2.2-2.2
			c-1.5,0-2.8,0.1-4.1,0.2c-2-1.6-3.5-4.5-4.2-7c-0.4-1.3-0.6-2.6-0.7-3.9c-0.1-1.3-0.1-2.7,0-4.1l0,0c0-0.4-0.3-0.8-0.7-0.9
			c-0.5-0.1-0.9,0.2-1,0.7c-0.3,1.4-0.5,2.9-0.5,4.3c0,1.3,0,2.7,0.2,4c-0.5-0.4-1.2-0.7-1.6-0.9c-2-1.1-3.7-2.6-4.7-4.5
			c-1.1-1.9-1.2-4.2-0.7-6.5l0,0c0.1-0.4-0.1-0.7-0.5-0.8s-0.8,0.1-0.9,0.5c-0.4,1.2-0.6,2.5-0.5,3.8c0,1.3,0.3,2.7,0.9,3.9
			c1.1,2.5,3.1,4.4,5.2,5.8c0.6,0.4,0.9,0.6,1.3,1c0.4,0.3,0.8,0.7,1.1,1.1c0.7,0.8,1.4,1.8,2.1,2.8c0.2,0.3,0.5,0.6,0.7,0.9
			c-1.1,0-2.2,0-3.2-0.1c-1.9-0.1-3.7-0.4-5.5-1l-1.3-0.4c-0.4-0.1-0.8-0.4-1.3-0.5c-0.8-0.4-1.6-0.8-2.3-1.3
			c-1.4-1-2.6-2.3-3.4-3.9c-0.8-1.6-1.3-3.3-1.5-5.1c-0.3-3.6,0.8-7.5,3.5-10.1l0,0c0.3-0.3,0.4-0.8,0.1-1.1
			C2236.3,898.6,2235.8,898.6,2235.4,898.8z"/>
		<g>
			
				<linearGradient id="SVGID_21_" gradientUnits="userSpaceOnUse" x1="2186.7002" y1="353.7835" x2="2186.7002" y2="218.8297" gradientTransform="matrix(1 0 0 1 0 598)">
				<stop  offset="0" style="stop-color:#00DDFF"/>
				<stop  offset="0.2502" style="stop-color:#00D1EA"/>
				<stop  offset="0.7636" style="stop-color:#00B1B5"/>
				<stop  offset="1" style="stop-color:#00A19A"/>
			</linearGradient>
			<path class="st31" d="M2187.8,917c-0.1-0.7-0.3-1.3-0.4-1.9c-0.1-0.5-0.2-0.9-0.3-1.4c-0.5,0.4-1,0.7-1.5,1.1
				c0,0.2,0,0.3,0.1,0.5c0.1,1.1,0.3,2.1,0.6,3.2C2186.8,918,2187.3,917.5,2187.8,917z"/>
			
				<linearGradient id="SVGID_22_" gradientUnits="userSpaceOnUse" x1="2191.4502" y1="353.7835" x2="2191.4502" y2="218.8297" gradientTransform="matrix(1 0 0 1 0 598)">
				<stop  offset="0" style="stop-color:#00DDFF"/>
				<stop  offset="0.2502" style="stop-color:#00D1EA"/>
				<stop  offset="0.7636" style="stop-color:#00B1B5"/>
				<stop  offset="1" style="stop-color:#00A19A"/>
			</linearGradient>
			<path class="st32" d="M2190,928.1c0.5,0.8,1,1.6,1.6,2.3l0,0c0.4-0.6,0.9-1.3,1.2-2c0-0.1,0.1-0.2,0.1-0.3
				c-0.6-0.8-1.2-1.7-1.7-2.6c-0.3,0.7-0.5,1.3-0.7,1.7C2190.3,927.6,2190.2,927.9,2190,928.1z"/>
			
				<linearGradient id="SVGID_23_" gradientUnits="userSpaceOnUse" x1="2228.5" y1="353.7835" x2="2228.5" y2="218.8297" gradientTransform="matrix(1 0 0 1 0 598)">
				<stop  offset="0" style="stop-color:#00DDFF"/>
				<stop  offset="0.2502" style="stop-color:#00D1EA"/>
				<stop  offset="0.7636" style="stop-color:#00B1B5"/>
				<stop  offset="1" style="stop-color:#00A19A"/>
			</linearGradient>
			<path class="st33" d="M2229.5,957.3c-0.1-1.2-0.3-2.4-0.5-3.6c0-0.1-0.1-0.3-0.1-0.5c-0.4,0.6-0.9,1.1-1.4,1.7
				c0.3,1.2,0.5,2.4,0.6,3.6C2228.6,958.1,2229,957.7,2229.5,957.3z"/>
			
				<linearGradient id="SVGID_24_" gradientUnits="userSpaceOnUse" x1="2223.75" y1="353.7835" x2="2223.75" y2="218.8297" gradientTransform="matrix(1 0 0 1 0 598)">
				<stop  offset="0" style="stop-color:#00DDFF"/>
				<stop  offset="0.2502" style="stop-color:#00D1EA"/>
				<stop  offset="0.7636" style="stop-color:#00B1B5"/>
				<stop  offset="1" style="stop-color:#00A19A"/>
			</linearGradient>
			<path class="st34" d="M2225.2,942.9c-0.5-0.8-1-1.6-1.6-2.4c-0.5,0.7-1,1.4-1.3,2.2l0,0c0.5,0.7,0.9,1.3,1.4,2
				c0.1,0.2,0.2,0.4,0.4,0.6c0.2-0.6,0.4-1.1,0.7-1.6C2224.8,943.5,2225,943.2,2225.2,942.9z"/>
		</g>
	</g>
	<g>
		<text transform="matrix(1 0 0 1 2154.907 1008.6978)" class="st4 st5 st3">Coral</text>
	</g>
</g>
<text transform="matrix(1 0 0 1 1749.9897 327.522)" class="st1"><tspan x="0" y="0" class="st5 st3">&gt;80%</tspan><tspan x="-75.6" y="43.2" class="st5 st3">improvement</tspan></text>
<polyline class="st35" points="786.3,548.1 787.1,470.8 675.7,470.8 675.5,498.7 "/>
<g>
	<g>
		<polyline class="st35" points="730.6,470.7 730.6,418.8 431.1,418.8 431.1,436.2 		"/>
		<g>
			<path d="M431.1,440.6c-1.1-2-2.9-4.7-4.8-6.2l4.8,1.2l4.8-1.2C434,436,432.2,438.5,431.1,440.6z"/>
		</g>
	</g>
</g>
<linearGradient id="SVGID_25_" gradientUnits="userSpaceOnUse" x1="307.6427" y1="282.0573" x2="553.0573" y2="527.4719" gradientTransform="matrix(1 0 0 -1 0 1084)">
	<stop  offset="0" style="stop-color:#00DDFF"/>
	<stop  offset="0.2502" style="stop-color:#00D1EA"/>
	<stop  offset="0.6879" style="stop-color:#00C4AF"/>
	<stop  offset="1" style="stop-color:#00E6C3"/>
</linearGradient>
<rect x="375.8" y="488.4" class="st36" width="109.1" height="381.7"/>
<linearGradient id="SVGID_26_" gradientUnits="userSpaceOnUse" x1="911.3046" y1="267.6954" x2="1127.9954" y2="484.3863" gradientTransform="matrix(1 0 0 -1 0 1084)">
	<stop  offset="0" style="stop-color:#00DDFF"/>
	<stop  offset="0.2502" style="stop-color:#00D1EA"/>
	<stop  offset="0.6879" style="stop-color:#00C4AF"/>
	<stop  offset="1" style="stop-color:#00E6C3"/>
</linearGradient>
<rect x="965.1" y="545.8" class="st37" width="109.1" height="324.3"/>
<linearGradient id="SVGID_27_" gradientUnits="userSpaceOnUse" x1="1516.7549" y1="257.5451" x2="1713.1451" y2="453.9354" gradientTransform="matrix(1 0 0 -1 0 1084)">
	<stop  offset="0" style="stop-color:#00DDFF"/>
	<stop  offset="0.2502" style="stop-color:#00D1EA"/>
	<stop  offset="0.6879" style="stop-color:#00C4AF"/>
	<stop  offset="1" style="stop-color:#00E6C3"/>
</linearGradient>
<rect x="1560.4" y="586.4" class="st38" width="109.1" height="283.7"/>
<linearGradient id="SVGID_28_" gradientUnits="userSpaceOnUse" x1="2126.625" y1="240.975" x2="2289.875" y2="404.2251" gradientTransform="matrix(1 0 0 -1 0 1084)">
	<stop  offset="0" style="stop-color:#00DDFF"/>
	<stop  offset="0.2502" style="stop-color:#00D1EA"/>
	<stop  offset="0.6879" style="stop-color:#00C4AF"/>
	<stop  offset="1" style="stop-color:#00E6C3"/>
</linearGradient>
<rect x="2153.7" y="652.7" class="st39" width="109.1" height="217.4"/>
<rect x="630.2" y="571.9" class="st7" width="100.1" height="299.5"/>
<linearGradient id="SVGID_29_" gradientUnits="userSpaceOnUse" x1="743.531" y1="287.175" x2="828.369" y2="287.175" gradientTransform="matrix(1 0 0 -1 0 1084)">
	<stop  offset="0" style="stop-color:#00A8DE"/>
	<stop  offset="0.2" style="stop-color:#333391"/>
	<stop  offset="0.4" style="stop-color:#E91388"/>
	<stop  offset="0.6" style="stop-color:#EB2D2E"/>
	<stop  offset="0.8" style="stop-color:#FDE92B"/>
	<stop  offset="1" style="stop-color:#009E54"/>
</linearGradient>
<rect x="743.5" y="722.4" class="st40" width="84.8" height="148.9"/>
<g>
	<text transform="matrix(1 0 0 1 1857.5732 688.6997)" class="st1"><tspan x="0" y="0" class="st7 st5 st9">general</tspan><tspan x="-25.2" y="33.6" class="st7 st5 st9">population</tspan></text>
</g>
<rect x="1861.7" y="746.5" class="st7" width="100.1" height="123.6"/>
<g>
	<line class="st8" x1="416.8" y1="530.4" x2="443.1" y2="530.4"/>
	<line class="st8" x1="416.8" y1="446.3" x2="443.1" y2="446.3"/>
	<line class="st8" x1="431.2" y1="445.6" x2="431.2" y2="530.4"/>
</g>
<g>
	<line class="st8" x1="775.8" y1="817.7" x2="802.1" y2="817.7"/>
	<line class="st8" x1="775.8" y1="629.9" x2="802.1" y2="629.9"/>
	<line class="st8" x1="790.2" y1="629.5" x2="790.2" y2="817.7"/>
</g>
<g>
	<line class="st8" x1="1601.4" y1="650.7" x2="1627.7" y2="650.7"/>
	<line class="st8" x1="1601.4" y1="524.6" x2="1627.7" y2="524.6"/>
	<line class="st8" x1="1615.7" y1="523.6" x2="1615.7" y2="650.7"/>
</g>
<text transform="matrix(1 0 0 1 543.4854 327.5217)" class="st1"><tspan x="0" y="0" class="st5 st3">&gt;20%</tspan><tspan x="-75.6" y="43.2" class="st5 st3">improvement</tspan></text>
<line class="st8" x1="304.2" y1="870.6" x2="367.3" y2="870.6"/>
<g>
	<text transform="matrix(1 0 0 1 1264.9058 742.7003)" class="st1"><tspan x="0" y="0" class="st7 st5 st9">general</tspan><tspan x="-25.2" y="33.6" class="st7 st5 st9">population</tspan></text>
</g>
<polyline class="st7" points="1270,870.2 1270,797.1 1370.1,797.1 1370.1,870.2 "/>
<g>
	<line class="st8" x1="1005.4" y1="598.4" x2="1031.8" y2="598.4"/>
	<line class="st8" x1="1005.4" y1="496.4" x2="1031.8" y2="496.4"/>
	<line class="st8" x1="1019.8" y1="495.6" x2="1019.8" y2="598.4"/>
</g>
<text transform="matrix(1 0 0 1 1135.9353 327.5217)" class="st1"><tspan x="0" y="0" class="st5 st3">&gt;100%</tspan><tspan x="-64.8" y="43.2" class="st5 st3">improvement</tspan></text>
<text transform="matrix(1 0 0 1 2332.793 328.6999)" class="st1"><tspan x="0" y="0" class="st5 st3">&gt;50%</tspan><tspan x="-75.6" y="43.2" class="st5 st3">improvement</tspan></text>
<g>
	<text transform="matrix(1 0 0 1 2442.9309 742.7002)" class="st1"><tspan x="0" y="0" class="st7 st5 st9">general</tspan><tspan x="-25.2" y="33.6" class="st7 st5 st9">population</tspan></text>
</g>
<polyline class="st7" points="2448,870.2 2448,797.1 2548.1,797.1 2548.1,870.2 "/>
<g>
	<line class="st8" x1="2192.7" y1="716.8" x2="2219" y2="716.8"/>
	<line class="st8" x1="2192.7" y1="590.7" x2="2219" y2="590.7"/>
	<line class="st8" x1="2207.1" y1="589.7" x2="2207.1" y2="716.8"/>
</g>
</svg>
