<?xml version="1.0" encoding="utf-8"?>
<!-- Generator: Adobe Illustrator 24.0.1, SVG Export Plug-In . SVG Version: 6.00 Build 0)  -->
<svg version="1.1" id="Layer_1" xmlns="http://www.w3.org/2000/svg" xmlns:xlink="http://www.w3.org/1999/xlink" x="0px" y="0px"
	 viewBox="0 0 381 148.9" style="enable-background:new 0 0 381 148.9;" xml:space="preserve">
<style type="text/css">
	.st0{fill:#FFFFFF;}
</style>
<g>
	<path class="st0" d="M364,17.3c-57.5,0-115,0-172.5,0c-57.6,0-115.1,0-172.7,0c-7,0-9.8,2.9-9.8,9.9c0,34.4,0,68.9,0,103.3
		c0,6.7,3.1,9.8,9.7,9.8c115.1,0,230.3,0,345.4,0c6.7,0,9.8-3.1,9.8-9.7c0-34.4,0-68.9,0-103.3C374,20.1,371.2,17.3,364,17.3z
		 M81.9,86.4c-1.5,12.7-11.1,20.8-24.6,21c-4.7,0.1-9.3-0.1-14,0.1c-2.3,0.1-2.7-0.8-2.7-2.9c0.1-10.6,0-21.2,0-31.8
		c0-10.7,0-21.4,0-32.1c0-1.8,0.5-2.5,2.4-2.4c6.5,0.3,13-0.5,19.4,0.5c10.6,1.7,18.3,9.6,19.5,20.4C82.9,68.2,82.9,77.3,81.9,86.4z
		 M116.8,58.9c0.2,1.7-0.7,1.8-2.1,1.8c-7.7-0.2-13.2,5.2-13.2,13c0,10.4-0.1,20.7,0,31.1c0,2.1-0.7,2.6-2.7,2.7
		c-2.2,0.1-2.6-0.8-2.6-2.7c0.1-15.3,0.1-30.7,0-46c0-2.1,0.6-2.7,2.6-2.7c2.1,0,2.8,0.7,2.6,2.7c-0.1,1.1,0,2.3,0,3.8
		c1.4-0.7,1.7-1.8,2.3-2.6c2.8-3.7,6.6-5,11.2-4.7C117.7,55.4,116.6,57.5,116.8,58.9z M157.2,107.5c-2,0-3-0.5-2.7-2.6
		c0.1-0.8-0.1-1.6-0.1-3.2c-4.2,5.4-9.2,6.9-15,6.6c-5.6-0.3-9.5-3.2-11.5-8.4c-1.4-3.7-1.7-7.6-1.8-11.5c-0.1-9.9,0-19.7-0.1-29.6
		c0-2.2,0.8-2.6,2.7-2.6c1.9,0,2.8,0.3,2.8,2.5c-0.1,9.8-0.1,19.6,0,29.4c0,1.9,0.2,3.8,0.4,5.7c0.7,5.1,3.2,8.5,7,9.3
		c5,1.1,10.7-0.9,13.3-4.8c1.4-2.1,2.2-4.3,2.2-7c-0.1-10.9,0-21.7-0.1-32.6c0-2.5,1.1-2.5,3-2.6c2.2-0.1,2.6,0.7,2.6,2.7
		c-0.1,15.3-0.1,30.7,0,46C159.8,106.9,159.2,107.5,157.2,107.5z M208.2,79.7c0,9.7,0,19.4,0,29.1c0,3-0.3,6-1.4,8.8
		c-3,7.9-10.7,11.7-20,9.8c-3.8-0.8-7.1-2.6-10.2-5c-2.2-1.8-0.6-3.1,0.4-4.3c1.3-1.6,1.8,0.3,2.4,0.8c4.2,3.4,8.8,4.9,14.1,3.9
		c5.7-1.1,8.6-4.6,9.1-11.7c0.2-3,0-5.9,0-8.9c-4.7,5.9-10.9,7.1-17.7,5.7c-5.9-1.2-9.4-5.4-10.9-10.9c-2.8-10-2.9-20.3-0.1-30.2
		c3-10.9,15.9-15.3,24.5-8.7c1.6,1.2,2.8,2.8,4.2,4.8c0.1-1.7,0.2-2.8,0.3-3.9c0.3-2.6,1.9-3.6,4.3-2.7c1.2,0.5,0.8,1.5,0.8,2.3
		C208.2,65.6,208.2,72.6,208.2,79.7z M266.1,40.7c-2.6,8.1-5.2,16.3-7.8,24.4c-4.2,13.3-8.5,26.5-12.6,39.8
		c-0.6,1.8-1.3,2.5-3.3,2.5c-1.9-0.1-3-0.4-3.6-2.5c-6.8-21.5-13.7-43-20.6-64.5c-0.5-1.7-0.5-2.4,1.5-2.3c4.6,0.2,3.5-0.7,4.9,3.8
		c5.7,18.4,11.3,36.8,16.9,55.2c0.1,0.4,0.2,0.7,0.6,1.7c1.4-4.4,2.6-8.1,3.7-11.9c4.7-15.5,9.5-31.1,14.2-46.6
		c0.5-1.7,4.9-3.1,6.1-1.9C267.1,39.2,266.3,40,266.1,40.7z M282.3,104.9c0,2.1-0.6,2.6-2.7,2.6c-2.1,0-2.9-0.4-2.9-2.7
		c0.1-7.8,0.1-15.6,0.1-23.4c0-7.5,0.1-15.1-0.1-22.6c0-2.3,0.7-2.8,2.8-2.7c2,0,2.7,0.4,2.7,2.6C282.2,74,282.2,89.5,282.3,104.9z
		 M279.5,45.1c-2-0.1-3.3-1.6-3.3-3.9c0-2.4,1.4-3.9,3.5-3.9c2,0,3.6,1.7,3.5,4C283.2,43.5,281.5,45.2,279.5,45.1z M330.7,104.9
		c0,2.2-0.8,2.6-2.8,2.6c-2,0.1-2.7-0.7-2.5-2.6c0.1-0.9,0-1.9,0-3.6c-2.5,3.2-4.9,5.4-8.1,6.2c-11.9,2.8-19.4-1.8-20.1-15
		c-0.6-11.5-0.1-23.1-0.2-34.6c0-2.5,1.7-1.6,2.9-1.8c1.4-0.1,2.5-0.1,2.5,2c-0.1,10.4,0,20.7,0,31.1c0,1.8,0,3.6,0.4,5.4
		c2,8.6,10.8,11.7,17.7,6.1c2.9-2.3,4.6-5.3,4.5-9.2c-0.1-10.9,0-21.9-0.1-32.9c0-2.2,0.8-2.6,2.7-2.6c1.9,0,2.8,0.2,2.8,2.5
		C330.6,74,330.6,89.4,330.7,104.9z"/>
	<path class="st0" d="M59.8,43.6c-3.7-0.4-7.5-0.1-11.2-0.3c-2.1-0.1-2.5,0.7-2.5,2.6c0.1,9,0,17.9,0,26.9c0,9,0,18.1,0,27.1
		c0,1.9,0.5,2.5,2.4,2.4c3.2-0.1,6.5,0,9.7-0.1c9.4-0.2,15.9-5.2,17.7-14.4c1.9-9.7,1.9-19.7,0.1-29.4
		C74.4,49.2,69.2,44.7,59.8,43.6z"/>
	<path class="st0" d="M202.7,82.2c0-3.7,0-7.5,0-11.2c0-0.8,0-1.7-0.3-2.4c-1.9-5.5-6.7-8.5-13-8.3c-5.2,0.2-9.2,3.2-10.4,8.7
		c-1.9,8.5-1.9,17.1,0,25.6c1,4.4,3.8,7.7,8.5,8.4c5.1,0.8,9.8,0,13.2-4.4c1.4-1.8,2.2-3.6,2.1-5.9
		C202.6,89.1,202.7,85.6,202.7,82.2z"/>
</g>
</svg>
