<?xml version="1.0" encoding="utf-8"?>
<!-- Generator: Adobe Illustrator 24.0.1, SVG Export Plug-In . SVG Version: 6.00 Build 0)  -->
<svg version="1.1" id="Layer_1" xmlns="http://www.w3.org/2000/svg" xmlns:xlink="http://www.w3.org/1999/xlink" x="0px" y="0px"
	 viewBox="0 0 23.3 17.8" style="enable-background:new 0 0 23.3 17.8;" xml:space="preserve">
<style type="text/css">
	.st0{fill:#FFFFFF;}
</style>
<g id="use12459" transform="matrix(0.35277777,0,0,0.35277777,-156.6737,-99.99074)">
	<g>
		<g id="surface653276">
			<g>
				<g id="g11912">
					<path id="path11910" class="st0" d="M453.8,317.2c0-1.5,0.3-2.9,0.3-3.7c0-1.3,0.2-2.3,0.3-2.7c0.4-1.1,1.7-1.3,2.6-1.8
						c1.3-0.8,1.7-2.2,1.7-4.2c0-2.2,0.3-2.7,0.8-3.3c0,0,0-0.1,0.1-0.1c0,0,0,0,0.1,0.1c0.2,1.7,0.8,3.4,2.3,5.3
						c1,1.2,2.3,2.1,2.8,2.3c0,0,0.1,0.1,0,0.1c-1,0.6-2.1,0.7-2.6,0.9c0-0.1,0.1-0.3,0.1-0.6c0-0.8-0.6-1.4-1.5-1.4
						c-1,0-2.2,0.7-2.5,3.3c0,0.4-0.2,0.5-0.4,0.9c-0.2,0.3-0.9,1.4-1,1.8c-0.2,0.4-0.3,0.9-0.3,1.3c0,0.4,0.3,0.6,0.6,0.7
						c0.4,0.1,0.9,0.5,1.1,0.9c0.1,0.2,0.3,0.2,0.5,0.3c0.2,0.1,0.3,0.3,0.4,0.4c-0.3,0-0.5,0-0.7,0.2l-0.1-0.1
						c0-0.4-0.3-0.6-0.5-0.7c-0.2-0.6-1.1-0.6-1.4-1.1c0,0-0.1,0-0.1,0.1c0.2,0.5,1,0.4,1.2,1.2c0,0.1,0.4,0.2,0.4,0.5
						c-0.2,0-0.5,0.2-0.6,0.4c-0.2,0-0.4,0-0.5,0.2c-0.1-0.1-0.2-0.2-0.3-0.4c-0.5-0.7-1.5-0.5-1.8-0.9c-0.3-0.3-0.3-1-0.3-1.3
						c0-0.1,0-0.2,0-0.2c-0.1,0-0.1,0-0.2,0.2c0,0.4,0,1.4,0.3,1.7c0.4,0.4,1.3,0.2,1.6,0.8c0.1,0.2,0.2,0.6,0.4,0.8h-2.1
						C454,318.6,453.8,317.8,453.8,317.2 M468.1,313.1c0-0.1,0.2-0.3,0.3-0.3c0.2,0,0.5,0.5,0.5,0.6s-0.2,0.4-0.3,0.4
						C468.4,313.8,468.1,313.3,468.1,313.1 M462.8,307c-1.8-2-2.6-4.3-2.6-6.1c0.2-0.3,0.3-0.9,0.3-1.2c0-0.2,0.3-0.4,0.5-0.4
						c0.5,0,1.4,0.5,1.6,1.7c0.3,2.8,1.1,4.1,2.6,5.3c0.8,0.7,1.3,1.1,1.3,1.6c0,0.4-0.2,0.8-0.8,0.8
						C464.6,308.7,463.4,307.6,462.8,307 M458.7,311.7c0.3-2.2,1.1-3.3,2.1-3.3c0.9,0,1.1,0.6,1.1,1.2c0,1.2-1.9,2.3-3,2.3
						C458.8,311.9,458.7,311.8,458.7,311.7 M459.5,319c0.1-0.3,0.3-0.7,0.3-1.1c0-0.5-0.3-1-0.9-1.2h-0.1c-0.3-0.7-0.8-1-1.5-1.3
						c-0.1,0-0.1-0.1-0.1-0.2c0-0.3,0.1-0.7,0.2-0.9c0.2-0.5,0.5-1,0.9-1.5c0.2-0.2,0.4-0.2,0.5-0.2c0.5-0.1,1.5-0.3,2.1-0.7
						c0.4-0.2,0.9-0.7,1.1-0.9c0.5-0.6,1.8-0.3,3.6-1.5c0.7,0.2,1.5,1,1.6,1.9c0.1,0.7,0,1.6,0.3,2.2c0.1,0.3,0.6,0.9,0.8,1.1
						c0.2,0.2,1.8,2.4,3,4.1c0,0,0.1,0.1,0.2,0.2H459.5z M458.8,318c0.1-0.1,0.5-0.3,0.5,0.1c0,0.3-0.2,0.6-0.2,0.6
						C459,318.4,458.8,318,458.8,318 M458.6,318.3c0,0,0,0.1,0.1,0.2c0,0.1,0,0.3-0.1,0.4h-0.3C458.4,318.8,458.5,318.5,458.6,318.3
						 M458.1,318.6c0,0,0-0.1-0.1-0.3c0-0.1-0.1-0.1-0.2-0.1c0-0.1,0.2-0.2,0.3-0.2s0.1,0.1,0.1,0.2
						C458.3,318.3,458.2,318.5,458.1,318.6 M457.2,318.6c0-0.1,0.1-0.2,0.2-0.2c0.2,0,0.3,0.1,0.3,0.2c0,0.1-0.1,0.2-0.3,0.2
						C457.3,318.8,457.2,318.7,457.2,318.6 M459.5,298.9c-4.9-1.3-9.3-5-9.3-8.5c0-1.9,1.1-3.3,2.9-3.3c2.1,0,2.5,1.3,2.6,2.3
						c0.1,0.3,0.2,0.5,0.5,0.8c0.3,0.3-0.1,1.4-0.4,1.4c-0.2,0-0.2-0.4-0.4-0.6c-0.3-0.3-0.3-0.6-0.3-0.8s0.1-0.4,0.1-0.6
						c0-1.4-0.8-2-2-2c-1.3,0-2.3,0.8-2.3,2.8c0,3.7,6.2,7.1,9.1,7.1c1.8,0,2.9-1.5,6.3-1.5c1.9,0,4.8,0.7,9,0.7
						c4.7,0,5.7-0.2,7.2-0.8c0,0.1,0,0.3-0.1,0.5v0.1c0.3,0,0.8,0,1.1-0.2c-0.1,0.2-0.2,0.3-0.2,0.5v0.1c0.1,0,0.1,0,0.2,0
						c-0.1,0.3-0.2,0.6-0.2,0.9l0,0c0,0.6,0.3,1.7,1.2,2.5c0.3,0.3,0.6,0.5,1,0.7c-0.4,0.2-0.8,0.4-1,0.6c0,0,0,0,0,0.1
						c0.1,0.1,0.2,0.2,0.3,0.3c-0.1,0.1-0.3,0.3-0.4,0.4c-0.4,0.1-1.1,0.4-1.3,0.6c-0.2,0.1-0.2,0.2-0.1,0.4c-0.4,0.2-1,0.4-1.2,0.8
						c-0.2,0.1-0.5,0.2-0.8,0.4c-0.3-0.2-1.1-0.2-1.6-0.1c-0.4-0.4-1.9-0.9-2.6-1c-0.5-0.5-1.2-0.6-1.3-0.6c-0.2,0-0.3,0-0.2,0.2
						c-0.3-0.1-0.6-0.1-0.9-0.1c0,0-0.1,0,0,0.1c0,0.2,0.2,0.4,0.3,0.5c-0.2,0-0.3,0-0.4,0.1c-0.1,0-0.1,0.1,0,0.1
						c0.2,0.3,0.6,0.7,0.9,0.9c-0.1,0-0.1,0.1-0.1,0.1c0.3,0.5,1.2,1,1.7,1.2c0.1,0.4,1.2,1,2,1c0.3,0.3,1,0.4,1.5,0.3
						c0.7,0.3,1.6,0.2,2.4-0.4l0,0c0.5,0.3,1.5,0.3,1.8,0.2c0.4,0.1,1.1,0.2,1.7,0.1c0,0,0.1,0.1,0.3,0.1c0.2,0,0.2,0,0.6,0.1l0,0
						c-1.3,0.1-2.9,0-3.1,0c-1.7,0.1-1.6,0.7-5.5,0.7c-2.7,0-5.1-0.7-5.6-1c0,0-0.2-0.4-0.2-0.9c0-0.6,0.3-0.9,0.7-0.9
						c0.2,0,0.3,0,0.3-0.1s-0.1-0.2-0.5-0.2s-1.1,0.4-1.1,1.2c0,0.8,0.4,1.4,0.4,1.6c0.1,0.2,0.1,0.4,0,0.6c-0.4-0.6-1-1.1-1.6-1.1
						c-0.9,0-1.4,0.6-1.4,1.4c0,0.9,0.4,1.4,0.9,1.9c0.4,0.3,1,0.8,1,0.8c0.2,0.1,0.3,0.4,0.3,0.6c0.3,1.6,0.7,2.9,1.9,4.3
						c0.2-0.2,0.5-0.4,0.9-0.4c0.8,0,1.2,0.6,1.3,1c0,0,0.3,0,0.5,0.3c0,0.1-0.1,0.2-0.2,0.3c-0.2-0.2-0.3-0.3-0.5-0.3
						c0.1-0.3-0.6-0.9-0.8-0.9c-0.1,0-0.1,0-0.2,0.1c0.2,0.1,0.7,0.4,0.7,0.8c0,0.3,0.4,0.2,0.5,0.6c-0.1,0.1-0.3,0.2-0.4,0.2
						c0.1,0.2,0.2,0.6,0.2,0.9h-0.1h-2.8c-0.7-0.4-3.4-4.3-3.8-4.8c0.1-0.1,0.5-0.2,0.5-0.7c0-0.3-0.5-1-0.8-1
						c-0.1,0-0.3,0.1-0.4,0.2c-0.1-0.3,0-0.7,0-1c0-1.3-0.6-2-1.5-2.6c0.2-0.2,0.5-0.5,0.5-0.9c0-0.7-0.9-1.4-1.7-2.1
						c-1.2-1.1-1.9-2.9-2.2-4.6c-0.3-1.9-1.1-2.5-2.3-2.5C460.6,298.9,460.1,299,459.5,298.9 M482.7,295.8c0.4-0.2,0.9-0.5,1.2-0.6
						c-0.1,0.3-0.2,0.7-0.4,0.8c-0.1,0.1-0.5,0.3-0.8,0.3C482.7,296.1,482.7,296,482.7,295.8 M484.3,295c0.2-0.2,0.3-0.2,0.7-0.1
						c0,0-0.2,0.3-0.3,0.6c-0.1,0-0.2,0.1-0.3,0.1s-0.2,0-0.3,0C484.3,295.5,484.3,295.2,484.3,295 M485.4,294.1
						c0,0.1,0,0.3-0.2,0.4h-0.3C485,294.4,485.3,294.2,485.4,294.1 M485.8,293.8c0.3-0.2,0.7-0.6,1-0.9c-0.2,0.3-0.3,0.9-0.3,1.1
						c-0.1,0.2-0.8,0.5-0.9,0.5C485.7,294.3,485.8,294,485.8,293.8 M487.3,292.8c0.2-0.1,0.7-0.2,0.9-0.3c0,0,0.1,0,0,0.1
						c0,0-0.1,0.4-0.2,0.6c-0.1,0.3-0.4,0.5-1.1,0.7h-0.1C486.9,293.4,487,293,487.3,292.8 M488.5,291.4L488.5,291.4
						c0,0.3,0,0.5-0.1,0.7c-0.3,0.1-0.8,0.2-1,0.3C487.7,292.2,488.2,291.7,488.5,291.4 M489.5,292c0,0.2-0.1,0.6-0.2,0.7
						c-0.1,0.5-0.2,0.5-0.7,0.8c-0.4,0.2-0.5,0.1-0.5,0.1c0.3-0.2,0.5-0.8,0.6-1.2C489,292.3,489.2,292.2,489.5,292 M489,291
						c0.3-0.3,0.6-0.6,0.9-0.9l0,0c-0.2,0.3-0.3,1.3-0.3,1.3c-0.1,0.2-0.2,0.4-0.8,0.7C488.9,291.9,488.9,291.5,489,291
						 M490.3,290.2c0.1-0.1,0.3-0.2,0.6-0.1c-0.1,0.3-0.2,0.7-0.2,1c-0.1,0.1-0.5,0.4-0.8,0.4C490,291,490.2,290.5,490.3,290.2
						 M490.5,289.7c1.3-1.2,3.4-2.4,5-2.4c1.1,0,1.3,0.2,1.5,0.4c0,0.4,0,0.8-0.1,1.1c-0.4,0.1-1,0.4-0.7,0.8c0,0-0.1,0-0.2,0.1
						c-0.1,0-0.1,0.2-0.1,0.2c-0.2,0-0.5,0-0.8-0.4c-0.2-0.3-0.4-0.5-0.6-0.6c0.6-0.4,1.1-0.5,1.7-0.1c0,0,0.1,0,0.2-0.1
						c-0.1-0.3-0.6-0.6-1-0.6c-0.8,0-1.3,0.7-1.8,0.9v0.1c0.1,0.1,0.2,0.2,0.2,0.3c0.2,0.5,0.7,1,1.2,1.1c-0.1,0.2-0.1,0.4-0.1,0.6
						c-0.4,0.2-1.1,1-1.5,1.2c0.1-0.5,0.1-0.8,0.1-0.8s-0.6,0.4-0.8,0.5c0,0-0.1,0-0.1-0.1c0-0.2,0.2-0.9,0.2-0.9s-0.5,0.5-0.9,0.6
						c-0.1,0-0.1,0-0.1-0.1c0-0.3,0.3-1.3,0.3-1.3s-0.8,0.5-1,0.5c-0.1,0-0.1,0-0.1,0c0-0.3,0.2-1,0.2-1S490.6,289.8,490.5,289.7
						L490.5,289.7z M497.3,287.9c0.9,0.1,2.1,0.5,2.9,1.1c-0.1,0.3-0.1,0.3-0.3,0.3c-0.2,0-0.9-0.7-1.7-0.7c-0.5,0-0.9,0.4-0.9,0.9
						c0,0.3,0.2,0.9,1,0.9c0.2,0,0.4,0,0.5-0.1c0,0.1,0,0.3,0.1,0.3c-0.2,0-0.4-0.1-0.6-0.1c-0.6,0-0.9,0.3-0.9,0.8
						c-0.1,0.2-0.2,0.3-0.2,0.6c0,0.6,0.6,0.9,1.2,0.9c1,0,2-0.8,2.6-1.5c0.5-0.1,1.1-0.3,1.3-0.3c0.2,0,0.4,0.1,0.7,0.4
						c0,0-0.1,0.1-0.2,0.1c-0.2-0.2-0.5-0.3-0.8-0.3c-0.2,0-0.4,0.1-0.6,0.2c0,0-0.1,0-0.2,0.1c-0.2,0.1-0.3,0.3-0.4,0.4
						c0.7,0,1.3,0.6,1.7,1c0,0,0.1,0.1,0,0.2c0,0-0.1,0-0.2-0.1c-1.1-1.1-1.9-1-2.2-0.4c0.7,0.1,1.2,0.5,1.7,1.1c0,0,0,0-0.1,0
						c-0.5-0.1-1-0.7-1.6-0.7c-0.4,0-0.7,0.2-0.8,0.5c-0.1,0-0.2-0.1-0.3-0.1c-0.1,0-0.2,0-0.2,0.1c-0.9,0.8-1,1-0.9,2.1
						c0.2,1.2,0.3,1.3,2.2,1.7c0,0.3-0.1,0.6-0.6,0.6c-0.4,0-0.8-0.2-1.2-0.2c-0.3,0-0.6,0.1-0.8,0c-0.2-0.2-1.6-1.7-1.6-4.2
						C496.1,291.2,497.4,290.2,497.3,287.9 M500.6,289c0.1,0,0.3,0.1,0.3,0.4c-0.1,0.1-0.3,0-0.5-0.1
						C500.5,289.3,500.5,289.1,500.6,289 M501.9,290.2c-0.5,0.3-1.1,0.5-1.7,0.5c0-0.1,0.1-0.2,0-0.2c0.3,0.1,0.6,0,0.6-0.2
						c-0.5,0.2-0.6-0.5-1.3-0.5c-0.7,0-1.2,0.6-1.8,0.2c-0.2-0.1-0.2-0.3-0.2-0.5c0-0.4,0.3-0.6,0.6-0.6c0.6,0,1.1,0.6,1.8,0.6
						c0.3,0,0.4,0,0.6,0.1c0.2,0.1,0.3,0,0.4,0C501.4,289.7,501.7,290,501.9,290.2 M499.2,290.4c0-0.3,0.2-0.4,0.5-0.4
						c0.2,0,0.4,0.2,0.4,0.5c0,0.2-0.2,0.4-0.4,0.4C499.4,290.9,499.2,290.7,499.2,290.4 M500.6,291.4c-0.5,0.6-1.5,1.2-2.2,1.2
						c-0.7,0-1-0.5-0.9-0.9c0.2,0.3,0.5,0.5,0.9,0.5C499.2,292.2,500,291.5,500.6,291.4 M502.3,290.5c0.3-0.1,1,0.4,1.2,0.7
						c0,0.1-0.2,0.1-0.3,0.2c-0.3-0.3-0.6-0.5-0.9-0.5c-0.4,0-0.8,0.2-1.6,0.3c-0.8,0.1-1.7,0.8-2.3,0.8c-0.5,0-0.7-0.2-0.7-0.5
						c0-0.4,0.3-0.5,0.7-0.5c0.4,0,0.8,0.2,1.2,0.2c0.2,0,0.4,0,0.5-0.1C501.3,291,502,290.6,502.3,290.5 M504.1,292.2
						c0,0.2-0.3,0.5-0.3,0.5s-0.2,0-0.2-0.1c0-0.8-0.6-0.5-0.6-0.8c0-0.2,0.4-0.1,0.6-0.3C503.8,291.6,504.1,292,504.1,292.2
						 M502.8,292.7c0,0.1-0.1,0.1-0.2,0.1c-0.3-0.4-0.8-0.8-1.4-0.9C501.7,291.5,502.8,292.1,502.8,292.7 M502.7,292
						c-0.3-0.2-0.6-0.4-0.9-0.5c0.3-0.2,0.7-0.1,0.9,0.1C502.6,291.8,502.6,291.9,502.7,292 M501.8,293.4c-0.3-0.3-0.7-0.6-1.2-0.7
						c0.3-0.4,1.2,0.1,1.7,0.7c0.1,0.1,0.1,0.2,0,0.2C502.2,293.8,501.9,293.5,501.8,293.4 M502.3,294.3
						C502.2,294.3,502.1,294.3,502.3,294.3c0-0.4,0.1-0.4,0.3-0.5c0.1-0.1,0-0.4,0.2-0.4c0.2-0.1,0.2-0.2,0.2-0.3s0.1-0.2,0.2-0.3
						c0.2,0.1,0.2,0.3,0.2,0.3C503.3,293.3,502.8,294.3,502.3,294.3 M501.8,294.3c-0.6-0.2-1.9-0.5-2-0.6c0.1-0.2,0.3-0.3,0.6-0.3
						c0.4,0,0.8,0.6,1.4,0.7c0.1,0,0.1,0,0.1,0.1C501.9,294.2,501.9,294.3,501.8,294.3 M501,295.2c-0.1,0-0.1,0-0.1-0.1
						c0-0.2,0.1-0.5,0.2-0.7c0.1,0,0.4,0.1,0.6,0.2C501.5,294.8,501.1,295.2,501,295.2 M500.7,294.4c-0.1,0-0.2-0.2-0.3-0.2
						s-0.1,0.1-0.3,0c-0.1,0-0.2-0.2-0.2-0.3c0.2,0.1,0.8,0.3,1,0.3C500.8,294.4,500.8,294.4,500.7,294.4 M498.6,295.3
						c0.1,1,0.2,1.1,1.3,1.7l0,0c-1.3-0.4-1.3-0.5-1.5-1.4c-0.2-1.1,0-1.1,0.7-1.8c0,0,0,0,0.1,0s0.1,0,0.2,0.1
						C498.7,294.6,498.6,294.8,498.6,295.3 M499,295.4c-0.1-0.5-0.1-0.5,0.3-1c-0.1,0.5,0,1,0,1.3C499.2,295.6,499,295.6,499,295.4
						 M500.1,296.1c0.2,0.2,0.1,0.6,0,0.7c-0.1-0.1-0.3-0.2-0.3-0.2C500,296.5,500.1,296.3,500.1,296.1 M498.1,300.4
						c0.1,0.3,0.1,0.7,0.2,1c-0.1,0.2-0.2,0.5-0.3,0.6h-0.1c-0.1-0.2-0.4-0.7-0.3-0.9C497.7,301,498,300.6,498.1,300.4 M498.3,302.3
						c0,0.2,0,0.4,0,0.6c-0.1,0.1-0.2,0.3-0.3,0.3c-0.1,0-0.1-0.1-0.2-0.1c-0.1-0.2-0.3-0.5-0.3-0.7c0,0,0.1-0.2,0.1-0.3
						c0.1,0.1,0.2,0.3,0.3,0.4c0.1,0.1,0.1,0.1,0.1,0c0.1-0.1,0.2-0.3,0.3-0.4C498.3,302.1,498.3,302.2,498.3,302.3 M497.8,304.4
						c-0.1,0-0.2,0-0.3,0c-0.1-0.1-0.2-0.4-0.2-0.5c0.1-0.1,0.3-0.4,0.4-0.6c0.1,0.1,0.2,0.2,0.3,0.2c0,0,0.1,0,0.2-0.1
						C498.1,303.8,497.9,304.1,497.8,304.4 M495.7,307.2c0.8,1.6,1.2,2.9,1.8,5.5c0.5,2.1,1.7,3.5,2.1,3.6c0.3,0.1,1.4-0.4,1.8,0.2
						c0.7,1,1.2,0.8,1.2,1.3c-0.1,0.1-0.2,0.3-0.2,0.5c0.2,0.1,0.4,0.4,0.4,0.6h-0.6c0,0,0.1-0.3,0.1-0.5c0-0.6-0.7-0.9-1.2-1.7
						l-0.1,0.1c0.1,0.4,0.5,0.9,0.7,1.2c-0.1,0-0.3,0.2-0.4,0.4c0.1,0.1,0.2,0.4,0.3,0.6H501c0.1-0.1,0.1-0.3,0.1-0.5
						c0,0,0.1-0.2,0.1-0.4c0-0.7-0.7-1.1-1.5-1.4c-1.1-0.4-1.4-0.6-2-1.5h-0.1c0,0.6,0.5,1.1,0.9,1.4c0.7,0.6,2.3,0.7,2.3,1.5
						c-0.3-0.1-0.8,0.1-0.8,0.4c0.1,0.1,0.3,0.4,0.4,0.5h-0.8c-0.2-0.3-0.6-0.6-1.2-0.8c0,0-0.1,0-0.1,0.1c0.3,0.2,0.7,0.5,0.7,0.8
						h-1c-0.3-0.4-1.1-0.9-1.5-1.4c0.1-0.2,0.1-0.8-0.2-1c0.1,0.6-0.2,0.9-0.6,0.9c-0.5,0-0.6-0.5-0.6-0.9c-0.6-0.8,0-1.6-1.2-3.5
						c-1.4-2.1-2.7-3.6-4.6-5.1c0,0,0.4,0.1,0.6,0.1c0.6,0,1.3-0.3,1.9-0.6h0.1c-0.1,0.2-0.2,0.5-0.2,0.9c0,2.2,3,4.2,3.7,6.7h0.1
						c0.3-3.2-2-5.3-2-5.8c0-0.1,0.1-0.2,0.2-0.2c0.7,0,1.9,4.8,4.2,5.7h0.1c-1.7-3.6-1.9-6.1-3.5-7.4c0.7-0.1,1.3-0.3,1.8-0.8
						s0.9-1.1,1-1.9c0,0.1,0.1,0.2,0.2,0.3s0.2,0,0.3,0C497.2,305.6,496.5,306.6,495.7,307.2 M503,317.9c0.3,0.1,0.4,0.8,0.1,0.9
						c0-0.3-0.2-0.5-0.4-0.6C502.7,318.2,502.9,317.9,503,317.9 M501.9,318.9c-0.1-0.2-0.1-0.4-0.3-0.6c0.1-0.1,0.3-0.2,0.4-0.1
						C502.1,318.5,502,318.8,501.9,318.9 M500.3,318.4c0,0,0.1-0.1,0.2-0.1c0.1,0,0.2,0,0.3,0.1c0.1,0.2,0,0.4-0.1,0.5
						C500.6,318.6,500.5,318.5,500.3,318.4 M486,317.6c0-0.3-0.2-0.5-0.8-0.7c-0.2-1-1-1.5-1.7-1.4c0.2-0.5,4.7-3.5,6.5-6.1
						c1.3,1,3.1,3.2,3.9,4.7c0.4,0.9,0.2,1.8,0.7,2.5c0,0,0.1,1.1,0.8,1.3c0.2,0.1,0.5,0,0.6-0.1c0.2,0.4,0.8,0.9,1,1.1h-10.8
						C486.3,318.6,486.4,318,486,317.6 M484.5,318.2c0.1,0,0.3,0,0.4,0.1c0.1,0.5-0.2,0.7-0.4,0.6
						C484.6,318.5,484.5,318.2,484.5,318.2 M485.2,318.9c-0.1,0-0.2,0-0.2,0c0.1,0,0.2-0.2,0.2-0.3
						C485.2,318.7,485.2,318.9,485.2,318.9 M485.4,318.3C485.3,318.3,485.4,318.3,485.4,318.3c0.1-0.1,0.2-0.2,0.4-0.2
						c0.2,0.5-0.2,0.8-0.3,0.8C485.4,318.7,485.4,318.5,485.4,318.3 M488.3,308c0.2,0.2,0.4,0.4,0.6,0.6c-1.4,1.5-4.3,3.8-4.9,4.3
						c-0.1-0.3,0-0.8,0.2-1.2c0.3-0.7,1.1-2.5,1.5-3.5C486.6,308.1,487.3,308.1,488.3,308 M486.6,307c0.1-0.1,0.4-0.3,0.7-0.4
						c0.2,0.2,0.5,0.5,0.7,0.7C487.7,307.3,486.9,307.1,486.6,307C486.6,307.1,486.5,307,486.6,307 M485.9,306.1L485.9,306.1
						c0.2-0.2,0.4-0.4,0.6-0.5c0.1,0.2,0.3,0.4,0.4,0.6c-0.1,0-0.3,0.1-0.3,0.1S486.3,306.2,485.9,306.1 M484.8,306.9
						c0.1-0.1,0.5-0.4,0.7-0.5c0.3,0,0.6,0.2,0.9,0.3l-0.3,0.3C485.9,307,485,307,484.8,306.9L484.8,306.9 M483,306.7
						c0.3-0.2,0.6-0.4,0.8-0.5c0.4,0.1,0.8,0.2,1.1,0.1c0,0-0.5,0.4-0.7,0.5C484,306.9,483.3,306.9,483,306.7
						C483,306.8,483,306.7,483,306.7 M481.6,306.3C481.5,306.3,481.5,306.3,481.6,306.3c0.3-0.2,0.7-0.4,1-0.6c0,0,0.5,0.1,1,0.2
						c-0.2,0.2-0.8,0.5-1,0.6C482.3,306.5,481.9,306.5,481.6,306.3 M480.5,307c0.5-0.3,0.7-0.4,0.8-0.4c0,0,0.5,0.2,0.8,0.2
						C481.8,307.2,481.1,307.2,480.5,307C480.5,307.1,480.5,307,480.5,307 M479.3,306.4C479.2,306.3,479.2,306.3,479.3,306.4
						c0.1-0.2,0.5-0.3,0.7-0.4c0.4,0.2,1,0.3,1.2,0.3v0.1c-0.1,0-0.4,0.2-0.7,0.3C480,306.6,479.6,306.5,479.3,306.4 M479.9,305.5
						l-0.1,0.1c-0.2,0-0.6-0.1-0.7-0.2c0,0,0,0,0-0.1l0.1-0.1C479.4,305.4,479.7,305.5,479.9,305.5 M482.2,305.4c0,0.1,0,0.1,0,0.2
						l-0.1,0.1c-0.3,0.2-0.5,0.2-0.7,0.3c-0.3,0-0.8-0.1-1.1-0.2v-0.1c0.2-0.2,0.7-0.4,1-0.5C481.5,305.3,481.9,305.4,482.2,305.4
						 M483.2,304.6v0.1c0,0-0.5,0.2-0.7,0.3c-0.4,0-1-0.1-1.2-0.2v-0.1c0.2-0.1,0.5-0.2,0.7-0.3
						C482.3,304.5,482.9,304.7,483.2,304.6 M484.3,303.8c0,0.1,0,0.1,0,0.2c-0.3,0-0.7,0.2-1,0.4c-0.4,0-0.8-0.1-1.1-0.2
						c0,0,0,0,0-0.1c0.1-0.2,0.8-0.4,1-0.5C483.4,303.7,484.3,303.8,484.3,303.8 M485.3,303.1L485.3,303.1c-0.3,0.1-0.6,0.2-0.9,0.4
						c-0.4,0-0.8-0.1-1.1-0.2c0,0-0.1-0.1,0-0.1c0.3-0.2,0.7-0.3,1.1-0.4C484.7,302.8,484.9,303,485.3,303.1 M485.9,302.2
						c0,0.1,0,0.3-0.1,0.4v0.1l0,0c0,0.1,0,0.1,0,0.2c0,0,0,0,0,0.1c-0.4,0-0.8-0.3-1.1-0.4c0,0-0.1,0,0-0.1
						C485,302.1,485.4,302.1,485.9,302.2 M486.1,301.3c-0.1,0.2-0.1,0.4-0.2,0.6c-0.3-0.1-0.7-0.1-0.9,0c-0.1-0.1-0.2-0.2-0.2-0.2
						v-0.1c0.1-0.1,0.6-0.3,0.9-0.4C485.8,301.2,486,301.3,486.1,301.3 M487.1,302.9c0-0.4,0.1-0.9,0.3-1.2c0.5,0.1,1,0.1,1.5,0.1
						c1.1,0,1.9-0.4,2.6-0.8c0.7-0.4,1.3-0.7,2.1-0.7c0.6,0,1.2,0.4,1.7,1.1c0.5,0.7,0.8,1.6,0.8,2.3c0,0.8-0.3,1.4-0.7,1.9
						c-0.3,0.3-0.8,0.5-1.3,0.5c-0.1,0-0.1,0-0.2,0c-0.2,0-0.4,0-0.6,0c-1,0-1.6,0.3-2.2,0.5c-0.4,0.2-0.8,0.3-1.3,0.3
						c-0.6,0-1.3-0.4-1.8-1.1C487.4,304.9,487.1,303.9,487.1,302.9 M485.3,305.1C485.3,305.1,485.3,305,485.3,305.1
						c0.2-0.3,0.6-0.5,0.8-0.5c0.1,0.2,0.2,0.5,0.3,0.7C486.1,305.2,485.5,305.2,485.3,305.1 M484.1,305.8c0.2-0.2,0.6-0.3,0.9-0.5
						c0.3,0.1,0.8,0.2,1.1,0.2c-0.1,0.1-0.4,0.3-0.5,0.4C485.1,306.1,484.4,306.1,484.1,305.8C484.1,305.9,484.1,305.9,484.1,305.8
						 M484.7,305.1L484.7,305.1c-0.2,0.2-0.6,0.4-0.9,0.6c-0.4-0.1-0.9-0.1-1.1-0.2c-0.1,0-0.1-0.1,0-0.1c0.1-0.1,0.5-0.3,0.7-0.4
						C483.5,305,483.9,305.1,484.7,305.1 M484.7,303.7c0.2-0.2,0.8-0.4,1.1-0.4c0,0.3,0.1,0.6,0.1,0.9
						C485.7,304.2,484.9,303.9,484.7,303.7C484.7,303.8,484.7,303.7,484.7,303.7 M485.6,304.4l-0.2,0.1l-0.4,0.2
						c-0.4,0-0.9,0-1.4-0.1c0,0,0,0,0-0.1c0.2-0.2,0.8-0.3,0.8-0.4c0.1,0,0.1-0.1,0.2-0.1C484.9,304.3,485.3,304.4,485.6,304.4
						 M495,313.3L495,313.3c-0.7-1.2-2.9-3.4-2.9-5c0-0.6,0.3-1,0.7-1.1c0.1,0,0.3,0,0.4,0c1.8,0.2,3,4.4,4,6.7l0,0
						c-2.4-2.6-2.4-5.3-3.7-5.3c-0.2,0-0.5,0.2-0.5,0.5C493,310,494.4,310.7,495,313.3 M490.6,300c-0.6,0.3-1.1,0.6-1.8,0.6
						c-1.5,0-2.8-0.4-3.5-1.2c-0.6-0.6-0.8-1.3-0.8-1.6c0-0.6,0.4-1.3,1.6-1.3C487.5,296.4,489.5,298.5,490.6,300 M488.8,294.7
						c-0.1,0.1-0.5,0.3-0.7,0.3c-0.1,0-0.1,0-0.1-0.2c0.1-0.4,0.2-0.7,0.3-0.9c0.3-0.1,0.6-0.2,0.8-0.3
						C489,294,488.8,294.7,488.8,294.7 M489.1,296.3c0,0.1-0.1,0.2-0.1,0.2c-0.1,0-0.1-0.1-0.2-0.1
						C489,296.3,489.1,296.3,489.1,296.3 M488.7,295.7v0.5c-0.1-0.1-0.2-0.2-0.4-0.3l0,0C488.3,295.9,488.5,295.8,488.7,295.7
						 M488.3,295.5c0-0.1,0-0.2,0-0.3c0.2,0,0.4-0.1,0.5-0.2c0,0-0.1,0.2-0.1,0.4C488.6,295.4,488.4,295.5,488.3,295.5 M490,296.4
						c-0.2,0-0.6,0.2-0.7,0.3c0,0,0,0-0.1-0.1c0-0.1,0.2-0.3,0.2-0.5c0.1,0,0.3-0.2,0.4-0.3c0.1,0,0.2,0.1,0.4,0
						C490.1,296.1,490,296.3,490,296.4 M490.1,297.1c0,0.1,0,0.3,0,0.4c-0.1-0.1-0.1-0.1-0.2-0.2l-0.3-0.4c0.1-0.1,0.3-0.2,0.4-0.2
						C489.9,296.9,490,297.1,490.1,297.1 M489.2,295c0.4-0.1,0.8-0.5,1-0.7c0,0,0,0.2,0,0.3c-0.2,0.3-0.4,0.6-0.5,1
						c-0.2,0.2-0.5,0.5-0.8,0.5C489,295.8,489.1,295.2,489.2,295 M490.4,293.2c0,0.1-0.1,0.4-0.2,0.6c-0.2,0.3-0.9,0.8-1,0.8
						c-0.1,0-0.1,0-0.1-0.1c0-0.2,0.2-0.7,0.3-0.9C489.8,293.6,490.2,293.4,490.4,293.2 M489.6,293.3L489.6,293.3
						c-0.1-0.1,0.2-0.8,0.2-1.3c0.3-0.1,0.7-0.4,0.7-0.4c0.1,0,0.1,0,0.1,0.1C490.7,292.6,490.4,293,489.6,293.3 M492.5,293.3
						c-0.1,0.2-0.1,0.6-0.1,0.9c-0.1,0.2-0.6,0.7-0.8,0.7c-0.1,0-0.1-0.1-0.1-0.2c0-0.3,0.1-0.7,0.1-0.7c0.1-0.1,0.2-0.2,0.2-0.3
						C492.2,293.7,492.4,293.4,492.5,293.3 M494.3,292.9L494.3,292.9c-0.3,0.2-0.8,0.7-0.8,0.7s-0.2,0-0.4,0.1
						c-0.1,0-0.2,0.2-0.3,0.3c0-0.4,0-0.7,0.3-0.9c0.2-0.2,0.5-0.3,0.5-0.3C493.8,292.8,494,292.8,494.3,292.9 M495.3,292.2
						L495.3,292.2c-0.2,0.1-0.6,0.3-0.8,0.5c0,0-0.5-0.1-0.6-0.2c0.2-0.2,0.5-0.4,0.7-0.6C494.8,291.9,495.2,292,495.3,292.2
						 M495.5,296.8c-0.1,0-0.1-0.1-0.1-0.1c0.2-0.2,0.4-0.5,0.4-0.9l0.2-0.1c0.1,0.3,0.2,0.6,0.3,0.9
						C496.1,296.7,495.8,296.8,495.5,296.8 M496.4,300.2c0,0.1,0.1,0.2,0.1,0.2c0,0.2-0.1,0.3-0.1,0.5l0,0c-0.1-0.2-0.2-0.3-0.4-0.5
						C496.1,300.4,496.3,300.3,496.4,300.2 M496,299.5c0,0,0.2-0.2,0.4-0.3l0,0c0,0.1,0.1,0.4,0,0.7c-0.1,0.1-0.3,0.3-0.5,0.3l0,0
						C496,300,496,299.7,496,299.5 M495.8,298.3c0.1-0.1,0.4-0.1,0.5-0.1c-0.1,0.2-0.1,0.5-0.1,0.7c0,0-0.3,0.2-0.5,0.4
						c0,0-0.1,0-0.1-0.1C495.7,298.9,495.7,298.5,495.8,298.3 M495.6,297.6c-0.2,0.1-0.6,0.4-0.7,0.4c0,0-0.1,0-0.1-0.1
						c0-0.3,0.2-0.6,0.3-0.9c0.2,0.1,0.4,0.1,0.8,0C495.8,297.3,495.6,297.6,495.6,297.6 M494.9,299.4c0,0-0.1,0-0.1-0.1
						c0-0.4,0-0.6,0.1-0.9c0.2-0.1,0.4-0.2,0.5-0.3c0,0.1,0,0.1,0,0.1c-0.1,0.3-0.2,0.6-0.2,1C495.2,299.2,495,299.4,494.9,299.4
						 M495.4,299.5c0,0.1,0.1,0.2,0.3,0.2c0,0.1,0,0.2,0,0.3c-0.1,0-0.1-0.1-0.2-0.1c-0.1-0.1-0.2-0.1-0.2-0.2
						C495.2,299.6,495.3,299.5,495.4,299.5 M494,298.7c0,0.1,0,0.3-0.1,0.3c-0.1,0-0.2,0-0.3,0C493.8,298.9,494,298.7,494,298.7
						 M493.3,298.1c0.1,0,0.3-0.2,0.4-0.2c0,0-0.1,0.4,0,0.8c-0.2,0.2-0.3,0.3-0.4,0.3C493.2,298.9,493.2,298.5,493.3,298.1
						 M493.2,297c0,0,0.3-0.3,0.4-0.5c0,0,0.2,0,0.4,0c-0.1,0.2-0.1,0.4-0.1,0.6c-0.2,0.5-0.5,0.8-0.7,0.8
						C493.1,297.8,493,297.5,493.2,297 M494.6,294.3c0.2,0.1,0.4,0.2,0.6,0.2c0,0-0.4,0.2-0.6,0.7c-0.3,0.1-0.6,0.2-0.9,0.1
						c-0.1,0-0.1,0-0.1-0.1C493.8,295.1,494.2,294.6,494.6,294.3 M493.9,294.2c0.1,0,0.3,0,0.5,0c-0.1,0.1-0.3,0.2-0.5,0.5
						C493.6,294.6,493.8,294.4,493.9,294.2 M495.2,293.3c-0.2,0.2-0.3,0.5-0.6,0.6c-0.2,0.1-0.7,0-0.8,0s-0.1-0.1,0-0.1
						c0.2-0.3,0.6-0.6,0.8-0.7C494.7,293.1,494.9,293.2,495.2,293.3 M495.6,293.1c-0.2,0-0.7-0.2-0.8-0.3v-0.1
						c0.2-0.1,0.6-0.4,0.9-0.4C495.7,292.6,495.7,292.9,495.6,293.1 M495.6,293.6c0,0.1,0,0.2,0,0.3c0,0.1,0,0.3,0,0.4
						c-0.1,0.1-0.6,0-0.9-0.2c0.1,0,0.2-0.1,0.3-0.3s0.3-0.4,0.3-0.4h0.2C495.6,293.4,495.6,293.5,495.6,293.6L495.6,293.6z
						 M494.9,295.4c0-0.2,0.4-0.7,0.7-0.7c0.1,0,0.1,0,0.1,0c0,0.2,0.1,0.5,0.1,0.7C495.6,295.6,494.9,295.5,494.9,295.4
						 M494.1,296.1c-0.1,0-0.3,0.1-0.4,0c0-0.1,0.2-0.4,0.3-0.4s0.3,0,0.5-0.1C494.3,295.8,494.2,296,494.1,296.1 M494.9,295.7
						c0.2,0.1,0.3,0.1,0.5,0.1c0,0.2-0.2,0.6-0.4,0.8c-0.4,0.2-0.7,0.2-0.8,0.2S494.4,296,494.9,295.7 M492.7,296.9L492.7,296.9
						v-1.1c0.4-0.3,0.8-1,0.8-1s0,0,0.1,0c-0.1,0.2-0.2,0.4-0.2,0.6c0,0.2,0.1,0.2,0.3,0.3c-0.2,0.2-0.2,0.4-0.3,0.5
						C493.2,296.5,492.9,296.8,492.7,296.9 M492.6,294.7c0.1-0.5,0.6-0.8,0.7-0.8c0,0.1,0.2,0.2,0.3,0.2c-0.1,0.2-0.2,0.3-0.3,0.5
						c-0.2,0.3-0.5,0.6-0.7,0.8h-0.1C492.5,295.3,492.5,294.9,492.6,294.7 M492.3,297.3c-0.1,0.2-0.5,0.5-0.7,0.5h-0.1
						c0,0,0.2-0.8,0.2-1.2c0.1-0.2,0.5-0.5,0.6-0.6C492.4,296.3,492.4,297.1,492.3,297.3 M492.2,298.8c0,0.1,0.1,0.1,0.2,0.1
						c0,0.1,0,0.2,0,0.3c-0.2,0.1-0.4,0.1-0.6,0.2c-0.1-0.1-0.1-0.2-0.2-0.2C491.7,299.1,492,298.9,492.2,298.8 M491.5,298.1
						c0.3,0,0.5-0.1,0.7-0.3c0,0.1-0.1,0.4-0.1,0.6c-0.2,0.2-0.5,0.4-0.8,0.5c0,0,0-0.1-0.1-0.1
						C491.3,298.6,491.4,298.3,491.5,298.1 M492.3,295.6c-0.2,0.2-0.4,0.4-0.6,0.6c-0.1,0.1-0.2,0.2-0.3,0.2s-0.1-0.1-0.1-0.1
						c0-0.2,0.1-0.6,0.1-0.9c0.3,0,0.6-0.2,0.8-0.4C492.2,295.3,492.3,295.6,492.3,295.6 M490.2,295.6
						C490.1,295.6,490.1,295.5,490.2,295.6c0-0.3,0.1-0.7,0.3-0.9c0.3-0.1,0.6-0.2,0.8-0.4c0,0-0.1,0.2-0.1,0.7
						C491,295.2,490.5,295.6,490.2,295.6 M490.5,295.8c0.3-0.1,0.5-0.2,0.7-0.4c0,0-0.1,0.5-0.2,0.9c-0.2,0.2-0.6,0.5-0.7,0.5
						c0,0-0.1,0-0.1-0.1C490.3,296.5,490.4,296,490.5,295.8 M491.2,297.7l-0.1,0.3c-0.1,0.1-0.1,0.3-0.1,0.5
						c-0.1-0.1-0.3-0.3-0.4-0.5C490.8,298,491.1,297.9,491.2,297.7 M490.5,297.8C490.5,297.8,490.4,297.8,490.5,297.8
						c-0.1,0-0.1,0-0.1,0c0-0.2,0.1-0.5,0-0.6c0.2,0,0.5-0.3,0.7-0.4c0.1,0,0.2,0.1,0.3,0c0,0.1-0.1,0.4-0.1,0.6
						C491,297.5,490.8,297.7,490.5,297.8 M493,298.5c0,0.2,0,0.4-0.1,0.5c-0.1,0-0.2,0-0.3,0.1c0,0,0-0.1,0-0.2
						C492.7,298.8,492.9,298.7,493,298.5 M492.5,298.5C492.5,298.5,492.4,298.5,492.5,298.5c-0.1-0.1-0.2-0.5,0-0.9
						c0.1-0.1,0.2-0.4,0.2-0.5c0.1,0,0.2,0,0.3-0.1c0,0-0.1,0.3-0.1,0.5c0,0.2,0.1,0.3,0.1,0.4C493,298.1,492.8,298.5,492.5,298.5
						 M494.6,297.7c-0.2,0.2-0.4,0.4-0.6,0.6c-0.1,0-0.1,0-0.1-0.1c0-0.3,0-0.6,0.1-0.8l0.2-0.3c0.4,0,0.7-0.2,0.7-0.2l0,0
						C494.7,297.3,494.6,297.7,494.6,297.7 M494.3,298.5c0.1-0.1,0.2-0.2,0.3-0.3c0,0.1,0,0.2,0.1,0.2c-0.1,0.5-0.1,0.8-0.1,0.8l0,0
						c-0.1,0-0.1-0.1-0.2-0.1C494.3,298.9,494.3,298.7,494.3,298.5 M496.7,298.8c-0.1,0-0.1-0.1-0.1-0.1c0-0.3,0.1-0.7,0.2-0.9
						c-0.2,0-0.7,0.1-0.8,0.1c-0.1,0-0.1,0-0.1-0.1c0-0.1,0.3-0.6,0.4-0.8h0.1c0.3,0.5,0.6,0.9,0.8,1.4
						C497.1,298.5,496.8,298.8,496.7,298.8 M497.1,299.3c0-0.2,0-0.3,0-0.4c0.1-0.1,0.2-0.2,0.3-0.3c0.1,0.2,0.2,0.4,0.3,0.7
						C497.6,299.3,497.3,299.4,497.1,299.3 M497.5,300.5c-0.1-0.2-0.1-0.6-0.1-0.9c0.1,0,0.3-0.1,0.5-0.1c0,0.1,0.1,0.2,0.1,0.3
						C497.9,300.1,497.6,300.6,497.5,300.5C497.5,300.6,497.5,300.6,497.5,300.5 M497.3,302.6c0,0.2,0.2,0.5,0.2,0.5
						c-0.1,0.2-0.2,0.3-0.2,0.3c0-0.2,0-0.4-0.1-0.6C497.2,302.8,497.3,302.7,497.3,302.6 M497.3,301.3L497.3,301.3
						c0.1,0.2,0.1,0.4,0.2,0.5c-0.1,0.2-0.2,0.5-0.4,0.7c0-0.1-0.1-0.3-0.1-0.4C497.1,301.8,497.2,301.6,497.3,301.3 M496.8,300.5
						c0.2-0.1,0.3-0.3,0.4-0.4c0,0.3,0.1,0.7,0.1,0.7c-0.1,0.4-0.2,0.7-0.4,0.9c0,0,0,0-0.1,0c0-0.1-0.1-0.2-0.2-0.3
						C496.6,300.8,496.8,300.5,496.8,300.5 M496.7,299.1c0.1,0,0.2-0.1,0.2-0.1c0,0.1,0,0.2,0,0.4c0,0.1,0,0.1,0.1,0.2
						c0,0,0.1,0,0.2,0c0,0.1-0.2,0.4-0.3,0.4c-0.1,0-0.1,0-0.1-0.1C496.7,299.9,496.7,299.4,496.7,299.1 M496.1,290.6
						c-0.1,0-0.1,0.1-0.2,0.2l-0.1-0.2c0.1,0,0.1-0.1,0.1-0.1S496,290.6,496.1,290.6 M496.3,290.8c0,0.1-0.1,0.2-0.1,0.4
						c-0.1,0-0.2,0-0.3,0C495.9,291,496.2,290.8,496.3,290.8 M496.4,289.5c0-0.1,0.3-0.2,0.4-0.2c0,0.2-0.1,0.3-0.1,0.5
						C496.6,289.7,496.4,289.6,496.4,289.5 M496.6,290c-0.1,0.2-0.1,0.3-0.2,0.5c-0.1-0.1-0.3-0.2-0.3-0.3c0.1-0.2,0.2-0.2,0.4-0.3
						C496.4,289.9,496.5,290,496.6,290 M495.6,291.3c0,0,0.3,0.1,0.5,0.1c-0.1,0.2-0.2,0.4-0.2,0.7c0,0-0.7-0.3-0.9-0.4
						c0,0,0,0,0-0.1l0.2-0.2C495.2,291.4,495.4,291.4,495.6,291.3 M495.6,291c-0.1,0.1-0.2,0.2-0.4,0.2c0-0.1,0-0.4,0-0.5
						c0.1,0,0.1,0,0.2,0C495.5,290.8,495.5,290.9,495.6,291 M494.5,289.9c-0.1-0.1-0.5-0.6-0.5-0.6s0-0.1,0.1-0.1
						c0.3,0,0.8,0.7,0.8,0.7C494.7,290,494.6,290,494.5,289.9 M495,290.1c0.1,0.1,0.3,0.2,0.6,0.2c-0.1,0.1-0.2,0.2-0.4,0.2
						c-0.1,0-0.4-0.1-0.5-0.3C494.8,290.2,494.9,290.1,495,290.1 M492.5,292.5c0.3-0.1,0.7-0.3,0.7-0.3c0,0.1-0.1,0.4-0.1,0.4
						s-0.1,0.1-0.4,0.3c-0.2,0.2-0.6,0.5-0.7,0.5c-0.1,0,0-0.1,0-0.2s0.2-1.1,0.3-1.1l0.2-0.2c0,0-0.1,0.4-0.1,0.6
						C492.4,292.5,492.4,292.5,492.5,292.5 M491.8,292.1C491.8,292.1,491.9,292.1,491.8,292.1c-0.1,0.5-0.2,0.9-0.3,1.5
						c0,0.2-0.3,0.5-0.9,0.7c-0.1,0-0.1,0-0.1,0c0-0.1,0-0.1,0-0.2c0.2-0.4,0.3-0.7,0.3-1C491.2,292.7,491.5,292.4,491.8,292.1
						 M491.1,291.3c0.2-0.1,0.6-0.3,0.6-0.3s-0.2,0.6-0.1,0.9c-0.2,0.2-0.4,0.4-0.6,0.6C491,292.2,491.1,291.6,491.1,291.3
						 M487,294.9c0-0.2,0-0.5,0.1-0.8c0.1-0.1,0.4-0.2,0.5-0.3c0.1,0.1,0.2,0.2,0.2,0.2c-0.1,0.2-0.2,0.4-0.3,0.6
						C487.5,294.8,487.3,294.9,487,294.9C487,295,487,294.9,487,294.9 M487.6,295c0,0,0,0.3,0.1,0.3s0.3,0,0.3,0
						c0,0.1,0,0.3-0.1,0.4l0,0c-0.3-0.2-0.6-0.3-1-0.4C487.3,295.3,487.6,295,487.6,295 M486.7,294.9c0,0-0.2,0.1-0.4,0.1
						c-0.1,0-0.1,0-0.1,0c0-0.1,0-0.3,0-0.4c0.2-0.1,0.6-0.4,0.6-0.4S486.6,294.5,486.7,294.9 M486.1,295.6c2.1,0,4.5,3,5.3,4
						l-0.4,0.2c-0.8-1-3-3.8-4.9-3.8c-1.5,0-2,0.9-2,1.7l0,0c0,0.8,0.9,3.2,4.7,3.2c0.8,0,1.2-0.2,2.6-0.9c1-0.5,1.3-0.6,2.1-0.6
						c1.8,0,3.4,2.4,3.4,4.2c0,1-0.3,1.9-1,2.5c-0.5,0.5-1.3,0.7-2.1,0.7c-1.1-0.1-1.7,0.2-2.3,0.4c-0.5,0.2-0.9,0.4-1.6,0.4
						c-0.8,0-1.8-0.5-2.5-1.4c-0.7-0.9-1.2-2.1-1.2-3.2v-0.1c0-0.5,0.2-1,0.3-1.4l0.4,0.1c-0.1,0.4-0.2,0.8-0.3,1.3v0.1
						c0,1.1,0.4,2.1,1.1,3c0.6,0.8,1.4,1.2,2.1,1.2c0.6,0,1-0.2,1.4-0.3c0.6-0.2,1.3-0.5,2.5-0.4c0.7,0.1,1.3-0.1,1.8-0.5
						c0.5-0.5,0.8-1.3,0.8-2.2l0,0c0-1.7-1.4-3.8-3-3.8c-0.9,0-1.6,0.4-2.3,0.8c-0.7,0.4-1.4,0.8-2.4,0.8c-1.7,0-3.2-0.5-4.1-1.4
						c-0.8-0.8-1.1-1.7-1.1-2.2C483.6,296.6,484.4,295.6,486.1,295.6 M485.9,295.2L485.9,295.2c-0.3,0-0.4,0-0.6,0.1h-0.1
						c0-0.1,0.1-0.3,0.2-0.4c0.1,0,0.3-0.1,0.5-0.1C485.8,294.8,485.8,295.1,485.9,295.2 M480.9,305c-0.1,0-0.6,0.2-0.7,0.3
						c-0.4-0.1-0.8-0.2-1-0.4v-0.1c0.5-0.3,1.3-0.3,1.7-0.1C480.8,304.8,480.8,304.9,480.9,305 M477.8,305.8
						C477.7,305.8,477.8,305.8,477.8,305.8s0.8-0.2,0.9-0.3c0.1,0.1,0.5,0.2,0.8,0.3c-0.4,0.2-0.7,0.4-0.7,0.4
						C478.4,306.1,478.1,306,477.8,305.8 M475.6,304.9c0.2-0.1,0.8,0,0.8,0c0.2,0.3,0.6,0.6,0.9,0.7c-0.1,0.1-0.1,0.2,0,0.2
						C476.6,305.7,475.8,305.2,475.6,304.9C475.5,304.9,475.5,304.9,475.6,304.9 M477.6,304.4c-0.2-0.1-0.5-0.3-0.8-0.6v-0.1
						c0.6,0,1.3,0.3,1.7,0.5C478.4,304.2,477.9,304.3,477.6,304.4 M478.3,305.3L478.3,305.3c-0.2,0.1-0.4,0.1-0.6,0.1
						c-0.3-0.1-0.7-0.4-0.9-0.5c0,0,0,0,0-0.1c0.1,0,0.4-0.1,0.6-0.1C477.7,305,478,305.2,478.3,305.3 M478.6,304.9
						c0.1,0,0.2,0.2,0.4,0.2c-0.1,0-0.1,0.1-0.2,0.1c-0.3-0.2-0.7-0.4-1-0.6c0,0,0,0,0-0.1c0.4-0.1,0.9-0.2,1.3-0.1
						c-0.1,0.1-0.4,0.2-0.5,0.3C478.6,304.9,478.6,304.9,478.6,304.9 M475.8,303.1c0.2,0,0.5,0.2,0.7,0.3c-0.1,0-0.1,0.1-0.1,0.1
						c-0.1-0.1-0.4-0.1-0.5-0.1S475.7,303.2,475.8,303.1C475.7,303.1,475.7,303.1,475.8,303.1 M476.5,303.9c0.2,0.2,0.5,0.5,0.8,0.7
						c-0.2,0-0.6,0.1-0.7,0.1c-0.2-0.1-0.9-0.6-0.9-0.8c0,0,0,0,0-0.1C475.8,303.7,476.2,303.8,476.5,303.9 M474.8,303.2
						c0.2,0,0.5,0,0.6,0.1l0.2,0.2c-0.1,0-0.2,0.1-0.3,0.1c-0.1-0.1-0.2-0.1-0.4-0.1C474.9,303.5,474.8,303.3,474.8,303.2
						L474.8,303.2 M475.3,303.9c0.1,0.2,0.4,0.5,0.6,0.7c-0.2,0-0.4,0-0.5,0c-0.2-0.2-0.6-0.6-0.8-0.8v-0.1
						C474.9,303.8,475.2,303.8,475.3,303.9 M478.5,306.7c-0.3,0-1.1-0.3-1.4-0.6c0,0,0.2,0,0.4,0c0.2,0.2,0.8,0.4,1.2,0.4
						C478.5,306.5,478.5,306.6,478.5,306.7 M480,307.1c-0.6,0-0.9,0-1.1-0.3c-0.1-0.1,0-0.1,0.1-0.2c0.2,0.1,0.7,0.3,1,0.3
						C480,307,480,307,480,307.1 M480,315.7c0-0.1,0.1-0.2,0.2-0.2c0.2,0,0.2,0.1,0.2,0.2c0,0.2-0.1,0.3-0.2,0.3
						C480.1,315.9,480,315.9,480,315.7 M471.7,311.4L471.7,311.4c-0.2-0.2-0.6-0.5-1.1-0.9s-0.9-1-0.9-1.7c0-0.5,0.4-1,0.9-1
						c0.7,0,1.1,0.5,1.4,1c0.1,0.1,0.1,0.3,0.1,0.5C472.1,309.6,471.9,310.8,471.7,311.4 M477.1,319c0-0.2,0.2-0.3,0.2-0.8
						c0-0.7-0.8-1.3-1.3-1.6c-0.3-0.9-1.3-1.3-2.3-1c-0.7-0.8-1.3-2.3-1.5-3.7c0.3-0.8,0.5-1.7,0.6-2.6c0.2-0.3,0.4-0.8,0.3-1.3
						c1.1,0.4,3.3,0.9,5.9,0.9c1.7,0,3.1-0.3,4.1-0.6l0,0c-0.6,0.7-1.3,2.6-2.2,3.7c-0.9,1.1-1.7,2.1-1.7,3.2c0,0.7,0.3,0.9,0.3,1.3
						c0,0.1,0,0.2,0,0.6c0,0.2,0.1,0.4,0.2,0.7c-0.1,0.2-0.1,0.4-0.1,0.6c0,0.2,0.1,0.5,0.1,0.6L477.1,319L477.1,319z M475.9,318.6
						c0-0.2-0.1-0.4-0.1-0.5c0.2-0.2,0.3-0.1,0.3,0.1C476.1,318.4,476,318.5,475.9,318.6 M476.2,317.8c0,0,0.2-0.2,0.2-0.3
						c0.2,0.2,0.4,0.4,0.4,0.7c0,0.1,0,0.2-0.1,0.2c-0.1-0.2-0.2-0.4-0.4-0.4C476.3,317.9,476.2,317.8,476.2,317.8 M476.3,318.6
						c0.1,0.1,0.1,0.2,0.1,0.3c-0.1,0.1-0.2,0.1-0.4,0.1C476.1,318.8,476.2,318.7,476.3,318.6 M483.1,319c-0.2-0.2-0.3-0.7,0-1
						c-0.2-0.2-0.3-0.4-0.3-0.7c0-0.2,0-0.3,0.1-0.5c-0.3,0.1-0.4,0.3-0.4,0.6c0,0.2,0.1,0.4,0.2,0.5c-0.2,0.3-0.3,0.8-0.2,1h-2.1
						c-0.2-0.2-0.3-0.5-0.3-0.7c0-0.3,0.1-0.5,0.1-0.6c-0.2-0.3-0.3-0.8-0.1-1.2c0.1-0.2,0.6-0.2,0.6-0.7c0-0.2-0.1-0.5-0.5-0.5
						c-0.2,0-0.4,0.2-0.4,0.5c-0.1-0.1-0.1-0.3-0.1-0.5c0-1.1,0.7-1.7,1.8-3.2c0.8-1.1,1.6-3,2.3-3.9c0.3,0,0.6,0,1,0
						c0.1,0,0.2,0,0.4,0c-0.4,1.1-1.1,2.7-1.4,3.4c-0.3,0.7-0.2,1.5,0,2.1c1.2-0.8,4-3.2,5.4-4.7c0.1,0.1,0.2,0.1,0.2,0.2
						c-1.9,2.6-5.8,5.4-6.2,5.8c-0.4,0.4-0.7,0.8-0.7,1.3c0.9-0.4,1.9,0,2,0.8c0,0.2,0,0.4,0.2,0.4c0.3,0.1,0.5,0.1,0.6,0.3
						c-0.1,0-0.2,0.2-0.3,0.3c-0.1-0.1-0.3-0.2-0.4-0.2c-0.1-0.2-0.3-0.5-0.6-0.6c-0.1-0.3-0.3-0.7-0.6-0.7c-0.2,0-0.3,0.1-0.3,0.1
						c0.3,0,0.5,0.4,0.6,0.7c0.2,0.1,0.5,0.3,0.5,0.5c0,0.1-0.1,0.2-0.2,0.2c0,0.2,0.1,0.4,0,0.6c0,0.1-0.1,0.2-0.2,0.3L483.1,319z
						 M503.7,319c0.2-0.6-0.1-1.3-0.5-1.5c-0.1-0.2-0.6-0.5-0.8-0.7c-0.4-0.3-0.5-1.1-1.5-1.1c-0.5,0-0.5,0.1-0.9,0.1
						c-0.5,0-1.5-1.8-1.8-3.1c-0.4-2.1-1.1-4.2-1.6-5.3c0.8-0.9,2.4-3,2.4-5c0-1.9-0.4-3-1-3.9c0.1-0.1,0.3-0.2,0.4-0.2
						c0.3,0,0.7,0.2,1.2,0.2c0.6,0,1.1-0.3,1.1-0.9c0-0.3-0.1-0.5-0.2-0.5c0.2-0.8-0.1-1.4-0.5-1.5c-0.1,0.4-0.2,0.7-0.4,0.9
						c-0.4-0.3-0.6-0.5-0.6-0.6c0.2,0.1,0.4,0.1,0.6,0.1c-0.1-0.8-0.1-1.3-0.1-1.8l0.1-0.1c0.1,0.3,0.3,0.6,0.5,0.6
						c0.1,0,0.1,0,0.2,0c0,0,0.1,0.2,0.2,0.2s0.2,0,0.3-0.1c-0.1,0.2-0.1,0.5,0,0.8c0.4,0,0.9-0.2,1.3-0.8c0.8,0.2,1.2-0.5,1.7-1.4
						c0.5-0.2,0.8-0.5,0.8-1.1c0-0.5-0.6-0.9-0.7-1.1c-0.3-0.6-0.8-1-1.5-1.2c-0.3-0.4-0.8-0.6-1-0.7c-0.1-0.4-0.5-0.7-0.9-0.7
						c-1.5-0.9-3.3-1.2-3.3-1.2c-0.3-0.3-0.9-0.6-1.4-0.6c-4.8,0-7.9,5.3-12,7.7c-2.3,1.4-3.8,1.5-8.5,1.5c-3.6,0-7.4-0.7-9.3-0.7
						c-3.4,0-4.6,1.5-6.3,1.5c-2.2,0-8.3-2.9-8.3-6.5c0-1.1,0.4-2.2,1.7-2.2c1.1,0,1.4,0.7,1.4,1.1c0,0.5-0.1,0.7-0.1,1
						c0,0.5,0.3,0.9,0.6,1.2c0.2,0.2,0.4,1,0.8,1c0.6,0,1.1-1.4,1.1-2c0-0.5-0.6-0.9-0.7-1.3c-0.2-1-0.7-2.6-3.2-2.6
						c-1.8,0-3.5,1.2-3.5,3.8c0,3.6,4.2,7.4,9.1,8.9c0.3,0.1,0.7,0.2,1,0.3c0.1,0,0.1,0,0.1,0.1c-0.2,0.4-0.1,0.7-0.1,0.9
						c-0.7,0.5-1.5,1.8-1.5,3.7c0,1.5-0.2,3-0.8,3.6c-0.4,0.5-1.4,0.7-2.3,1.3c-1.1,0.7-1.5,1.4-1.5,3c0,3-0.4,3.5-0.4,5
						c0,0.8,0.1,1.2,0.4,1.8l0,0h-1.7v1.1h52.9v-1.1h-1V319z"/>
				</g>
			</g>
			<path id="path11914" class="st0" d="M466.8,299.6c0.6,0,0.8,0.3,0.8,0.8c0,0.6-0.6,1.2-0.6,2.2c0,0.8,0.8,1.2,0.8,1.8
				c0,0.4-0.1,0.7-0.6,0.7c-0.6,0-1.6-1.4-1.6-3.3C465.4,300.4,466.2,299.6,466.8,299.6 M467.1,305.4c0.5,0,0.9-0.3,0.9-1
				c0-0.9-0.8-1.1-0.8-1.9c0-0.9,0.6-1.5,0.6-2.2c0-0.7-0.4-1-1.1-1c-0.9,0-1.8,0.9-1.8,2.4C465,304,466.2,305.4,467.1,305.4"/>
			<path id="path11916" class="st0" d="M454.7,312.1c0-0.2,0.2-0.7,0.2-1c0-0.1-0.2-0.1-0.2-0.1s-0.3,0.7-0.3,1.4c0,0.5,0,0.7,0,0.9
				c0,0.4-0.1,0.9-0.1,0.9h0.1c0,0,0.2-0.8,0.3-1.1C454.7,312.9,454.7,312.6,454.7,312.1"/>
			<path id="path11918" class="st0" d="M454.8,314.9c0,0.1,0.2,0.2,0.2,0.2s0-0.7,0.2-1.4c0.3-1.3,0.5-1.9,0.2-1.9
				c-0.1,0-0.1,0-0.1,0.2c-0.1,0.6-0.4,1.2-0.5,1.7C454.8,314,454.8,314.6,454.8,314.9"/>
			<path id="path11920" class="st0" d="M456.5,312.4c-0.1,0.7-0.6,1.2-0.7,1.9c-0.1,0.5,0.1,0.9,0.2,1.3c0,0.1,0.1,0.1,0.1,0.1
				c0.1,0,0.1-0.1,0-0.3c-0.1-0.4-0.1-0.8,0-1.2c0.2-0.6,0.4-1.1,0.5-1.8C456.6,312.3,456.5,312.3,456.5,312.4"/>
			<path id="path11922" class="st0" d="M471.8,315.5c0.5,1,1.4,1.7,1.5,1.7s0.1,0,0.1-0.1c0-0.1-0.7-0.6-1.1-1.4
				c-0.3-0.6-0.6-1.3-0.7-1.5c-0.1-0.1-0.3-0.3-0.4-0.3c-0.1,0,0,0,0,0.1C471.4,314.5,471.5,314.9,471.8,315.5"/>
			<path id="path11924" class="st0" d="M496.3,314.7C496.2,314.7,496.2,314.8,496.3,314.7c0.4,0.8,0.4,1.2,0.4,2
				c0,0.3,0.5,0.9,0.9,1.2c0,0,0,0,0-0.1c-0.2-0.3-0.6-0.8-0.6-1C497,315.8,496.9,315.3,496.3,314.7"/>
			<path id="path11926" class="st0" d="M470.8,315.8c-0.1-0.1-0.2-0.1-0.2,0s1.2,1.6,1.4,1.8c0.2,0.2,1,0.5,1.2,0.5
				c0.2,0.1,0.3,0.2,0.4,0.2v-0.2c-0.1,0-0.5-0.3-0.8-0.4C472.4,317.5,470.8,315.8,470.8,315.8"/>
			<path id="path11928" class="st0" d="M495.7,317c-0.1,0-0.2-0.1-0.2-0.2s0-0.2,0.2-0.2c0.1,0,0.2,0.1,0.2,0.2S495.8,317,495.7,317
				 M495.7,316.3c-0.2,0-0.4,0.2-0.4,0.4c0,0.2,0.2,0.5,0.4,0.5s0.4-0.2,0.4-0.4C496.1,316.6,495.9,316.3,495.7,316.3"/>
			<path id="path11930" class="st0" d="M480.9,317.7c0-0.6,0.1-0.7,0.3-1h-0.1c-0.3,0-0.5,0.3-0.5,1.1c0,0.5,0.1,1,0.5,1
				c0.2,0,0.3,0,0.4-0.1C481.1,318.5,480.9,318.3,480.9,317.7"/>
			<path id="path11932" class="st0" d="M456,311.5c0-0.1,0.1-0.2,0.2-0.2c0.1,0.1,0.2,0.3,0.3,0.3v0.1c-0.1,0.2-0.2,0.3-0.4,0.2
				C456,311.9,456,311.7,456,311.5 M456.9,310.7c0.2,0,0.3,0.2,0.3,0.3c0,0.2-0.1,0.3-0.3,0.3c-0.2,0-0.3-0.2-0.3-0.3
				C456.6,310.8,456.7,310.7,456.9,310.7 M456,312.2c0.3,0.1,0.7,0,0.8-0.3c0-0.1,0.1-0.1,0.1-0.2c0.3,0,0.6-0.3,0.6-0.6
				c0-0.3-0.3-0.6-0.6-0.6s-0.6,0.3-0.6,0.6c-0.2,0-0.4,0.2-0.5,0.4C455.6,311.7,455.7,312,456,312.2"/>
			<path id="path11934" class="st0" d="M455.4,316.5c-0.2,0-0.3-0.1-0.3-0.3c0-0.2,0.1-0.2,0.3-0.2c0.2,0,0.3,0.1,0.3,0.3
				C455.7,316.4,455.6,316.5,455.4,316.5 M455.5,315.8c-0.3,0-0.6,0.1-0.6,0.4c0,0.3,0.3,0.5,0.6,0.5c0.3,0,0.6-0.2,0.6-0.5
				C456,316,455.8,315.8,455.5,315.8"/>
			<path id="path11936" class="st0" d="M470.1,311.8c0.2,0,0.4,0.2,0.4,0.4c0,0.2-0.2,0.4-0.4,0.4c-0.2,0-0.4-0.2-0.4-0.4
				C469.6,311.9,469.8,311.8,470.1,311.8 M470.8,313.5c0,0.2-0.2,0.4-0.4,0.4c-0.2,0-0.4-0.2-0.4-0.4c0-0.2,0.2-0.4,0.4-0.4
				C470.6,313.1,470.8,313.3,470.8,313.5 M469.9,312.9c-0.2,0.1-0.3,0.4-0.3,0.6c0,0.4,0.4,0.8,0.8,0.8s0.7-0.4,0.7-0.8
				c0-0.4-0.3-0.6-0.6-0.7c0.2-0.1,0.3-0.4,0.3-0.6c0-0.4-0.3-0.7-0.7-0.7s-0.7,0.3-0.7,0.7C469.4,312.5,469.6,312.8,469.9,312.9"/>
			<path id="path11938" class="st0" d="M483,313.9c0.2,0,0.3,0.1,0.3,0.3c0,0.2-0.1,0.3-0.3,0.3c-0.2,0-0.3-0.1-0.3-0.3
				C482.8,314.1,482.9,313.9,483,313.9 M482.4,315.2c-0.2,0-0.3-0.1-0.3-0.3s0.1-0.3,0.3-0.3c0.2,0,0.3,0.1,0.3,0.3
				C482.7,315,482.6,315.2,482.4,315.2 M483,314.8L483,314.8L483,314.8c0.3-0.1,0.6-0.3,0.6-0.6c0-0.3-0.2-0.5-0.5-0.5
				c-0.3,0-0.6,0.2-0.6,0.5l0,0h-0.1c-0.3,0-0.6,0.2-0.6,0.6c0,0.3,0.3,0.6,0.6,0.6S483,315.2,483,314.8"/>
			<path id="path11940" class="st0" d="M499.8,290.4c0-0.1-0.1-0.2-0.2-0.2c-0.1,0-0.2,0.1-0.2,0.2c0,0.1,0.1,0.2,0.2,0.2
				C499.7,290.7,499.8,290.6,499.8,290.4"/>
			<g>
				<g id="g11944">
					<path id="path11942" class="st0" d="M455.3,327.4V322h-1.2v6.6h5.8v-1.1L455.3,327.4L455.3,327.4z"/>
				</g>
			</g>
			<g>
				<g id="g11948">
					<path id="path11946" class="st0" d="M480.9,323.1V322h-7.1v6.6h7.1v-1.1H475v-1.7h4.8v-1.1H475v-1.6
						C475,323.1,480.9,323.1,480.9,323.1z"/>
				</g>
			</g>
			<g>
				<g id="g11952">
					<path id="path11950" class="st0" d="M498.7,323c-1.5,0-2.8,0.9-2.8,2.3s1.3,2.3,2.8,2.3s2.8-0.9,2.8-2.3S500.2,323,498.7,323
						 M498.7,328.7c-2.3,0-4.1-1.4-4.1-3.4s1.9-3.4,4.1-3.4c2.3,0,4.1,1.4,4.1,3.4S501,328.7,498.7,328.7"/>
				</g>
			</g>
		</g>
	</g>
</g>
</svg>
