<?xml version="1.0" encoding="utf-8"?>
<!-- Generator: Adobe Illustrator 24.0.0, SVG Export Plug-In . SVG Version: 6.00 Build 0)  -->
<svg version="1.1" id="Layer_1" xmlns="http://www.w3.org/2000/svg" xmlns:xlink="http://www.w3.org/1999/xlink" x="0px" y="0px"
	 viewBox="0 0 809.4 264.5" style="enable-background:new 0 0 809.4 264.5;" xml:space="preserve">
<style type="text/css">
	.st0{fill:#FFFFFF;}
	.st1{font-family:'Helvetica';}
	.st2{font-size:48.7405px;}
</style>
<rect x="-111.6" y="-491.1" width="705.6" height="366.4"/>
<g id="xoPJ1H_1_">
	<g>
		<path class="st0" d="M538.5,106c-13.1-23.9-26.3-47.7-39.6-71.5c-2.8-5-7.1-8.6-12.6-9.7c-5.1-1-10.4-0.9-16.4-1.3
			c1.5,2.7,2.4,4.6,3.4,6.4c13.8,25,27.6,50,41.5,74.9c1.3,2.3,1.5,4.1,0.1,6.5c-9.5,16.8-18.8,33.6-28.1,50.4
			c-5.6,10.1-11.2,20.2-17,30.7c4,0,7.4,0.1,10.8,0c7.9-0.2,14.2-3.7,18.1-10.5c13.4-23.8,26.6-47.8,39.8-71.8
			C539.1,109,539.1,107,538.5,106z"/>
		<path class="st0" d="M469.9,23.5c6,0.4,11.3,0.3,16.4,1.3c5.5,1.1,9.8,4.7,12.6,9.7c13.2,23.8,26.5,47.6,39.6,71.5
			c0.6,1.1,0.6,3.1,0,4.2c-13.2,24-26.4,47.9-39.8,71.8c-3.9,6.8-10.2,10.3-18.1,10.5c-3.4,0.1-6.8,0-10.8,0
			c5.9-10.6,11.4-20.7,17-30.7c9.3-16.8,18.7-33.7,28.1-50.4c1.4-2.4,1.2-4.2-0.1-6.5c-13.9-24.9-27.7-49.9-41.5-74.9
			C472.4,28.1,471.4,26.2,469.9,23.5z"/>
		<g>
			<g>
				<path class="st0" d="M503.2,105.5c-14.3-26.1-28.9-52.1-43.1-78.2c-1.5-2.8-3.2-3.5-6.2-3.5c-55.5,0.1-110.9,0.1-166.4,0.1
					c-10.8,0-17,6.3-17.1,17.1c0,44.8,0,89.6,0,134.4c0,10.8,6.2,17.1,17.1,17.1c55.5,0,110.9,0,166.4,0c1.3,0,2.7,0,4,0
					c15.3-27.5,30.6-54.9,45.7-82.4C504.2,108.9,503.9,106.7,503.2,105.5z M357.6,146.3c-4.2,0-8.4,0.2-12.6-0.1
					c-1-0.1-2.1-1.5-2.7-2.5c-10.4-16.6-20.7-33.2-31-49.8c-0.4-0.6-0.8-1.3-1.8-2.8c0,18.9,0,36.8,0,55c-4.3,0-8.3,0-12.6,0
					c0-24.8,0-49.8,0-75.3c4.1,0,8.5-0.2,12.8,0.1c1,0.1,2.1,1.7,2.9,2.9c10.3,16.5,20.5,33,30.7,49.5c0.4,0.7,0.8,1.3,1.8,2.9
					c0-19,0-37,0-55.4c4.5,0,8.4,0,12.5,0C357.6,95.8,357.6,120.7,357.6,146.3z M384,146c-4.2,0-8.4,0-12.9,0c0-25,0-50,0-75.3
					c4.4,0,8.5,0,12.9,0C384,95.8,384,120.8,384,146z M458.2,146.1c-4.5,0-8.7,0-13.5,0c0-11.3,0-22.4,0-34c-9,0-17.5,0-26,0
					c-8.1,0-8.1,0-8.1,8.3c0,8.5,0,17,0,25.7c-4.5,0-8.6,0-12.9,0c0-24.9,0-49.9,0-75.2c4.1,0,8.2,0,12.9,0c0,9.7,0,19.5,0,29.4
					c11.5,0,22.5,0,34,0c0-9.8,0-19.4,0-29.4c4.8,0,9.1,0,13.6,0C458.2,95.9,458.2,120.8,458.2,146.1z"/>
			</g>
		</g>
	</g>
</g>
<text transform="matrix(0.9848 0 -0.1736 0.9848 330.0861 240.9981)" class="st0 st1 st2">SBIR</text>
</svg>
