<?xml version="1.0" encoding="utf-8"?>
<!-- Generator: Adobe Illustrator 24.0.0, SVG Export Plug-In . SVG Version: 6.00 Build 0)  -->
<svg version="1.1" id="Layer_1" xmlns="http://www.w3.org/2000/svg" xmlns:xlink="http://www.w3.org/1999/xlink" x="0px" y="0px"
	 viewBox="0 0 1272 846.4" style="enable-background:new 0 0 1272 846.4;" xml:space="preserve">
<style type="text/css">
	.st0{fill:none;stroke:#FFFFFF;stroke-miterlimit:10;}
	.st1{fill:#FFFFFF;}
	.st2{font-family:'Ayuthaya';}
	.st3{font-size:36px;}
	.st4{fill:#F7A7A2;stroke:#231F20;stroke-miterlimit:10;}
	.st5{fill:#7CC255;stroke:#231F20;stroke-miterlimit:10;}
	.st6{font-size:28px;}
	.st7{fill:#49C4D8;stroke:#231F20;stroke-miterlimit:10;}
	.st8{fill:#FFD35C;stroke:#231F20;stroke-miterlimit:10;}
</style>
<line class="st0" x1="313.1" y1="688.4" x2="313.1" y2="88.4"/>
<line class="st0" x1="715.8" y1="688.4" x2="715.8" y2="88.4"/>
<line class="st0" x1="1118.5" y1="688.4" x2="1118.5" y2="88.4"/>
<text transform="matrix(1 0 0 1 215.9338 56.3854)" class="st1 st2 st3">Discovery</text>
<text transform="matrix(1 0 0 1 597.0225 56.3856)" class="st1 st2 st3">Preclinical</text>
<text transform="matrix(1 0 0 1 1043.021 56.3858)" class="st1 st2 st3">Phase 1</text>
<circle class="st4" cx="205.5" cy="747.8" r="22.5"/>
<circle class="st5" cx="569.5" cy="747.8" r="22.5"/>
<text transform="matrix(1 0 0 1 430.0156 813.3815)" class="st1 st2 st6">GASTROENTEROLOGY</text>
<polygon class="st1" points="123.3,688.4 74.3,95.8 123.3,95.8 "/>
<text transform="matrix(4.489659e-11 -1 1 4.489659e-11 49.2681 625.4541)" class="st1 st2 st3">Population Diversity</text>
<text transform="matrix(1 0 0 1 35.9485 813.3812)" class="st1 st2 st6">CARDIOLOGY/METABOLIC</text>
<circle class="st7" cx="866.1" cy="747.8" r="22.5"/>
<text transform="matrix(1 0 0 1 756.8831 813.3808)" class="st1 st2 st6">IMMUNOTHERAPY</text>
<circle class="st4" cx="308.1" cy="266.6" r="22.5"/>
<circle class="st5" cx="318.1" cy="392.1" r="22.5"/>
<circle class="st5" cx="308.1" cy="467.2" r="22.5"/>
<circle class="st7" cx="697.3" cy="403.7" r="22.5"/>
<circle class="st8" cx="1141" cy="747.8" r="22.5"/>
<text transform="matrix(1 0 0 1 1040.2969 813.3807)" class="st1 st2 st6">GENE THERAPY</text>
<circle class="st8" cx="336.6" cy="435.1" r="22.5"/>
</svg>
