<?xml version="1.0" encoding="utf-8"?>
<!-- Generator: Adobe Illustrator 23.1.1, SVG Export Plug-In . SVG Version: 6.00 Build 0)  -->
<svg version="1.1" id="Layer_1" xmlns="http://www.w3.org/2000/svg" xmlns:xlink="http://www.w3.org/1999/xlink" x="0px" y="0px"
	 viewBox="0 0 809.4 264.5" style="enable-background:new 0 0 809.4 264.5;" xml:space="preserve">
<style type="text/css">
	.st0{fill:#FFFFFF;}
</style>
<g id="Nav">
	<g id="NAV">
		<g id="Group" transform="translate(100.500000, 64.000000)">
			<g id="Imported-Layers" transform="translate(0.250000, 0.225500)">
				<path id="Fill-1" class="st0" d="M205.9,111.9l-8.7-15c4.1-7.8,4.1-16.8,4.1-28.7c0-15,0-25.9-8.7-35c-6-6.4-13.6-9.6-23.6-9.6
					c-10,0-17.8,3.6-23.6,9.6c-8.7,8.7-8.7,19.6-8.7,35c0,15-0.4,25.9,8.7,35c6.4,6.4,13.6,9.6,23.6,9.6c2.7,0,4.9-0.4,7.3-0.9
					L205.9,111.9L205.9,111.9z M157.7,92.8c-3.1-3.6-4.1-7.8-4.1-24.5s0.9-20.9,4.1-24.5c2.2-2.7,6.4-4.5,10.9-4.5s8.7,1.8,10.9,4.5
					c3.2,3.6,4.1,7.8,4.1,24.5s-0.9,20.9-4.1,24.5c-2.2,2.7-6.4,4.5-10.9,4.5S160,95.5,157.7,92.8L157.7,92.8z"/>
				<path id="Fill-2" class="st0" d="M405.4,24.6h16.8v87.3h-16.8V24.6z"/>
				<path id="Fill-3" class="st0" d="M-1,112.8c-13.2,0-23.2-2.7-31.8-11.4l10.9-10.9c5.4,5.4,13.2,7.3,20.9,7.3
					c10,0,15.4-3.6,15.4-10.9c0-3.1-0.9-5.4-2.7-7.3c-1.8-1.8-3.6-2.2-7.8-3.1l-10.5-1.4c-7.3-0.9-13.2-3.6-16.8-7.3
					c-4.1-4.1-6.4-10-6.4-17.3c0-15.4,11.4-26.3,30.5-26.3c11.8,0,20.9,2.7,28.2,10L18.2,44.6c-5.4-5.4-12.3-6-17.8-6
					c-9.1,0-13.6,4.9-13.6,10.9c0,2.2,0.9,4.5,2.7,6.4c1.8,1.8,4.5,2.7,8.2,3.6L8.1,61c8.2,0.9,13.2,3.1,16.8,6.9
					c4.5,4.5,6.9,10.9,6.9,18.7C31.8,103.3,17.3,112.8-1,112.8"/>
				<path id="Fill-4" class="st0" d="M56.3,111.9V24.6H114v15H73.5v20.5H108v15.5H73.5V97H114v15H56.3"/>
				<path id="Fill-5" class="st0" d="M259,112.8c-17.8,0-32.3-12.3-32.3-30.9V24.6h17.3v56.8c0,10,6,15.9,15,15.9c9,0,15-6,15-15.9
					V24.6h16.8v57.3C290.9,100.6,276.8,112.8,259,112.8"/>
				<path id="Fill-6" class="st0" d="M371.7,103.3c-6,6.4-13.6,9.6-23.6,9.6c-10,0-17.8-3.6-23.6-9.6c-8.7-8.7-8.7-19.6-8.7-35
					c0-15-0.5-25.9,8.7-35c6-6.4,13.6-9.6,23.6-9.6c10,0,17.3,3.6,23.6,9.6c8.7,8.7,8.7,19.6,8.7,35
					C380.4,83.2,380.4,94.1,371.7,103.3 M359,43.7c-2.2-2.7-6.4-4.5-10.9-4.5s-8.7,1.8-10.9,4.5c-3.1,3.6-4.1,7.8-4.1,24.5
					s0.9,20.9,4.1,24.5c2.2,2.7,6.4,4.5,10.9,4.5s8.7-1.8,10.9-4.5c3.1-3.6,4.1-7.8,4.1-24.5C363.2,51.5,362.3,47.3,359,43.7"/>
				<path id="Fill-7" class="st0" d="M502.7,111.9l-4.9-15.4h-30.9l-5.4,15.4h-17.8l31.8-87.3h13.2l31.8,87.3H502.7L502.7,111.9z
					 M482.2,50l-10.9,31.8h21.8L482.2,50L482.2,50z"/>
				<path id="Fill-8" class="st0" d="M620.5,24.6h21.8v21.8h-21.8V24.6z"/>
				<path id="Fill-9" class="st0" d="M565.9,93.2V24.6H555v79.5L565.9,93.2"/>
				<path id="Fill-10" class="st0" d="M573.6,101l-10.9,10.9h79.5V101H573.6"/>
				<path id="Fill-11" class="st0" d="M587.7,71.4V24.6h-10.9v57.7L587.7,71.4"/>
				<path id="Fill-12" class="st0" d="M595.4,79.2l-10.9,10.9h57.7V79.2H595.4"/>
				<path id="Fill-13" class="st0" d="M609.6,49.6v-25h-10.9v35.9L609.6,49.6"/>
				<path id="Fill-14" class="st0" d="M617.2,57.4l-10.9,10.9h35.9V57.4H617.2"/>
			</g>
		</g>
	</g>
</g>
</svg>
