<?xml version="1.0" encoding="utf-8"?>
<!-- Generator: Adobe Illustrator 23.1.1, SVG Export Plug-In . SVG Version: 6.00 Build 0)  -->
<svg version="1.1" id="Layer_1" xmlns="http://www.w3.org/2000/svg" xmlns:xlink="http://www.w3.org/1999/xlink" x="0px" y="0px"
	 viewBox="0 0 809.4 264.5" style="enable-background:new 0 0 809.4 264.5;" xml:space="preserve">
<style type="text/css">
	.st0{fill:#FFFFFF;}
	.st1{fill:#F9FCFC;}
	.st2{fill:#F5F9FB;}
	.st3{fill:none;}
	.st4{fill:#83AFCC;}
</style>
<g id="Oh2hbP_1_">
	<g>
		<path class="st0" d="M548,183c-1.4-0.6-3-0.3-4.4-1c-3.3-1.9-3.2-4.8-2.4-7.8c0.9-3.5,0.2-7.1,1-10.5c0.1-0.5,0.6-1.6-0.8-1.6
			c-1.1,0-1.1,0.8-1.1,1.6c-0.1,6.2-1.8,12.4-1,18.6c0.3,2.6-4.2,5.9-6.8,5.8c-1.3-0.1-0.8-1.1-0.4-1.7c3.3-3.9,2.9-8.4,2.2-12.9
			c-0.4-2.4,1.3-4.5,0.8-6.9c-1.2-6.1-2.4-12.2-3.2-18.3c-0.8-5.8-2.4-11.7,0.4-17.5c1.1-2.4-1.4-3.3-2.3-4.8
			c-1.6-2.6-2.5-5.5-4.6-7.9c-1.5-1.8,0.3-6.2,2.9-8.5c0.9-0.8,1.6-1.1,0.4-2.4c-1.9-2.1-1.5-4.9,0.7-6.8c2-1.7,4.2-0.7,5.5,0.6
			c1.7,1.7,1.3,4.1,0,6.1c-0.2,0.3-0.6,0.6-0.9,0.9c0.4,1.4,2.3,0.9,2.6,2.2c0.3,1.1,0.8,2.2,2.2,1.5c1.4-0.7,2.2-1.7,1.7-3.4
			c-0.9-3.4-0.5-6.7,1.4-9.8c2.2-3.6,5.5-3.5,7.8,0c0.6,1,0.3,3.7,2.2,2.6c1.8-1,0.1-2.8-0.7-4.1c-1.1-1.8-2-3.6-1.6-5.8
			c0.6-2.6,1.7-4.7,4.8-4.7c2.9,0,4.9,1.6,5.5,4.5c0.3,1.5,0.1,3-0.4,4.5c-0.8,2.8,0.3,4.7,3.3,5.5c2.2,0.6,4.5,0.9,6,2.8
			c1.2,1.5,1.9-0.2,2.5-0.6c7.6-5.2,15.9-6.9,24.9-5.6c12.6,1.9,20.9,11.8,21.1,25.5c0.2,15.4,0.2,30.9,0,46.3
			c-0.1,11.8-8.8,18.8-19.6,16.3c-6.6-1.6-11.3-8.4-11.3-17c-0.1-12,0-24,0-35.9c0-2.1-0.1-4.1-0.8-6.1c-1.9-5.4-8.1-7.9-13.3-5.6
			c-1.1,0.5-1.7,1.2-1.6,2.4c0.1,5-1.6,9.7-2.1,14.7c-0.2,2.1-0.2,5.7-3.6,6.8c-1.3,0.4-0.7,1.9-0.6,2.9c1,8.2,2,16.5,2.9,24.7
			c0.5,3.8-0.9,7.9,1.6,11.5c0.7,1,0.1,2.2-1.2,2.4c-1.7,0.3-4.1,0.8-4.4-1.3c-0.3-2.4-1.5-1.6-2.9-1.7c-2.5-0.2-4.9,0.2-7.4,0.4
			c-1.5,0.1-3,0.4-4.2-0.9c-0.5-2.1,1.1-2.6,2.5-3.1c2.4-0.9,2.7-2.3,1.7-4.5c-2.3-5.2-3.4-10.7-4.2-16.2c-0.1,0.6,0,1.1-0.1,1.6
			c-1.8,4.6-1.5,9.6-2.5,14.4c-0.3,1.6,0.5,3.1,1.4,4.5C548.4,180.8,549.5,181.9,548,183z"/>
		<path class="st0" d="M336.7,139.9c0,14.5-2.9,27.9-14.8,37.7c-7.8,6.4-17.1,8.8-27,9.5c-1.4,0.1-1.9-0.3-1.8-1.8
			c0.5-6.3,0.6-12.6,3.2-18.6c1.3-2.9,2.2-5.7,3.9-8.5c3.1-5,2.1-11,1.8-16.7c-0.1-2.4-0.2-4.9-0.5-7.3c-0.4-3.3-0.4-6.8-3.5-9
			c-0.2-0.2-0.5-0.6-0.4-0.8c2.2-4.5-2.1-8.2-1.8-12.5c0-0.6-0.4-1.2-0.8-1.7c-2.3-3.2-6.4-2.9-8,0.7c-1.6,3.6-3.1,7.7-3.3,11.3
			c-0.1,3.8-1.7,6.9-2.1,10.4c-0.9,6.3-0.9,12.6-0.7,19c0.2,4,2.4,6.9,4.1,10.2c1.5,3,2,6.3,1.5,9.4c-0.7,4.5-0.5,8.8,0.9,13.1
			c0.9,2.9-0.4,2.9-2.6,2.7c-19.1-1.2-34.5-14.8-37.7-33.7c-1.8-10.4-1.9-20.9,2.1-30.9c6.3-15.8,18.8-23.2,35.1-25.4
			c9.2-1.2,18.4-0.7,27.1,2.8c15.9,6.5,23.1,19.2,25.2,35.5C336.6,136.9,336.6,138.4,336.7,139.9z"/>
		<path class="st0" d="M630.4,181c3.4-1.1,6.1-0.2,8.8-0.4c1.1-0.1,2.5,0,2.7-1.2c0.2-1.5-1.4-1.3-2.4-1.4c-2.1-0.1-2.8-1.2-2.3-3.2
			c1.6-6.6,2.3-13.4,3.4-20.1c0-0.3,0.2-0.7,0.1-0.9c-2.9-8.3-0.5-17.1-2.1-25.6c-0.8-4.3-1.8-8.7-2.1-13.1
			c-0.1-1.2-1.1-1.8-1.5-2.8c-0.9-2.3-2.8-4.2-0.3-7.3c2.3-2.9,1.6-7.2,0.9-10.9c-0.3-1.7-2.2-2-3.7-2.1c-2-0.1-4.1,0.4-5.1,2.2
			c-1.3,2.5-2.3,5.1,0.1,7.7c1.8,1.9,0.3,4.3-3.7,6.2c-0.9-0.6-0.4-1.6-0.4-2.3c0.2-8.3-0.5-16.6,0.4-24.9c1-8.8,7-14.5,15.2-14.6
			c7.9-0.1,13.9,5.2,15.4,13.7c0.3,2,0.5,4.1,0.5,6.1c0,12.6,0,25.3,0,37.9c0,1,0,2.1,0,3.9c5.8-6.5,11.1-12.5,16.4-18.4
			c3.4-3.8,6.5-7.8,10.8-10.6c8.1-5.3,18.2-0.8,19.8,8.7c0.7,4.2-0.8,7.7-3.5,10.7c-3.8,4.4-7.8,8.6-12,12.7
			c-1.9,1.8-1.6,2.9-0.3,4.8c5.5,8.1,10.9,16.3,16.3,24.5c1.9,2.9,3.5,5.9,3.9,9.5c0.7,6.2-2.4,12-7.8,14.8c-5.7,3-12.1,2.2-16.9-2
			c-2-1.8-3.7-3.9-5.1-6.2c-4.5-7-9-13.9-13.4-21c-1.3-2.1-2-1.8-3.7-0.4c-3.6,3-5.5,6.4-4.7,11.2c0.4,2.5,0,5.2-0.5,7.7
			c-1.5,7.6-7.4,12.4-15.1,12.4c-2.4,0-5,0.4-5.7-3C632.9,182.5,631.7,182,630.4,181z"/>
		<path class="st0" d="M239.1,142.2c0,9.3,0.1,18.6,0,27.8c-0.1,6.3-2.3,11.7-8.4,14.6c-5.7,2.7-11.3,2.3-16.6-1.3
			c-3.8-2.6-5.7-6.4-6-10.9c-0.7-10.8-0.3-21.6-0.3-32.4c0-9.3-0.5-18.6,0.3-27.8c0.7-8.8,7.2-15.1,15.2-15.1
			c8.3-0.1,14.9,5.6,15.4,14.7c0.6,10.1,0.1,20.3,0.1,30.4C239,142.2,239,142.2,239.1,142.2z"/>
		<path class="st0" d="M237.4,80.1c0,8-6.2,14.3-14,14.2c-7.7,0-13.9-6.3-14-14c0-7.9,6.3-14.3,14.1-14.2
			C231.3,66.1,237.4,72.3,237.4,80.1z"/>
		<path class="st0" d="M730.3,83.6c2.3-2.5,4.1-4.5,5.9-6.5c1.4-1.6,3.1-2.7,5-1c1.9,1.7,0.8,3.5-0.7,5c-3.5,3.4-3.5,3.4-0.8,7.4
			c0.9,1.3,1.8,2.7,2.6,4.1c0.9,1.7,1,3.4-0.8,4.5c-1.8,1.1-3.5,0.9-4.7-1c-1.1-1.7-2.1-3.5-3.2-5.2c-0.4-0.6-0.5-2-1.7-1.5
			c-0.8,0.4-1.6,1.1-1.6,2.2c0,1,0,1.9,0,2.9c0,1.9-0.9,3-2.9,3.1c-1.9,0.1-3.1-0.9-3.3-2.8c-0.2-2.5-0.2-4.9-0.2-7.4
			c0-5.2,0-10.3,0-15.5c0-1.6,0-3.3,1.7-4.3c2.2-1.3,4.6,0.1,4.7,2.8C730.4,74.6,730.3,78.7,730.3,83.6z"/>
		<path class="st0" d="M720.7,86.7c0,2.6,0,5.2,0,7.8c0,1.3-0.3,2.4-1.5,2.9c-1.2,0.5-2.7,0.6-3.6-0.6c-1-1.3-1.5-0.7-2.5-0.1
			c-5.4,3.4-11.2,0.5-11.7-5.8c-0.3-4.1-0.1-8.2-0.1-12.3c0-2,1-3.4,3.1-3.4c2.3,0,3.2,1.5,3.2,3.6c0,3,0,6,0,9
			c0,2.3,0.4,4.5,3.2,4.6c3.1,0.1,3.7-2.2,3.7-4.6c0.1-3,0.1-6,0-9c0-2.1,0.7-3.7,3.1-3.7c2.3,0,3.1,1.5,3,3.7
			C720.7,81.6,720.7,84.2,720.7,86.7z"/>
		<path class="st1" d="M548,183c0.9-1.1,0.1-1.8-0.6-2.4c-1.4-1.2-2.2-3.2-1.9-4.6c0.9-5.2,0.4-10.7,2.9-15.6
			c0.8-0.4-0.5-2.1,1.2-1.9c1.5,6.4,2.3,12.9,5.5,18.8c1.2,2.2-1.4,2.6-2.8,3.2c-1.3,0.6-3.1,0.5-3.2,2.5
			C548.7,183.1,548.3,183.1,548,183z"/>
		<path class="st2" d="M100.6,178.6c-2.7-5.3-0.6-10.7-0.3-16.1c0.1-1.8-0.1-3.9,1.3-5.7c1.8,4.9,2.1,9.8,0.7,14.8
			c-0.6,2.3-1.4,4.5-1.2,6.9C101,178.6,100.8,178.6,100.6,178.6z"/>
		<g>
			<path class="st3" d="M101.7,158C101.7,158,101.7,158,101.7,158C101.7,158,101.7,158,101.7,158z"/>
			<path class="st0" d="M101.6,158.3c-0.1,0.3-0.1,0.7,0,1c0-0.4,0.1-0.8,0.1-1.3C101.6,158.1,101.6,158.2,101.6,158.3z"/>
			<path class="st0" d="M195.6,117.5c-7-15.3-23.4-22.9-39.8-19.2c-5.6,1.3-10.5,4-14.9,8.7c0-9,0-17.3,0-25.5
				c0-8.4-5.6-14.5-13.8-15c-8.5-0.5-14.9,4.7-16.1,13c-1,6.7-0.4,13.4-0.5,20c-0.1,2.8,0,5.5,0,8.4c-5.4-1.4-7.4-3.7-5.5-6.9
				c1.6-2.9,0.1-5.1-0.9-7.2c-1.5-2.8-5.2-2.6-6.9,0.1c-1.8,2.8-2.2,6-0.3,8.7c2,2.8,0.8,4.1-1.5,5.3c-4.6,2.5-6.6,6.8-8.4,11.3
				c-1,2.6,0,4.2,2.7,4.7c2.4,0.4,2.5,1.4,2.1,3.6c-0.7,3.7-3,7.6-0.2,11.4c0.3,0.4,0,1.3-0.1,1.9c-0.6,2.1-0.6,4.3-0.2,6.4
				c1.4,8.4-0.5,16.8,0.5,25.1c0.4,3.5-0.6,5.9-4.4,6.5c-0.6,0.1-1.3,0.5-1.4,1.2c0,0.8,0.6,1.3,1.3,1.6c1,0.5,2.1,0.7,3.2,0.4
				c2.4-0.6,4.8-1,7.3-0.6c1.8,0.2,3.5-0.6,3-3c-0.9-6.6,0.4-13,1-19.3c-0.1-0.3-0.1-0.7,0-1c0-0.1,0.1-0.2,0.1-0.2c0,0,0-0.1,0-0.1
				c0,0,0,0,0,0.1c0,0.4-0.1,0.8-0.1,1.3c0,0.1,0,0.2,0,0.3c1.2,5,0.4,9.8-0.8,14.7c-0.4,1.5-0.4,3,0.4,4.4c1.6,1.6,0.2,2.6-0.7,3.8
				c-1.6,2.2-1.1,3.4,1.6,3.6c4.1,0.4,6.9-2.2,7.1-6.5c0.1-2.5,0.5-5,0.7-7.5c0.6,0.4,0.7,0.7,0.8,1.1c1,6.6,4.4,11.2,11.2,12.6
				c6.7,1.4,12.1-0.7,16-6.5c0.9-1.4,1.5-1.2,2.7-0.2c14.1,12.1,43.7,10.8,54.8-12C203.1,150.8,203.2,134,195.6,117.5z M165.5,158.1
				c-2.2,5.3-6.6,7.4-12.3,7.1c-5.4-0.2-8.8-3.2-10.7-8c-2-4.9-2.5-10-2.5-15.2c0.1-5.3,0.4-10.6,2.6-15.5c2.2-4.9,5.8-8.1,11.4-8.1
				c5.5,0,9.5,2.9,11.6,7.9C170.1,136.9,169.8,147.6,165.5,158.1z"/>
		</g>
		<g>
			<path class="st0" d="M430.3,120.5c-9.7-25-39.6-29.9-55.6-14.4c-0.6-1.1-0.3-2.3-0.3-3.5c-0.1-7.4,0.2-14.9-0.2-22.3
				c-0.5-8.5-6.6-13.9-14.8-13.9c-8.3-0.1-14.2,5.3-15.1,13.8c-0.3,2.6-0.5,5.2-0.5,7.7c0,27.4,0,54.8,0,82.2
				c0,8.8,4.3,14.6,12.1,15.8c6.2,1,11.2-1,14.9-6.2c0.7-1,1.1-2.3,2.8-0.8c13.6,12.2,44.8,11.6,55.9-13.8
				C435.9,150.6,436.1,135.4,430.3,120.5z M399,157.8c-2.1,5.4-6.6,7.8-12.4,7.5c-5.5-0.2-9-3.2-10.9-8.2c-0.7-1.8-1.3-3.7-1.7-5.6
				c-0.7-3.2-0.9-6.4-0.7-9c0-5.8,0.4-10.8,2.4-15.6c2.1-5.1,5.7-8.4,11.5-8.5c5.7-0.1,9.8,3,11.8,8
				C403.3,136.9,403,147.4,399,157.8z"/>
		</g>
		<path class="st4" d="M549.5,158.6c-1,0.3-0.5,1.4-1.2,1.9c0-1.3,0-2.7,0-4.1C549.8,156.7,549.6,157.7,549.5,158.6z"/>
		<g>
			<path class="st0" d="M522.3,149.8c0-7.3,0.1-14.7,0-22c-0.3-14.9-7.5-24.4-21.9-28.2c-12.7-3.4-25.6-3.3-38.3,0.2
				c-7.1,2-13.3,5.7-17,12.5c-3.1,5.7-2.2,11.8,2.4,15.5c7,5.7,16.7,3.8,21.4-4c3.9-6.5,13.4-9.1,20.1-5.4c2.3,1.2,3.8,3,3.6,5.6
				c-0.2,2.7-1.9,4.3-4.5,4.9c-1.8,0.5-3.6,0.8-5.4,1.2c-9.6,2-19.4,3.1-28.5,6.9c-9,3.8-14.7,10.3-15.6,20.4
				c-0.9,10.5,1.7,19.5,11.3,25.3c9.5,5.8,32.2,6,42.6-5.3c1.6-1.8,2.3-1.8,3.3,0.6c2.6,6.4,9,9.4,16.2,8.1
				c6.6-1.2,10.1-5.4,10.3-12.8C522.4,165.5,522.3,157.6,522.3,149.8z M492.1,159.5c-4.8,3.8-10.1,6.2-16.3,5.8
				c-4.2-0.3-6.7-2.3-7.4-6c-0.6-3.3,0.7-5.9,4.8-7.4c6.5-2.4,13.3-4.3,20.2-6.5c0,4.1,0,7.8,0,11.6
				C493.4,158.2,492.9,158.9,492.1,159.5z"/>
		</g>
	</g>
</g>
</svg>
