<?xml version="1.0" encoding="utf-8"?>
<!-- Generator: Adobe Illustrator 22.1.0, SVG Export Plug-In . SVG Version: 6.00 Build 0)  -->
<svg version="1.1" id="Layer_1" xmlns="http://www.w3.org/2000/svg" xmlns:xlink="http://www.w3.org/1999/xlink" x="0px" y="0px"
	 viewBox="0 0 809.4 264.5" style="enable-background:new 0 0 809.4 264.5;" xml:space="preserve">
<style type="text/css">
	.st0{fill:#FFFFFF;}
</style>
<g>
	<path class="st0" d="M224.3,71.8c0,0.5-0.1,1-0.1,1.5c0,39.3,0,78.6,0,117.9c0,0.5,0,1,0.1,1.5c-40.3,0-80.6,0-120.9,0
		c0-40.3,0-80.5,0-120.9C143.7,71.8,184,71.8,224.3,71.8z M187.8,101.9c-2.4-0.3-4.7-0.2-7-0.3c-1.3,0-1.9,0.4-2.4,1.5
		c-4.4,8.8-8.8,17.5-13.2,26.2c-0.4,0.8-0.8,1.6-1.4,2.4c-1.1-1.9-2-3.7-2.8-5.5c-3.8-7.7-7.5-15.4-11.3-23.1
		c-0.3-0.7-0.6-1.3-1.5-1.3c-2.4,0-4.8-0.1-7.1-0.1c-0.5,0-1.1-0.1-1.7,0.3c0.4,0.8,0.8,1.6,1.2,2.4c6,11.3,12,22.6,18,33.9
		c0.6,1.1,0.8,2.1,0.8,3.3c0,7.2,0,14.5,0,21.7c0,0.5-0.2,1,0.2,1.4c2.7,0,5.5,0,8.3,0c0-0.6,0-1,0-1.5c0-7.1,0-14.2,0-21.3
		c0-1.2,0.2-2.2,0.8-3.2c6-11.3,12-22.6,18-33.9C187.1,103.9,187.6,103.1,187.8,101.9z"/>
	<path class="st0" d="M706,116.9c-0.4,0.2-0.4,0.6-0.5,0.9c-0.4,1-0.8,2.1-1.1,3.2c-0.8,2.3-0.8,2.4-3.3,2.5
		c-3.9,0.1-6.6,2.2-8.9,5.1c-0.5,0.7-0.7,1.5-0.8,2.4c-0.2,2.5-0.2,4.9-0.2,7.4c0,7.5,0,15,0,22.5c0,0.5,0.1,1-0.1,1.6
		c-2.3,0-4.6,0-7,0c-0.3-0.4-0.2-0.9-0.2-1.4c0-9.1,0-18.2,0-27.4c0-3.6-0.1-7.1-0.3-10.6c-0.1-1.8-0.5-3.5-0.8-5.4
		c2.1-0.7,4.2-1.2,6.4-1.8c1.4,2.1,1.3,4.6,1.7,7.1c1-0.8,1.8-1.6,2.6-2.4c2.3-2.3,5.1-4,8.4-4.6c1.4-0.2,2.8-0.1,4.2-0.1
		C706,116.2,706,116.5,706,116.9z"/>
	<path class="st0" d="M421.6,162.4c-2.5,0-4.8,0-7.1,0c-0.3-0.6-0.1-1.1-0.1-1.5c0-9.5,0-19,0-28.5c0-1.8-0.1-3.6-0.2-5.4
		c-0.2-2.9-2.1-4.8-5-5c-2.2-0.1-4.3,0.4-6.2,1.5c-2.2,1.3-4.1,3.1-6.1,4.7c-0.6,0.5-0.6,1.1-0.6,1.7c0,3.8,0,7.6,0,11.5
		c0,6.5,0,13,0,19.4c0,0.5,0.1,1-0.1,1.5c-2.3,0-4.6,0-7,0c-0.3-0.5-0.2-1-0.2-1.6c-0.1-10.2,0.1-20.3-0.1-30.5
		c0-1.2-0.1-2.4-0.2-3.6c-0.3-2.6-1.9-4.2-4.5-4.5c-1.6-0.2-3,0.1-4.5,0.6c-3,1.1-5.4,2.9-7.8,5c-0.6,0.5-0.5,1.1-0.5,1.7
		c0,4.2,0,8.4,0,12.5c0,6.3,0,12.5,0,18.8c0,0.5,0,1,0,1.5c-2.2,0-4.2,0-6.2,0c-0.3-0.5-0.1-1-0.2-1.5c-0.1-10.7-0.2-21.4-0.3-32.1
		c-0.1-3.5,0.1-7-1-10.4c-0.1-0.3-0.1-0.6-0.1-1c2-0.8,4.1-1.1,6.2-1.6c1.1,1.9,1.3,4.1,1.7,6.3c1.1-0.5,1.9-1.2,2.7-1.9
		c3.1-2.4,6.4-4.1,10.4-4.4c3.9-0.2,6.9,1.6,9.2,4.6c0.6,0.7,1,1.5,1.5,2.3c1.2-0.4,2-1.1,2.9-1.8c2.4-1.9,5-3.5,8-4.4
		c4.9-1.5,9.1-0.6,12.7,3.2c1.9,2,2.3,4.5,2.5,7.1c0.1,1.8,0.2,3.7,0.2,5.5c0.1,9.7,0.1,19.4,0.2,29.1
		C421.6,161.7,421.6,162,421.6,162.4z"/>
	<path class="st0" d="M443.9,157.8c-0.5,1.7-0.9,3.1-1.4,4.7c-2.2,0-4.4,0.2-6.7-0.2c0.2-1.7,0.6-3.4,0.7-5.1c0-0.7,0.1-1.4,0.2-2.1
		c0.4-16.3,0.1-32.6-0.1-48.8c0-3.1,0-6.2-0.7-9.3c1.8-0.5,3.5-1,5.2-1c1.4,0,1.9,0.3,2,1.7c0.1,1.3,0.2,2.6,0.3,3.9
		c0.2,6.2,0.3,12.5,0.5,18.7c0,0.4-0.1,0.8,0.1,1.2c0.6,0,0.9-0.4,1.2-0.7c2.2-1.7,4.4-3.2,7.1-4c6.5-2,13,0.2,17.2,5.6
		c2.4,3.1,3.7,6.7,4.4,10.6c1,6.2,0.7,12.3-1.5,18.2c-1.1,2.9-2.6,5.4-4.7,7.6c-5.6,6.1-15.3,6-21.5,1
		C445.4,159.1,444.8,158.5,443.9,157.8z M443.7,140.1L443.7,140.1c0,3.6,0,7.2,0,10.8c0,0.9,0.3,1.5,0.9,2.1
		c3.4,3.1,7.3,4.5,11.8,4.1c2.6-0.2,4.8-1.3,6.5-3.4c0.9-1.2,1.6-2.5,2-3.9c1.5-4.9,1.9-9.9,1.5-15c-0.2-2.6-0.7-5.2-2-7.5
		s-3.1-4-5.7-4.5c-4.5-1-8.8-0.4-12.3,2.8c-0.6,0.5-1.2,1.1-1.8,1.6c-0.7,0.6-0.9,1.3-0.9,2.3C443.7,133,443.7,136.5,443.7,140.1z"
		/>
	<path class="st0" d="M582.6,134.1c0.2-2.7,0-5.3-0.6-7.9c-0.7-2.9-2.9-4.6-6.1-4.8c-4.9-0.3-9.3,1.2-13.5,3.6
		c-0.7,0.4-1.4,0.9-2.3,1.4c-1.1-1.2-2-2.6-2.8-4.1c-0.5-0.8,0.2-1.2,0.8-1.6c2.5-1.4,5.1-2.6,7.8-3.6c4.5-1.6,9.2-1.8,13.9-1.1
		c5,0.7,9,5.5,9.2,10.5c0.3,7.2-0.1,14.4,0,21.6c0,1.9,0.1,3.9,0.2,5.8c0.1,1.9,0.7,3.5,2.3,4.6c0.3,0.2,0.5,0.3,0.6,0.8
		c-0.8,1.2-1.6,2.5-2.7,3.6c-0.9,0.9-1.3,0.9-2.4,0.3c-1.6-1-2.8-2.5-3.8-4.2c-0.2-0.4-0.4-0.8-0.7-1.2c-1.1,0.4-1.8,1.2-2.7,1.8
		c-5.4,4.2-11.3,4.9-17.6,2.6c-4.2-1.5-6.5-4.9-7.3-9.2c-1.3-7.2,2.3-13.4,9.2-16.3c3.8-1.6,7.8-2.2,11.9-2.5
		C578.6,134.3,580.5,134.2,582.6,134.1z M582.3,139.2c-3.9-0.4-7.7-0.3-11.4,0.6c-1.9,0.4-3.6,1.2-5,2.5c-1.4,1.2-2.5,2.6-2.7,4.5
		c-0.1,1.4-0.3,2.9-0.3,4.3c0,1,0.2,2,0.5,2.9c1.1,2.8,3.3,3.9,6.1,4.3c5,0.8,13.6-4,12.5-10.3c-0.1-0.7,0.1-1.5,0.1-2.3
		C582.3,143.6,582.3,141.4,582.3,139.2z"/>
	<path class="st0" d="M631.8,139.5c-0.1-3.7,0-7.4,1.3-10.9c1.1-2.8,2.4-5.3,4.4-7.5c2.7-3,6.1-4.7,10.1-5.2
		c6.7-0.7,12.6,0.6,17.2,5.8c3,3.4,4.6,7.4,5.2,11.8c0.6,4.1,0.7,8.3,0,12.4c-0.9,5.5-2.9,10.4-7.5,13.9c-4.2,3.2-9.1,4.2-14.4,3.5
		c-5.2-0.7-9.3-3-12.3-7.3c-2.4-3.5-3.8-7.4-4.1-11.7C631.7,142.7,631.8,141.1,631.8,139.5z M662.5,139.4c-0.1-1.5-0.1-3.5-0.3-5.6
		c-0.2-2-0.4-3.9-1.3-5.8c-1.6-3.5-4.1-5.9-8-6.5c-1.7-0.3-3.5-0.2-5.2,0.1c-1.8,0.3-3.3,1.1-4.6,2.3c-2.2,2.1-3.2,4.9-3.5,7.8
		c-0.5,5.2-0.5,10.5,0.3,15.7c0.8,5.4,3.3,9,9.2,9.9c6.1,0.9,11.3-1.6,12.7-8.6C662.3,145.9,662.2,143,662.5,139.4z"/>
	<path class="st0" d="M351.1,138.5c0.1,4.5-0.1,9-1.8,13.2c-3.5,8.7-11.9,12.5-19.8,11.6c-8.3-0.9-15.3-7.5-16.6-16.9
		c-0.7-5.2-0.9-10.4,0.3-15.5c1.6-6.8,5.5-11.8,12.2-14.4c1.2-0.5,2.5-0.7,3.8-0.7c1.8,0,3.7-0.1,5.5,0.1c5.3,0.5,9.2,3.3,12.2,7.5
		c2.6,3.7,4,7.8,4.1,12.4C350.9,136.7,351,137.6,351.1,138.5z M343.1,140.5c0-2.5,0-5-0.4-7.5c-0.2-1.9-0.7-3.7-1.4-5.4
		c-1.8-4.1-5.8-6.4-10.7-6.1c-5.3,0.3-8.7,3.1-10,8.2c-0.4,1.7-0.6,3.4-0.7,5.2c-0.4,5-0.1,10.1,1.3,14.9c0.6,2.1,1.5,4,3.2,5.5
		c6.6,5.3,16.1,2.1,18-6.2C343.1,146.2,343.1,143.4,343.1,140.5z"/>
	<path class="st0" d="M303.2,103.8c-0.9,1.7-2.1,3.1-3.4,4.6c-0.7-0.4-1.4-0.8-2.1-1.2c-4.9-2.6-10-3.3-15.4-1.6
		c-4,1.3-6.9,4-8.9,7.6s-3.1,7.5-3.3,11.7c-0.2,4.4-0.5,8.7-0.2,13.1c0.4,5.4,2.2,10.3,6,14.2c4,4.1,9,5.5,14.6,5.1
		c2.7-0.2,5.3-1,7.7-2.3c0.8-0.4,1.7-0.8,2.6-1.2c1.5,1.3,2.6,3,3.9,4.6c-1.8,1.2-3.7,2-5.7,2.8c-2.9,1.2-6,1.8-9.2,1.9
		c-2.8,0.1-5.6,0.3-8.3-0.4c-7.7-2.1-13.1-7-16.6-14.1c-2.6-5.5-3.2-11.4-3.2-17.3c0-6.4,1.2-12.6,4.3-18.3
		c3.4-6.2,8.1-10.8,14.9-13c3.6-1.2,7.4-1,11.1-0.6c3.5,0.3,6.7,1.5,9.7,3.4c0.4,0.2,0.7,0.5,1.1,0.8
		C303,103.4,303.1,103.6,303.2,103.8z"/>
	<path class="st0" d="M543.1,162.5c-1.3,0-2.6,0-3.9,0c-1,0-2,0-2.9,0c-0.4-0.5-0.2-1-0.2-1.5c0-5.8,0-11.7-0.1-17.5
		c0-4.7-0.1-9.4-0.2-14.2c0-0.8,0-1.6-0.2-2.4c-0.4-2.8-2.3-4.6-5.1-4.8c-2-0.2-4,0.1-5.9,0.9c-2.8,1.2-5.3,2.9-7.6,4.7
		c-0.6,0.5-0.6,1-0.6,1.7c0,10.5,0,21,0,31.4c0,0.5,0,1,0,1.6c-2.1,0-4.2,0-6.2,0c-0.3-0.4-0.2-1-0.2-1.4
		c-0.1-10.5-0.2-20.9-0.3-31.4c0-3.7,0-7.5-1.1-11.1c-0.1-0.2-0.2-0.5,0-0.9c1.9-0.7,4-1.3,6.2-1.5c0.9,2,1.3,4.1,1.6,6.3
		c0.8-0.1,1.3-0.6,1.9-1c2.4-1.9,5-3.6,7.9-4.6c5.7-2,11.8-0.2,15.1,4.4c1.5,2.1,1.6,4.5,1.7,7c0.2,6.4,0.3,12.8,0.3,19.1
		c0,4.6,0,9.2,0.1,13.8C543.3,161.4,543.4,161.9,543.1,162.5z"/>
	<path class="st0" d="M622.7,157.9c0.7,1.4,1,2.4,0.9,4.2c-1.4,0.9-3,1.1-4.7,1.3c-2.5,0.3-5,0.4-7.5-0.4c-3.1-1.1-5.1-3-5.4-6.5
		c-0.3-3.7-0.4-7.4-0.4-11.2c0-7.1,0-14.3,0-21.4c0-0.5,0-1,0-1.6c-2,0-3.9,0-5.9,0c0-1.8,0-3.5,0-5.3c1.9,0,3.8,0,5.8,0
		c0.2-2.7,0.4-5.3,0.6-7.9c0.1-0.8,0.3-1.5,0.2-2.3c0-1,0.5-1.5,1.4-1.7c1.9-0.5,3.7-0.9,5.8-1.3c-0.2,4.4-0.7,8.7-0.7,13.1
		c3.7,0.1,7.4,0.2,11.2,0.3c-0.6,1.8-1.3,3.3-2,5c-3.1,0-6.2,0-9.1,0c-0.4,0.3-0.3,0.6-0.3,0.9c0,10.1,0.1,20.2,0.3,30.3
		c0.1,3.8,1.9,4.8,5.1,5C619.5,158.5,621.1,158.3,622.7,157.9z"/>
	<path class="st0" d="M494.1,162.4c-2.5,0-4.8,0-7.2,0c0-15.1,0-30.3,0-45.4c2.3-0.4,4.5-0.8,6.9-1.2
		C494.3,131.4,494,146.8,494.1,162.4z"/>
	<path class="st0" d="M490.5,108c-3.1,0-5.4-2.3-5.3-5.4c0.1-3,2.4-5.4,5.3-5.3c2.9,0,5.6,2.6,5.5,5.3
		C495.9,105.5,493.4,108,490.5,108z"/>
</g>
</svg>
